<svg xmlns="http://www.w3.org/2000/svg" width="127.26" height="142.129" viewBox="0 0 127.26 142.129">
  <g id="homelogo" transform="translate(-137.416 -86.568)">
    <path id="Path_28279" data-name="Path 28279" d="M-17-.43l.53,0h.581c.2,0,.409,0,.62,0H-13.2l1.5,0,3.692,0q2.21,0,4.421,0Q1.754-.453,7.1-.456l3.539,0q9.406-.009,18.812-.011l4.358,0h.547q8.782,0,17.562-.017Q60.939-.5,69.966-.5h3.055q4.038,0,8.077-.009,4.058-.009,8.115-.006,2.412,0,4.824-.006,1.612,0,3.221,0,.919,0,1.835,0c.66,0,1.32,0,1.981,0,.189,0,.378,0,.571-.008A5.83,5.83,0,0,1,105.085.541a4.1,4.1,0,0,1,1.161,3.3c0,.183,0,.183,0,.369,0,.409,0,.815,0,1.224,0,.291,0,.585,0,.876q0,1.192,0,2.383c0,.5,0,.993,0,1.489q.006,2.33.006,4.661,0,2.687.009,5.376.006,2.08.006,4.16,0,1.24.006,2.482.006,1.169,0,2.336c0,.286,0,.571,0,.855,0,.392,0,.781,0,1.173v.66a4.144,4.144,0,0,1-1.583,2.9,3.863,3.863,0,0,1-2.359.781l-.528,0-.583,0-.62,0H98.538l-1.5,0q-1.847,0-3.7,0l-4.424,0q-5.349.006-10.7.006l-5.058,0-17.306.006H50.953q-8.787,0-17.577.008Q24.089,35.6,14.8,35.6H12.258q-4.043,0-8.085.006-4.063,0-8.123,0-2.415,0-4.829,0-1.612,0-3.223,0-.916,0-1.837,0c-.66,0-1.318,0-1.979,0-.191,0-.382,0-.577,0a4.484,4.484,0,0,1-3.32-1.091,4.321,4.321,0,0,1-1.209-3.2c0-.121,0-.244,0-.369q0-.613,0-1.224c0-.293,0-.585,0-.878q0-1.192,0-2.385c0-.5,0-.993,0-1.491l-.006-4.663q0-2.69-.009-5.382-.006-2.08-.006-4.162,0-1.24-.006-2.484,0-1.169,0-2.338c0-.286,0-.571,0-.857,0-.392,0-.781,0-1.173V3.249A4.63,4.63,0,0,1-18.993.02,3.357,3.357,0,0,1-17-.43Z" transform="translate(158.383 193.088)" fill="#fdfd00"/>
    <path id="Path_28282" data-name="Path 28282" d="M-198.347-6.924c.278.214.554.429.829.651.178.129.358.257.543.39a6.066,6.066,0,0,1,1.16,1.5V-4h.378a15.017,15.017,0,0,1,1.324,9.647c-.127.187-.25.375-.378.567q-.167.485-.308.98c-.049.172-.1.342-.149.518-.055.195-.055.195-.11.393h.378c.044-.134.087-.267.132-.4a6.764,6.764,0,0,1,1.131-1.653l.276-.32A36.248,36.248,0,0,1-183.9-1.923l.685-.431A21.162,21.162,0,0,1-176.9-4.76c.129-.036.257-.07.392-.106a9.54,9.54,0,0,1,6.889,1.317,8.472,8.472,0,0,1,2.745,2.762v.378h.378c1.1,2.085,2.058,4.129,1.375,6.537q-.187.46-.4.91a15.724,15.724,0,0,0-.613,1.727c-1.284,3.626-3.938,6.679-6.418,9.553-.127.146-.252.293-.38.445-.721.836-1.479,1.621-2.268,2.393q-.287.284-.567.567,1.129-.3,2.257-.615l.641-.172a18.069,18.069,0,0,0,3.182-1.141,4.757,4.757,0,0,1,1.487-.342v-.378c.151-.07.3-.142.46-.214,3.742-1.888,6.261-5.117,8.734-8.382.861-1.133,1.744-2.225,2.709-3.272.356-.388.7-.783,1.042-1.184,2.013-2.3,4.362-4.625,7.3-5.675h.567V-.031A49.286,49.286,0,0,1-142.25-1.6c.129-.028.257-.059.392-.091a18.53,18.53,0,0,1,3.885-.462l.422-.006c.452,0,.9-.008,1.354-.009.155,0,.308,0,.467,0a46.033,46.033,0,0,1,8.578.819v.567l-.723.284-.4.159a2.086,2.086,0,0,1-.953.125V.158c-2.906,1.324-2.906,1.324-3.783,1.324v.378l-.314.1a21.477,21.477,0,0,0-2.724,1.082,1.707,1.707,0,0,1-.934.146v.378l-.342.091a19.755,19.755,0,0,0-3.112,1.182c-.66.3-1.335.567-2.015.827a3.041,3.041,0,0,0-.963.549h-.568V6.59l-.335.119a23.881,23.881,0,0,0-3.815,1.926l-.579.339a100.382,100.382,0,0,0-8.7,5.75l-.829.6c-1.578,1.152-3.14,2.313-4.644,3.56-2.077,1.7-2.077,1.7-2.851,1.7-.062.187-.127.375-.189.567a4.375,4.375,0,0,1-.836.367l-.522.195-.533.195-.473.183a37.3,37.3,0,0,1-7.627,1.981l-.443.072c-1.625.259-3.246.484-4.888.6a1.5,1.5,0,0,1,.838-1.052c3.462-2.523,6.051-6.865,7.485-10.865.1-.276.1-.276.208-.556.781-2.173,1.6-5.278.619-7.495a3.844,3.844,0,0,0-1.583-1.407c-.062-.125-.127-.25-.189-.378a13.133,13.133,0,0,0-9.335.509A27.2,27.2,0,0,0-190.52,8.86c-7.71,7-7.71,7-10.026,7,.112-.479.227-.955.342-1.43.03-.134.062-.267.095-.4a14.143,14.143,0,0,1,.887-2.516c.07-.252.138-.5.189-.757h.378c.013-.168.013-.168.026-.34a7.35,7.35,0,0,1,.541-2.308,7.657,7.657,0,0,0-.757-5.675A4.5,4.5,0,0,0-201.87.537c-1.761-.144-3.235-.157-4.653.95a6.557,6.557,0,0,0-2.592,4.886,9.991,9.991,0,0,0,2.327,6.838c.306.323.62.639.946.946l.342.342a12.161,12.161,0,0,0,3.441,2.117v.378l.567.142a9.612,9.612,0,0,1,1.863.793c.42.206.844.376,1.281.543a25.642,25.642,0,0,1,2.342,1.076,19.986,19.986,0,0,0,5.092,1.852,6.42,6.42,0,0,1,1.107.323,7.705,7.705,0,0,0,1.88.308c.235.015.469.032.713.047l.736.045.749.049c.609.042,1.218.079,1.829.117-4.25,2.832-11.467,2.6-16.268,1.7-.225-.036-.45-.07-.683-.106a37.008,37.008,0,0,1-9.055-2.648,12.723,12.723,0,0,0-2.262-.651,20.113,20.113,0,0,1-3.133-.946c-.252-.066-.505-.131-.757-.189v-.378l-.39-.062A14.077,14.077,0,0,1-219,18.388a8.545,8.545,0,0,0-5.928.259,9.565,9.565,0,0,0-3.691,3.586c-.3.435-.3.435-.732.6l-.526.062-.609.079-.7.076c-.276.03-.552.061-.829.093l-1.322.144c-1.436.155-2.851.39-4.267.664a43.966,43.966,0,0,1-7.012.613v-.378l.643-.286.857-.388.422-.185a13.894,13.894,0,0,0,3-1.979q.451-.343.906-.685l.463-.344.473-.356c.989-.736,1.973-1.474,2.938-2.24a29.718,29.718,0,0,1,6.191-3.753c.121-.057.244-.112.371-.17,2.9-1.2,6.392-.938,9.452-.622l.41.04a7.641,7.641,0,0,1,2.44.753c.246.081.494.157.743.223l.581.155v.378l.484.059a8.8,8.8,0,0,1,1.975.7l.439.168a18.545,18.545,0,0,1,1.687.825l.607.322c.515.286,1,.6,1.487.934.883.6,1.8,1.12,2.73,1.629.166.089.331.18.5.272a23.435,23.435,0,0,0,5.979,2.47v-.378c-.114-.017-.225-.034-.342-.049a12.667,12.667,0,0,1-3.63-1.275V20.02l-.439-.061a1.767,1.767,0,0,1-1.074-.7l-.607-.329a8.439,8.439,0,0,1-1.924-1.551l-.323-.329a18.5,18.5,0,0,1-5.09-10.275c-.034-.212-.068-.424-.1-.643-.371-2.923-.286-6.59,1.239-9.193.085-.161.172-.32.263-.484a9.523,9.523,0,0,1,5.6-4.812A8.782,8.782,0,0,1-198.347-6.924Z" transform="translate(385.324 95.108)" fill="#ff0505"/>
    <path id="Path_28283" data-name="Path 28283" d="M-81.942,0h.567c.032.106.064.21.1.32a12.152,12.152,0,0,0,.836,2.1,15.478,15.478,0,0,1,.967,2.512c.155.477.325.938.511,1.4a2.816,2.816,0,0,1,.236,1.419h.378c1.122,2.788,1.122,2.788,1.441,3.653.384,1.027.794,2.043,1.207,3.057q.511,1.263.993,2.537c.064.166.127.333.193.505a2.9,2.9,0,0,1,.138,1.22h.757v-.378c.376-.3.753-.569,1.146-.84l.724-.505.384-.269c.4-.284.794-.573,1.188-.866l.388-.288c.25-.187.5-.373.747-.562.866-.643.866-.643,1.286-.643V14a6.791,6.791,0,0,1,.774-.575l.486-.333.515-.344c.166-.117.335-.233.509-.352,1.26-.855,1.26-.855,1.689-.855v-.378c1.023-.757,1.023-.757,1.513-.757a3.008,3.008,0,0,1-.267,1.619,12.145,12.145,0,0,0-.62,2.731c-.036.248-.036.248-.074.5q-.088.6-.174,1.2h-.378c.008.161.015.32.023.484a5.448,5.448,0,0,1-.28,1.561,32.288,32.288,0,0,0-.878,4.008H-65.3c.006.346.006.346.011.7a6.915,6.915,0,0,1-.2,1.761h-.378c0,.21.008.422.011.639a1.673,1.673,0,0,1-.2,1.063c-.034.3-.061.59-.083.887a10.2,10.2,0,0,1-.484,2.329H-67l-.189,2.459h-.378c.006.3.006.3.011.6a7.934,7.934,0,0,1-.2,1.667q-5.4.006-10.794.009-2.505,0-5.011.006-2.182,0-4.366,0l-2.313,0h-2.173l-.8,0h-1.706c-.454-.023-.454-.023-.643-.212q-.011-.567,0-1.135h-.378c-.017-.108-.032-.216-.049-.327q-.111-.729-.223-1.458c-.025-.17-.051-.339-.078-.515-.036-.242-.036-.242-.076-.49-.023-.149-.045-.3-.068-.452-.04-.354-.04-.354-.263-.541q-.011-.567,0-1.135h-.378c-.038-.244-.078-.488-.117-.738-.051-.318-.1-.636-.155-.953-.025-.161-.051-.322-.078-.486s-.049-.306-.076-.463c-.023-.142-.045-.284-.068-.429-.044-.339-.044-.339-.263-.524-.008-.441-.008-.883,0-1.324h-.378c-.023-.149-.045-.3-.07-.45a23.823,23.823,0,0,0-.687-3.144c-.2-.817-.382-1.638-.567-2.459l-.426-1.839q-.148-.641-.291-1.283c-.047-.214-.1-.429-.146-.651-.044-.193-.087-.386-.131-.585a7.63,7.63,0,0,0-.346-1.167,3.586,3.586,0,0,1-.174-1.475c.567,0,.567,0,.986.4l.528.541c.469.38.953.734,1.441,1.088.191.14.191.14.384.284a5.431,5.431,0,0,0,1.579.9V14l.34.161a6.222,6.222,0,0,1,1.031.679c.916.7,1.869,1.345,2.826,1.988a18.51,18.51,0,0,1,1.723,1.292,1.726,1.726,0,0,0,1.078.609c.023-.165.044-.329.068-.5a7.9,7.9,0,0,1,.558-1.735c.127-.3.127-.3.255-.6q.329-.743.668-1.483A12.8,12.8,0,0,0-86.86,12.3h.378c.017-.257.017-.257.036-.52a9.678,9.678,0,0,1,.859-2.52c.3-.683.552-1.371.808-2.068q.159-.426.32-.851c.081-.218.163-.437.248-.662h.378l.189-1.513h.378c.019-.2.04-.4.059-.6a4.156,4.156,0,0,1,.7-1.667c.149-.5.261-1,.378-1.513Z" transform="translate(278.07 134.043)" fill="#ffd702"/>
    <path id="Path_28284" data-name="Path 28284" d="M-17-.43l.53,0h.581c.2,0,.409,0,.62,0H-13.2l1.5,0,3.692,0q2.21,0,4.421,0Q1.754-.453,7.1-.456l3.539,0q9.406-.009,18.812-.011l4.358,0h.547q8.782,0,17.562-.017Q60.939-.5,69.966-.5h3.055q4.038,0,8.077-.009,4.058-.009,8.115-.006,2.412,0,4.824-.006,1.612,0,3.221,0,.919,0,1.835,0c.66,0,1.32,0,1.981,0,.189,0,.378,0,.571-.008A5.83,5.83,0,0,1,105.085.541a4.1,4.1,0,0,1,1.161,3.3c0,.183,0,.183,0,.369,0,.409,0,.815,0,1.224,0,.291,0,.585,0,.876q0,1.192,0,2.383c0,.5,0,.993,0,1.489q.006,2.33.006,4.661,0,2.687.009,5.376.006,2.08.006,4.16,0,1.24.006,2.482.006,1.169,0,2.336c0,.286,0,.571,0,.855,0,.392,0,.781,0,1.173v.66a4.144,4.144,0,0,1-1.583,2.9,3.863,3.863,0,0,1-2.359.781l-.528,0-.583,0-.62,0H98.538l-1.5,0q-1.847,0-3.7,0l-4.424,0q-5.349.006-10.7.006l-5.058,0-17.306.006H50.953q-8.787,0-17.577.008Q24.089,35.6,14.8,35.6H12.258q-4.043,0-8.085.006-4.063,0-8.123,0-2.415,0-4.829,0-1.612,0-3.223,0-.916,0-1.837,0c-.66,0-1.318,0-1.979,0-.191,0-.382,0-.577,0a4.484,4.484,0,0,1-3.32-1.091,4.321,4.321,0,0,1-1.209-3.2c0-.121,0-.244,0-.369q0-.613,0-1.224c0-.293,0-.585,0-.878q0-1.192,0-2.385c0-.5,0-.993,0-1.491l-.006-4.663q0-2.69-.009-5.382-.006-2.08-.006-4.162,0-1.24-.006-2.484,0-1.169,0-2.338c0-.286,0-.571,0-.857,0-.392,0-.781,0-1.173V3.249A4.63,4.63,0,0,1-18.993.02,3.357,3.357,0,0,1-17-.43Zm-1.814,2.862L-19,2.621c-.021.384-.026.768-.028,1.15,0,.123,0,.244,0,.369q0,.616,0,1.231c0,.293,0,.586-.006.878q-.006,1.447-.009,2.894c0,.333,0,.664,0,.995q-.006,2.071-.009,4.139-.006,2.971-.021,5.938Q-19.1,22.3-19.1,24.386q0,1.248-.009,2.493-.009,1.172,0,2.346c0,.288,0,.575-.006.861,0,.392,0,.783,0,1.177,0,.219,0,.439,0,.664a2.409,2.409,0,0,0,1.063,1.528l.189.189c.267.019.533.025.8.025l.528,0h.586c.2,0,.409,0,.619,0h2.081l1.5,0,3.7,0q2.216,0,4.428,0,5.354.009,10.707.011l3.545,0q9.417.009,18.833.011l4.366,0h.549q8.8,0,17.59.017,9.037.011,18.074.013h3.059q4.046,0,8.092.009,4.063.009,8.128.006,2.417,0,4.833.006,1.615,0,3.225,0,.922,0,1.841,0c.66,0,1.32,0,1.979,0,.193,0,.384,0,.581.008a2.58,2.58,0,0,0,2.013-.594c.119-.157.238-.314.359-.477l.189-.189c.021-.384.028-.768.028-1.15,0-.183,0-.183,0-.369q0-.616,0-1.231c0-.293,0-.586.006-.878q.006-1.447.009-2.894c0-.333,0-.664,0-.995q.006-2.071.009-4.141.006-2.968.021-5.936.011-2.086.011-4.171,0-1.248.009-2.493.009-1.172,0-2.346c0-.288,0-.575.006-.861,0-.392,0-.783,0-1.177,0-.219,0-.439,0-.664a2.3,2.3,0,0,0-1.063-1.528,3.834,3.834,0,0,0-1.411-.214l-.526,0h-.583l-.619,0H98.171l-1.492,0-3.685,0q-2.208,0-4.415,0-5.332-.009-10.667-.011l-3.532,0Q65,1.425,55.612,1.422l-4.349,0h-.547q-8.765,0-17.53-.017-9.006-.011-18.012-.013H12.128q-4.032,0-8.064-.009-4.049-.009-8.1-.006-2.406,0-4.814-.006-1.609,0-3.214,0-.916,0-1.833,0c-.658,0-1.315,0-1.973,0-.191,0-.382,0-.579-.008A2.4,2.4,0,0,0-18.815,2.432Z" transform="translate(158.383 193.088)"/>
    <path id="Path_28285" data-name="Path 28285" d="M-50.616-1.657c1.262.208,2.533.335,3.8.473a11.931,11.931,0,0,1,2.79.594c.617.1,1.231.174,1.852.246a2.907,2.907,0,0,1,1.364.322c.382.03.764.051,1.148.07a24.7,24.7,0,0,1,3.049.39,39.245,39.245,0,0,0,4.014.535l.426.04.371.03c.664.1,1.313.286,1.963.448V7.166l-2.27.189a23.6,23.6,0,0,0-15.133,8.891,15.236,15.236,0,0,0-2.081,3.594H-49.7c-.019.2-.038.4-.059.6a2.249,2.249,0,0,1-.39,1.148,9.294,9.294,0,0,0-.876,2.6H-51.4c-.009.163-.017.325-.028.494-.121,1.986-.322,3.959-.539,5.938q-1.484.014-2.968.021c-.339,0-.675,0-1.012.008q-.724.006-1.451.008l-.458.006c-.371,0-.74-.019-1.11-.042-.541-.543-.479-1.116-.526-1.846-.011-.146-.023-.293-.034-.445-.036-.469-.068-.94-.1-1.411s-.066-.931-.1-1.4c-.021-.289-.042-.579-.061-.87a16.36,16.36,0,0,0-.409-2.527c-.121-.532-.2-1.063-.267-1.6-.028-.219-.057-.437-.087-.664s-.061-.458-.091-.7c-.236-1.771-.5-3.535-.8-5.3-.278-1.595-.484-3.185-.62-4.8a3.944,3.944,0,0,0-.3-1.525,8.347,8.347,0,0,1,1.277-5.735q.3-.355.615-.7l.371-.4a9.743,9.743,0,0,1,2.278-1.869c.121-.07.24-.142.365-.214C-55.426-2.385-52.788-2.054-50.616-1.657Z" transform="translate(224.827 123.284)" fill="#ff0202"/>
    <path id="Path_28286" data-name="Path 28286" d="M-91.625,0h6.431a33.032,33.032,0,0,1-.378,3.783h-.378c-.013.244-.013.244-.028.494-.013.223-.028.446-.044.677s-.025.433-.04.658c-.193,2.308-.685,4.6-1.1,6.874-.1.552-.2,1.1-.3,1.655-.274,1.51-.55,3.015-.883,4.511a36.72,36.72,0,0,0-.6,4.114,12.867,12.867,0,0,1-.791,3.337c-.1.257-.1.257-.2.52a7.257,7.257,0,0,1-3.776,3.641l-.437.221a7.076,7.076,0,0,1-2.223.216c-.165,0-.329,0-.5,0A25.545,25.545,0,0,1-103,29.874a10.434,10.434,0,0,0-2.054-.271,10.921,10.921,0,0,1-2.421-.375,28.7,28.7,0,0,0-2.951-.45l-.511-.068-.458-.059a9.111,9.111,0,0,1-1.6-.467V20.24l2.27-.378c.38-.083.759-.172,1.135-.272.586-.153,1.171-.3,1.763-.437l.613-.142c.183-.042.367-.081.556-.125a2.107,2.107,0,0,0,1.04-.726,7.094,7.094,0,0,1,.779-.356,22.5,22.5,0,0,0,10.381-9.67q.264-.4.532-.8a7.726,7.726,0,0,0,.853-2,5.226,5.226,0,0,1,.308-.821,15.176,15.176,0,0,0,.588-2.37c.066-.323.131-.647.2-.97.028-.144.057-.286.085-.433A2.289,2.289,0,0,1-91.625,0Z" transform="translate(311.586 157.31)" fill="#ff0303"/>
    <path id="Path_28287" data-name="Path 28287" d="M0,0A20.513,20.513,0,0,1,3.375.569a15.531,15.531,0,0,0,2.69.376c.352.03.7.062,1.054.095.172.015.342.032.52.047.7.066,1.4.148,2.1.236l.656.083a3.1,3.1,0,0,1,1,.291,6.766,6.766,0,0,0,1.81.354l.742.074c.255.025.513.049.768.072s.52.053.781.078q.951.094,1.9.183v.378l.318-.011a26.651,26.651,0,0,1,4.317.354c.236.032.475.062.719.095A10.394,10.394,0,0,1,29.99,6.984a2.447,2.447,0,0,1,.465,1.15h.378c1.25,3.38.6,7.589-.378,10.971-.064.448-.119.9-.166,1.347-.178,1.593-.48,3.153-.789,4.723-.183.938-.34,1.878-.484,2.824-.074.375-.074.375-.263.564-.518.017-1.031.023-1.549.019l-.471,0q-.743,0-1.491-.006l-1.01,0q-1.237,0-2.478-.009c-.011-.2-.021-.4-.032-.607a23.256,23.256,0,0,0-2.542-10,1.731,1.731,0,0,1-.263-1.116h-.378c-.567-1.088-.567-1.088-.567-1.513h-.378c-.265-.375-.513-.749-.757-1.135a8.9,8.9,0,0,0-1.952-2.2,6.751,6.751,0,0,1-.768-.724,10.8,10.8,0,0,0-2.576-2V8.891l-.52-.153a2.5,2.5,0,0,1-.972-.5A9.288,9.288,0,0,0,8.13,7.251c-.358-.159-.713-.327-1.063-.5A15.646,15.646,0,0,0,.978,5.336,3.026,3.026,0,0,1,0,5.107Z" transform="translate(198.397 125.342)" fill="#ff0303"/>
    <path id="Path_28288" data-name="Path 28288" d="M0,0H6.621c.106.547.21,1.091.32,1.655A18.056,18.056,0,0,0,8.323,5.864,3.267,3.267,0,0,1,8.7,7.377H9.08c.093.21.093.21.189.424a14.357,14.357,0,0,0,2.217,3.424c.41.479.785.97,1.165,1.472A13.857,13.857,0,0,0,16.4,15.878l.626.39v.378l.4.149a16.79,16.79,0,0,1,1.718.868,20.518,20.518,0,0,0,8.851,2.55c.382.026.382.026.571.216.017.532.023,1.059.019,1.591,0,.238,0,.238,0,.482q0,.766-.006,1.532c0,.346,0,.69,0,1.037q0,1.274-.009,2.546a15.777,15.777,0,0,1-3.783-.567c-.715-.11-1.432-.183-2.153-.261-1.9-.214-3.776-.484-5.658-.794-1.084-.18-2.166-.342-3.255-.48a22.273,22.273,0,0,1-2.522-.452c-.477-.108-.955-.174-1.44-.246a9.14,9.14,0,0,1-5.592-3.63c-.1-.129-.195-.257-.3-.39a12.034,12.034,0,0,1-1.975-5.864c-.03-.233-.061-.467-.093-.706-.172-1.345-.331-2.692-.488-4.039-.017-.144-.034-.288-.051-.435Q1.138,8.7,1.02,7.644A27.084,27.084,0,0,0,.463,4.182a19.985,19.985,0,0,1-.3-2.4C.112,1.2.057.607,0,0Z" transform="translate(166.429 157.31)" fill="#ff0303"/>
    <path id="Path_28289" data-name="Path 28289" d="M-11.305-.016l.45,0c.312,0,.624,0,.938,0q.718,0,1.436,0c.3,0,.607,0,.912,0l.433,0c.982.013.982.013,1.436.322a5.544,5.544,0,0,1,.535,1.05c.083.21.083.21.168.422s.083.218.168.437A13.659,13.659,0,0,0-3.6,4.788c.072-.185.142-.371.216-.562C-2.123.981-2.123.981-1.518.249A6.526,6.526,0,0,1,.741.022c.146,0,.289,0,.439,0,.3,0,.609,0,.914,0,.467,0,.934-.008,1.4-.013.3,0,.594,0,.889,0,.14,0,.28,0,.424-.008C5.774,0,5.774,0,6.181.3A2.96,2.96,0,0,1,6.5,2.244c0,.166,0,.331,0,.5,0,.547,0,1.093,0,1.64,0,.38,0,.76,0,1.139q0,1.195,0,2.387,0,1.532,0,3.063,0,1.178,0,2.351c0,.376,0,.753,0,1.131,0,.526,0,1.05,0,1.576,0,.157,0,.314,0,.475-.011,1.061-.011,1.061-.329,1.468a2.354,2.354,0,0,1-1.634.325l-.388,0c-.271,0-.541,0-.81,0-.414,0-.827,0-1.241.011-.263,0-.526,0-.789,0-.238,0-.479,0-.724,0C0,18.219,0,18.219-.364,17.892a2.872,2.872,0,0,1-.3-1.332c-.006-.168-.013-.337-.021-.509S-.7,15.7-.7,15.523s-.011-.354-.019-.537c-.015-.435-.028-.872-.04-1.307l-.165.339c-.248.505-.5,1.012-.745,1.517-.085.176-.17.352-.259.533s-.166.337-.253.511c-.076.155-.151.31-.231.471a3.064,3.064,0,0,1-.806.98,1.919,1.919,0,0,1-1.324-.189,11.023,11.023,0,0,1-1.124-2.092c-.093-.2-.185-.4-.282-.6q-.343-.732-.675-1.47c0,.117-.006.235-.008.356q-.023.8-.051,1.595c-.006.278-.006.278-.013.56-.006.178-.013.356-.021.537,0,.165-.009.327-.015.5a1.46,1.46,0,0,1-.3.766,2.5,2.5,0,0,1-1.576.306l-.732,0-.38,0c-.382,0-.764,0-1.146,0-.242,0-.482,0-.732,0-.221,0-.443,0-.672,0a2.376,2.376,0,0,1-1.547-.641,8.49,8.49,0,0,1-.121-1.619c0-.165,0-.329-.006-.5,0-.547,0-1.093,0-1.642,0-.378,0-.759,0-1.139q0-1.192.006-2.387c.006-1.02,0-2.041,0-3.063,0-.783,0-1.566,0-2.351,0-.376,0-.753,0-1.129,0-.526,0-1.052.008-1.578,0-.155-.006-.312-.008-.473A5.485,5.485,0,0,1-13.813.627,3.314,3.314,0,0,1-11.305-.016Z" transform="translate(156.597 201.136)" fill="#e60000"/>
    <path id="Path_28290" data-name="Path 28290" d="M-9.819-.008l.7,0L-8.384,0-7.65-.01l.7,0,.641,0A1.865,1.865,0,0,1-4.99.635a3.988,3.988,0,0,1,.392.7c.064.131.129.263.193.4l.195.416.392.815.172.365a4.678,4.678,0,0,0,.549.9c0-.106.006-.212.008-.322q.023-.721.051-1.44c0-.168.008-.335.013-.505s.013-.322.021-.486c0-.148.009-.3.013-.448A1.2,1.2,0,0,1-2.342.068,6.861,6.861,0,0,1-1.065-.008l.375,0c.261,0,.522,0,.785,0q.6,0,1.2,0c.253,0,.507,0,.762,0l.7,0A1.278,1.278,0,0,1,3.9.635a14.456,14.456,0,0,1,.07,1.617c0,.166,0,.331,0,.5q0,.82,0,1.64V5.532q0,1.195-.006,2.387-.006,1.532,0,3.063,0,1.178,0,2.351v1.131q0,.786-.006,1.576c0,.157,0,.314,0,.475a2.548,2.548,0,0,1-.431,1.712,6,6,0,0,1-1.2.076c-.242,0-.482,0-.732,0l-.384,0c-.384,0-.766,0-1.15,0-.244,0-.486,0-.736,0-.223,0-.445,0-.673,0a2.675,2.675,0,0,1-1.551-.641,4.1,4.1,0,0,1-.507-.8q-.122-.227-.25-.46c-.081-.159-.165-.316-.25-.479s-.17-.32-.259-.484q-.318-.59-.626-1.182c0,.238-.006.479-.009.724-.008.314-.017.628-.026.942,0,.157,0,.316,0,.479s-.011.3-.017.46c0,.21,0,.21-.008.424-.125.376-.125.376-.533.706A3.692,3.692,0,0,1-7.12,18.3H-7.8l-.706-.009-.706,0c-1.977-.011-1.977-.011-2.592-.439a6.638,6.638,0,0,1-.227-2.151c0-.163,0-.323,0-.49-.006-.535-.008-1.069-.011-1.6,0-.182,0-.365,0-.552q-.009-1.447-.011-2.894-.006-1.5-.023-2.994-.009-1.149-.009-2.3c0-.369,0-.736-.008-1.1-.006-.515-.006-1.027-.006-1.542,0-.153-.006-.306-.009-.463a5.128,5.128,0,0,1,.121-1.12A2.848,2.848,0,0,1-9.819-.008Z" transform="translate(192.795 201.128)" fill="#fb0101"/>
    <path id="Path_28291" data-name="Path 28291" d="M-9.432-.024l.673-.006.723,0,.749,0c.522,0,1.044,0,1.566,0,.666,0,1.332,0,2,0,.639,0,1.279,0,1.918,0l.721,0c1.691.013,3.066.17,4.336,1.4,1.01,1.407.811,3.131.823,4.79,0,.312.009.626.015.94.074,3.163.074,3.163-1.027,4.485a1.621,1.621,0,0,0,.123,1.487c.07.18.138.359.21.545q.221.565.445,1.129c.7,1.839.7,1.839.547,2.892a1.384,1.384,0,0,1-.567.567,10.768,10.768,0,0,1-1.394.081l-.412,0c-.288,0-.575,0-.861,0q-.658,0-1.317.011c-.28,0-.56,0-.838,0-.132,0-.263.006-.4.008a2.089,2.089,0,0,1-1.472-.439,3.273,3.273,0,0,1-.588-1.154c-.042-.134-.081-.269-.123-.407s-.078-.276-.117-.418-.083-.282-.127-.428c-.1-.346-.2-.692-.3-1.038-.008.21-.013.42-.021.636-.013.276-.025.552-.038.83-.006.206-.006.206-.013.418a2.343,2.343,0,0,1-.685,1.9,5.075,5.075,0,0,1-1.264.093c-.123,0-.246,0-.373,0-.259,0-.518,0-.779-.008q-.593-.006-1.186,0c-2.27-.011-2.27-.011-3.019-.654a8.649,8.649,0,0,1-.123-1.619c0-.165,0-.329,0-.5,0-.547,0-1.1,0-1.642,0-.378,0-.759,0-1.139q0-1.192.006-2.387c.006-1.02,0-2.041,0-3.063,0-.783,0-1.566,0-2.351,0-.376,0-.753,0-1.129,0-.526,0-1.052.006-1.578,0-.155,0-.312-.006-.473A5.486,5.486,0,0,1-11.5.617,2.621,2.621,0,0,1-9.432-.024Z" transform="translate(256.434 201.146)" fill="#e50000"/>
    <path id="Path_28292" data-name="Path 28292" d="M-23.676-.073l.637,0q.667,0,1.33,0c.679,0,1.358-.006,2.037-.009h1.292l.617-.006.569,0h.5A1.283,1.283,0,0,1-15.7.551a5.96,5.96,0,0,1,.269.974c.042.189.083.38.127.577s.081.4.125.6c.066.3.066.3.132.6.361,1.685.361,1.685.1,2.548-.378.378-.378.378-1.046.422-.288,0-.573,0-.859-.006-.151,0-.3,0-.458,0-.48,0-.963-.008-1.445-.011l-.978-.006q-1.2-.006-2.4-.019v6.053h1.7v-.567c-.117-.019-.235-.04-.356-.059-.4-.131-.4-.131-.779-.7a12.782,12.782,0,0,1-.072-1.786c0-.163-.009-.325-.013-.492,0-.236,0-.236,0-.477,0-.142,0-.286-.006-.433A1.667,1.667,0,0,1-20.807,6.6a8.809,8.809,0,0,1,1.46-.095h.426c.3,0,.592,0,.887.006.454.006.906,0,1.358,0l.864.006c.134,0,.271,0,.41,0,.931.017.931.017,1.345.308a1.879,1.879,0,0,1,.312,1.362v.632c0,.223-.006.448-.009.679s0,.462,0,.7c0,.736-.011,1.474-.017,2.209,0,.5-.006,1-.009,1.5q-.009,1.833-.026,3.67a7.631,7.631,0,0,1-1.979.789l-.46.1-.471.095c-.153.034-.306.066-.465.1a11.682,11.682,0,0,1-2.868.24l-.378-.757-.443.006c-.668.008-1.337.013-2.005.019l-.694.009c-3.418.017-3.418.017-4.8-1.169a6.07,6.07,0,0,1-.787-3.45c0-.231,0-.46-.006-.7s0-.492,0-.745v-.382q-.006-1-.006-2.007,0-1.033-.011-2.062c0-.532,0-1.065-.006-1.6,0-.375,0-.751-.008-1.126a6.352,6.352,0,0,1,.887-3.827l.259-.255c.081-.089.165-.176.25-.265A7.669,7.669,0,0,1-23.676-.073Z" transform="translate(243.606 201.212)" fill="#f80707"/>
    <path id="Path_28293" data-name="Path 28293" d="M-9.3-.024l.656-.006.7,0,.726,0c.507,0,1.014,0,1.521,0,.649,0,1.3,0,1.945,0,.62,0,1.241,0,1.861,0l.7,0,.656.006c.189,0,.378,0,.575,0a2.863,2.863,0,0,1,1.47.639,2.625,2.625,0,0,1,.257.883c.032.172.062.346.095.522s.057.359.085.545.064.356.1.537c.407,2.353.407,2.353-.013,2.962A2.483,2.483,0,0,1,.95,6.481l.378.378a7.227,7.227,0,0,1,.044,1.065c0,.21,0,.422,0,.639s0,.443-.006.672c0,.333,0,.333,0,.673-.008,1.653-.008,1.653-.223,1.869l1.135.567a11.362,11.362,0,0,1-.437,3.464c-.042.168-.081.339-.123.513s-.081.323-.125.49c-.036.146-.072.291-.11.443a1.849,1.849,0,0,1-.719.955,5.4,5.4,0,0,1-1.116.074l-.694.006c-.248,0-.494,0-.749,0s-.515,0-.77,0q-.806,0-1.614,0c-.689,0-1.377,0-2.066,0q-.794,0-1.589,0c-.378,0-.755,0-1.133,0l-.694-.006c-.2,0-.4,0-.613,0a1.278,1.278,0,0,1-1.069-.639,14.48,14.48,0,0,1-.079-1.619c0-.165,0-.329-.006-.5,0-.547,0-1.1,0-1.642q0-.567,0-1.139-.006-1.192,0-2.387,0-1.529-.013-3.063-.006-1.175,0-2.351l-.006-1.129q-.006-.789,0-1.578c0-.155,0-.312-.008-.473A5.417,5.417,0,0,1-11.345.617,2.59,2.59,0,0,1-9.3-.024Z" transform="translate(242.089 201.146)" fill="#f70303"/>
    <path id="Path_28294" data-name="Path 28294" d="M-23.7-.024l.477-.006.513,0,.528,0c.367,0,.736,0,1.1,0q.846,0,1.691,0c.359,0,.717,0,1.074,0l.513,0,.475.006.42,0a1.286,1.286,0,0,1,.933.639,4.721,4.721,0,0,1,.257.844c.064.255.064.255.129.516.044.185.089.371.132.562.072.289.072.289.144.583q.227.928.45,1.858.292,1.209.588,2.419c.049.2.1.393.146.6.39,1.587.817,3.161,1.264,4.733,1.018,3.607,1.018,3.607.863,5.1-.463.463-.728.426-1.364.435h-.4l-.416,0c-.289,0-.581,0-.87,0q-.667,0-1.334.009h-.844l-.4.006a6.515,6.515,0,0,1-.986-.074,2.819,2.819,0,0,1-.567-1.513l-2.837-.189v1.324c-.471.471-.749.424-1.392.431l-.416,0c-.142,0-.284,0-.428,0-.3,0-.6,0-.9,0-.458,0-.916,0-1.373,0-.291,0-.581,0-.872,0l-.416,0c-.97-.009-.97-.009-1.392-.431-.121-1.714.569-3.554.993-5.2.079-.31.157-.619.236-.929.4-1.587.812-3.172,1.264-4.746.242-.846.463-1.693.675-2.546.059-.235.117-.467.178-.707.115-.463.231-.927.342-1.392l.161-.639c.047-.189.093-.378.142-.573A1.379,1.379,0,0,1-23.7-.024Z" transform="translate(226.283 201.146)" fill="#f80303"/>
    <path id="Path_28295" data-name="Path 28295" d="M-23.636-.024l.477-.006.513,0,.528,0c.367,0,.736,0,1.1,0q.846,0,1.691,0c.359,0,.717,0,1.074,0l.513,0,.475.006.42,0a1.286,1.286,0,0,1,.933.639,4.721,4.721,0,0,1,.257.844c.064.255.064.255.129.516.044.185.089.371.132.562.072.289.072.289.144.583q.227.928.45,1.858.292,1.209.588,2.419c.049.2.1.393.146.6.39,1.587.817,3.161,1.264,4.733,1.035,3.672,1.035,3.672.863,5.1a5.213,5.213,0,0,1-3.083.437q-.621,0-1.241.009h-.789l-.724,0a1.487,1.487,0,0,1-.948-.3c-.214-.339-.214-.339-.4-1.284l-2.837-.189v1.135a1.081,1.081,0,0,1-.567.567,6.724,6.724,0,0,1-1.264.076c-.123,0-.246,0-.373,0-.259,0-.518,0-.779,0-.4,0-.791,0-1.186,0l-.759,0c-.229,0-.46,0-.694,0a2.956,2.956,0,0,1-1.566-.641,46.5,46.5,0,0,1,1.1-5.427c.07-.27.138-.541.206-.811.375-1.475.759-2.947,1.178-4.411.246-.859.469-1.721.687-2.588.057-.233.115-.465.176-.706q.176-.692.342-1.39l.161-.639c.047-.189.093-.378.142-.573A1.379,1.379,0,0,1-23.636-.024Z" transform="translate(192.363 201.146)" fill="#e70202"/>
    <path id="Path_28296" data-name="Path 28296" d="M0,0H6.431C7.495,2.128,7.495,2.128,7.843,2.945l.223.524c.074.174.146.348.221.526l.233.549c.187.441.375.88.56,1.32a4.338,4.338,0,0,0,.906-1.519c.1-.227.2-.456.3-.69s.212-.482.316-.723l.318-.723L11.5.883c.131-.3.267-.592.412-.883h6.431V3.216a1.39,1.39,0,0,1-1.135.378c-.443.057-.883.121-1.324.189l-.445.04A4.017,4.017,0,0,0,13.8,4.954c-.148.132-.148.132-.3.269a10.132,10.132,0,0,0-1.583,1.965l-.462.272a2.38,2.38,0,0,0-.946.993c-.416.609-.416.609-1,.757a7.807,7.807,0,0,1-2.317-.887L7,7.945a4.569,4.569,0,0,0-.957-.117l-.528-.044-.407-.028v.378l-.46.233c-.539.3-.539.3-.641.895-.019.214-.038.426-.057.647a4.092,4.092,0,0,1-1.112,2.635c-.567.32-.567.32-2.648.32Z" transform="translate(143.73 202.141)" fill="#fb0404"/>
    <path id="Path_28297" data-name="Path 28297" d="M0-.365Q2.179-.39,4.36-.4,5.373-.41,6.386-.422c.653-.009,1.305-.013,1.958-.015.369,0,.736-.008,1.1-.013a5.432,5.432,0,0,1,3.414.842,2.582,2.582,0,0,1,.8,1.68c-.015.132-.03.265-.047.4a3.134,3.134,0,0,1-2.27.378q-.417-.133-.829-.284a8.554,8.554,0,0,0-5.6.083,1.881,1.881,0,0,0-.953,1.021,6.744,6.744,0,0,0-.182,1.26H5.107V7.2q.638-.031,1.277-.072L7.1,7.09a2.6,2.6,0,0,0,1.409-.456A2.822,2.822,0,0,0,8.7,5.688h1.324A4.51,4.51,0,0,1,10.4,9.282a2.26,2.26,0,0,1-.757.757,2.909,2.909,0,0,1-.969-.047,23.967,23.967,0,0,0-3.146-.153l-.465,0c-.365,0-.73.006-1.1.009-.055.113-.112.225-.168.342a3.942,3.942,0,0,1-1.912,2.117,13.715,13.715,0,0,1-1.513.378c-.35-.35-.221-.923-.229-1.392,0-.125,0-.25-.006-.38C.138,10.5.134,10.082.129,9.666c0-.289-.008-.577-.011-.864L.089,6.522Q.075,5.359.059,4.2.027,1.916,0-.365Z" transform="translate(245.877 202.506)" fill="#fc0808"/>
    <path id="Path_28298" data-name="Path 28298" d="M-11.305-.016l.45,0c.312,0,.624,0,.938,0q.718,0,1.436,0c.3,0,.607,0,.912,0l.433,0c.982.013.982.013,1.436.322a5.544,5.544,0,0,1,.535,1.05c.083.21.083.21.168.422s.083.218.168.437A13.659,13.659,0,0,0-3.6,4.788c.072-.185.142-.371.216-.562C-2.123.981-2.123.981-1.518.249A6.526,6.526,0,0,1,.741.022c.146,0,.289,0,.439,0,.3,0,.609,0,.914,0,.467,0,.934-.008,1.4-.013.3,0,.594,0,.889,0,.14,0,.28,0,.424-.008C5.774,0,5.774,0,6.181.3A2.96,2.96,0,0,1,6.5,2.244c0,.166,0,.331,0,.5,0,.547,0,1.093,0,1.64,0,.38,0,.76,0,1.139q0,1.195,0,2.387,0,1.532,0,3.063,0,1.178,0,2.351c0,.376,0,.753,0,1.131,0,.526,0,1.05,0,1.576,0,.157,0,.314,0,.475-.011,1.061-.011,1.061-.329,1.468a2.354,2.354,0,0,1-1.634.325l-.388,0c-.271,0-.541,0-.81,0-.414,0-.827,0-1.241.011-.263,0-.526,0-.789,0-.238,0-.479,0-.724,0C0,18.219,0,18.219-.364,17.892a2.872,2.872,0,0,1-.3-1.332c-.006-.168-.013-.337-.021-.509S-.7,15.7-.7,15.523s-.011-.354-.019-.537c-.015-.435-.028-.872-.04-1.307l-.165.339c-.248.505-.5,1.012-.745,1.517-.085.176-.17.352-.259.533s-.166.337-.253.511c-.076.155-.151.31-.231.471a3.064,3.064,0,0,1-.806.98,1.919,1.919,0,0,1-1.324-.189,11.023,11.023,0,0,1-1.124-2.092c-.093-.2-.185-.4-.282-.6q-.343-.732-.675-1.47c0,.117-.006.235-.008.356q-.023.8-.051,1.595c-.006.278-.006.278-.013.56-.006.178-.013.356-.021.537,0,.165-.009.327-.015.5a1.46,1.46,0,0,1-.3.766,2.5,2.5,0,0,1-1.576.306l-.732,0-.38,0c-.382,0-.764,0-1.146,0-.242,0-.482,0-.732,0-.221,0-.443,0-.672,0a2.376,2.376,0,0,1-1.547-.641,8.49,8.49,0,0,1-.121-1.619c0-.165,0-.329-.006-.5,0-.547,0-1.093,0-1.642,0-.378,0-.759,0-1.139q0-1.192.006-2.387c.006-1.02,0-2.041,0-3.063,0-.783,0-1.566,0-2.351,0-.376,0-.753,0-1.129,0-.526,0-1.052.008-1.578,0-.155-.006-.312-.008-.473A5.485,5.485,0,0,1-13.813.627,3.314,3.314,0,0,1-11.305-.016Zm-1.562,1.021V17.273h5.3l.189-7,.732,1.483c.235.471.467.944.7,1.415l.488.987c.233.473.467.944.7,1.417.072.148.146.3.219.448a2.226,2.226,0,0,0,.94,1.248q.718-1.393,1.434-2.788l.488-.948c.235-.454.467-.908.7-1.362.072-.142.146-.282.219-.428l.206-.4c.091-.174.091-.174.182-.352q.278-.548.552-1.1l.189,7.377H5.481V1.005H-.951c-.367.793-.734,1.583-1.11,2.4-.174.371-.174.371-.35.751-.136.3-.136.3-.276.6-.093.2-.185.4-.282.609-.223.5-.431,1-.63,1.506a7.07,7.07,0,0,1-1.071-1.9c-.091-.219-.183-.439-.276-.664s-.187-.454-.284-.689q-.281-.678-.564-1.356c-.083-.2-.165-.4-.25-.605-.163-.443-.163-.443-.393-.651Z" transform="translate(156.597 201.136)" fill="#090400"/>
    <path id="Path_28299" data-name="Path 28299" d="M-23.676-.073l.637,0q.667,0,1.33,0c.679,0,1.358-.006,2.037-.009h1.292l.617-.006.569,0h.5A1.283,1.283,0,0,1-15.7.551a5.96,5.96,0,0,1,.269.974c.042.189.083.38.127.577s.081.4.125.6c.066.3.066.3.132.6.361,1.685.361,1.685.1,2.548-.378.378-.378.378-1.046.422-.288,0-.573,0-.859-.006-.151,0-.3,0-.458,0-.48,0-.963-.008-1.445-.011l-.978-.006q-1.2-.006-2.4-.019v6.053h1.7v-.567c-.117-.019-.235-.04-.356-.059-.4-.131-.4-.131-.779-.7a12.782,12.782,0,0,1-.072-1.786c0-.163-.009-.325-.013-.492,0-.236,0-.236,0-.477,0-.142,0-.286-.006-.433A1.667,1.667,0,0,1-20.807,6.6a8.809,8.809,0,0,1,1.46-.095h.426c.3,0,.592,0,.887.006.454.006.906,0,1.358,0l.864.006c.134,0,.271,0,.41,0,.931.017.931.017,1.345.308a1.879,1.879,0,0,1,.312,1.362v.632c0,.223-.006.448-.009.679s0,.462,0,.7c0,.736-.011,1.474-.017,2.209,0,.5-.006,1-.009,1.5q-.009,1.833-.026,3.67a7.631,7.631,0,0,1-1.979.789l-.46.1-.471.095c-.153.034-.306.066-.465.1a11.682,11.682,0,0,1-2.868.24l-.378-.757-.443.006c-.668.008-1.337.013-2.005.019l-.694.009c-3.418.017-3.418.017-4.8-1.169a6.07,6.07,0,0,1-.787-3.45c0-.231,0-.46-.006-.7s0-.492,0-.745v-.382q-.006-1-.006-2.007,0-1.033-.011-2.062c0-.532,0-1.065-.006-1.6,0-.375,0-.751-.008-1.126a6.352,6.352,0,0,1,.887-3.827l.259-.255c.081-.089.165-.176.25-.265A7.669,7.669,0,0,1-23.676-.073Zm-3.94,1.759a4.067,4.067,0,0,0-.641,2.393c0,.246,0,.492-.006.745s0,.533,0,.8,0,.552,0,.827c0,.577,0,1.154,0,1.729,0,.738,0,1.474,0,2.209,0,.569,0,1.137,0,1.706,0,.272,0,.543,0,.815,0,.38,0,.76,0,1.141,0,.216,0,.431,0,.653a3.123,3.123,0,0,0,1.139,2.183,4.282,4.282,0,0,0,2.277.386c.153,0,.306,0,.465,0,.488,0,.976-.013,1.462-.023.333,0,.664-.008,1-.009q1.217-.014,2.433-.038v.946a10.845,10.845,0,0,0,4.918-1.135c.017-.3.023-.592.021-.889v-.575c0-.2,0-.41,0-.622s0-.42,0-.636c0-.673,0-1.347-.006-2.018,0-.456,0-.91,0-1.364q0-1.677-.009-3.354h-6.053v3.4h.946v2.081h-3.216l.189-7.566,7-.189a28.556,28.556,0,0,0-.484-3.133c-.051-.231-.1-.462-.155-.7-.04-.172-.078-.344-.117-.52Q-18.522.9-20.586.888c-.469,0-.936-.009-1.405-.015-.673-.009-1.347-.013-2.02-.017l-.632-.011A4.066,4.066,0,0,0-27.617,1.686Z" transform="translate(243.606 201.212)" fill="#070600"/>
    <path id="Path_28300" data-name="Path 28300" d="M-9.3-.024l.656-.006.7,0,.726,0c.507,0,1.014,0,1.521,0,.649,0,1.3,0,1.945,0,.62,0,1.241,0,1.861,0l.7,0,.656.006c.189,0,.378,0,.575,0a2.863,2.863,0,0,1,1.47.639,2.625,2.625,0,0,1,.257.883c.032.172.062.346.095.522s.057.359.085.545.064.356.1.537c.407,2.353.407,2.353-.013,2.962A2.483,2.483,0,0,1,.95,6.481l.378.378a7.227,7.227,0,0,1,.044,1.065c0,.21,0,.422,0,.639s0,.443-.006.672c0,.333,0,.333,0,.673-.008,1.653-.008,1.653-.223,1.869l1.135.567a11.362,11.362,0,0,1-.437,3.464c-.042.168-.081.339-.123.513s-.081.323-.125.49c-.036.146-.072.291-.11.443a1.849,1.849,0,0,1-.719.955,5.4,5.4,0,0,1-1.116.074l-.694.006c-.248,0-.494,0-.749,0s-.515,0-.77,0q-.806,0-1.614,0c-.689,0-1.377,0-2.066,0q-.794,0-1.589,0c-.378,0-.755,0-1.133,0l-.694-.006c-.2,0-.4,0-.613,0a1.278,1.278,0,0,1-1.069-.639,14.48,14.48,0,0,1-.079-1.619c0-.165,0-.329-.006-.5,0-.547,0-1.1,0-1.642q0-.567,0-1.139-.006-1.192,0-2.387,0-1.529-.013-3.063-.006-1.175,0-2.351l-.006-1.129q-.006-.789,0-1.578c0-.155,0-.312-.008-.473A5.417,5.417,0,0,1-11.345.617,2.59,2.59,0,0,1-9.3-.024ZM-10.4,1V17.263H.572a18.379,18.379,0,0,0,.946-4.351h-6.81v-1.7H.572V7.238H-5.292V5.346h6.81A30.313,30.313,0,0,0,.572,1Z" transform="translate(242.089 201.146)" fill="#060500"/>
    <path id="Path_28301" data-name="Path 28301" d="M-9.819-.008l.7,0L-8.384,0-7.65-.01l.7,0,.641,0A1.865,1.865,0,0,1-4.99.635a3.988,3.988,0,0,1,.392.7c.064.131.129.263.193.4l.195.416.392.815.172.365a4.678,4.678,0,0,0,.549.9c0-.106.006-.212.008-.322q.023-.721.051-1.44c0-.168.008-.335.013-.505s.013-.322.021-.486c0-.148.009-.3.013-.448A1.2,1.2,0,0,1-2.342.068,6.861,6.861,0,0,1-1.065-.008l.375,0c.261,0,.522,0,.785,0q.6,0,1.2,0c.253,0,.507,0,.762,0l.7,0A1.278,1.278,0,0,1,3.9.635a14.456,14.456,0,0,1,.07,1.617c0,.166,0,.331,0,.5q0,.82,0,1.64V5.532q0,1.195-.006,2.387-.006,1.532,0,3.063,0,1.178,0,2.351v1.131q0,.786-.006,1.576c0,.157,0,.314,0,.475a2.548,2.548,0,0,1-.431,1.712,6,6,0,0,1-1.2.076c-.242,0-.482,0-.732,0l-.384,0c-.384,0-.766,0-1.15,0-.244,0-.486,0-.736,0-.223,0-.445,0-.673,0a2.675,2.675,0,0,1-1.551-.641,4.1,4.1,0,0,1-.507-.8q-.122-.227-.25-.46c-.081-.159-.165-.316-.25-.479s-.17-.32-.259-.484q-.318-.59-.626-1.182c0,.238-.006.479-.009.724-.008.314-.017.628-.026.942,0,.157,0,.316,0,.479s-.011.3-.017.46c0,.21,0,.21-.008.424-.125.376-.125.376-.533.706A3.692,3.692,0,0,1-7.12,18.3H-7.8l-.706-.009-.706,0c-1.977-.011-1.977-.011-2.592-.439a6.638,6.638,0,0,1-.227-2.151c0-.163,0-.323,0-.49-.006-.535-.008-1.069-.011-1.6,0-.182,0-.365,0-.552q-.009-1.447-.011-2.894-.006-1.5-.023-2.994-.009-1.149-.009-2.3c0-.369,0-.736-.008-1.1-.006-.515-.006-1.027-.006-1.542,0-.153-.006-.306-.009-.463a5.128,5.128,0,0,1,.121-1.12A2.848,2.848,0,0,1-9.819-.008Zm-1.224,1.021V17.281h5.107l.189-6.431c.342.605.687,1.209,1.04,1.833.214.363.428.728.643,1.091a10.845,10.845,0,0,1,.895,1.859c.272.789.272.789,1.2,1.648H3.144V1.013H-1.963l-.189,7L-3.666,4.986C-4,4.363-4.335,3.745-4.684,3.13c-.119-.218-.119-.218-.242-.437-.322-.575-.645-1.131-1.01-1.68Z" transform="translate(192.795 201.128)" fill="#080400"/>
    <path id="Path_28302" data-name="Path 28302" d="M-60,0h.189V16.268H-64.92a4.488,4.488,0,0,1-1.339-2.03,14.985,14.985,0,0,0-1.054-1.975c-.473-.8-.931-1.615-1.39-2.427l-.189,6.431H-74V3.027h.189v9.647a2.758,2.758,0,0,0,1.619.047l.439-.091a1.791,1.791,0,0,0,.969-.713,3.023,3.023,0,0,0,.212-.815c.03-.151.061-.3.093-.456.061-.35.1-.7.146-1.057a1.667,1.667,0,0,1,.874-1.265,3.038,3.038,0,0,1,2.234.011c.465.233.916.477,1.36.745v.378h.378A5.062,5.062,0,0,1-64.305,11.2c.435.7.832.787,1.6,1,.34.076.687.136,1.033.191A4.527,4.527,0,0,1-60,13.052Z" transform="translate(255.751 202.141)" fill="#db0000"/>
    <path id="Path_28303" data-name="Path 28303" d="M-9.432-.024l.673-.006.723,0,.749,0c.522,0,1.044,0,1.566,0,.666,0,1.332,0,2,0,.639,0,1.279,0,1.918,0l.721,0c1.691.013,3.066.17,4.336,1.4,1.01,1.407.811,3.131.823,4.79,0,.312.009.626.015.94.074,3.163.074,3.163-1.027,4.485a1.621,1.621,0,0,0,.123,1.487c.07.18.138.359.21.545q.221.565.445,1.129c.7,1.839.7,1.839.547,2.892a1.384,1.384,0,0,1-.567.567,10.768,10.768,0,0,1-1.394.081l-.412,0c-.288,0-.575,0-.861,0q-.658,0-1.317.011c-.28,0-.56,0-.838,0-.132,0-.263.006-.4.008a2.089,2.089,0,0,1-1.472-.439,3.273,3.273,0,0,1-.588-1.154c-.042-.134-.081-.269-.123-.407s-.078-.276-.117-.418-.083-.282-.127-.428c-.1-.346-.2-.692-.3-1.038-.008.21-.013.42-.021.636-.013.276-.025.552-.038.83-.006.206-.006.206-.013.418a2.343,2.343,0,0,1-.685,1.9,5.075,5.075,0,0,1-1.264.093c-.123,0-.246,0-.373,0-.259,0-.518,0-.779-.008q-.593-.006-1.186,0c-2.27-.011-2.27-.011-3.019-.654a8.649,8.649,0,0,1-.123-1.619c0-.165,0-.329,0-.5,0-.547,0-1.1,0-1.642,0-.378,0-.759,0-1.139q0-1.192.006-2.387c.006-1.02,0-2.041,0-3.063,0-.783,0-1.566,0-2.351,0-.376,0-.753,0-1.129,0-.526,0-1.052.006-1.578,0-.155,0-.312-.006-.473A5.486,5.486,0,0,1-11.5.617,2.621,2.621,0,0,1-9.432-.024ZM-10.558,1V17.263h5.3V12.345l1.324.189q.267.7.532,1.407c.051.129.1.259.151.393.365.97.692,1.943,1.02,2.928H3.629c-.352-1.175-.7-2.321-1.135-3.464-.047-.129-.093-.257-.142-.388A10.006,10.006,0,0,0,1.359,11.4l.426-.131a2.9,2.9,0,0,0,1.277-1.194A9.523,9.523,0,0,0,3.3,7.043c0-.4.008-.806.013-1.211a7.344,7.344,0,0,0-.626-3.7A3.68,3.68,0,0,0,.247.95l-.6,0h-.7l-.728.006-.673,0c-.829,0-1.657.008-2.486.011C-7.722.984-7.722.984-10.558,1Z" transform="translate(256.434 201.146)" fill="#080600"/>
    <path id="Path_28304" data-name="Path 28304" d="M-12.973,0h7.566c.567,2.27.567,2.27.378,3.216a4.834,4.834,0,0,1-2.115.051c-.679-.064-1.354-.089-2.035-.1l-.738-.015-.6.062-.378.567c-.373.2-.751.392-1.135.567v.567a2.125,2.125,0,0,1-.189,1.088,5.362,5.362,0,0,0-.189,1.939l.757-.378.189,1.7,1.135.378-.189,1.324h2.648v.189l-2.081.189v.189l2.081.189v.189q-.726.009-1.455.011l-.412.006a9.354,9.354,0,0,1-2.105-.206A9.97,9.97,0,0,0-14.3,12.3c-.165.03-.327.062-.5.095A4.392,4.392,0,0,0-16,12.863a14.361,14.361,0,0,1,.609-3.416c.554-1.948,1.044-3.91,1.53-5.875C-13.567,2.393-13.274,1.214-12.973,0Z" transform="translate(181.105 202.141)" fill="#fb0808"/>
    <path id="Path_28305" data-name="Path 28305" d="M-12.973,0h7.566c.567,2.27.567,2.27.378,3.216a4.834,4.834,0,0,1-2.115.051c-.679-.064-1.354-.089-2.035-.1l-.738-.015-.6.062-.378.567c-.373.2-.751.392-1.135.567v.567a2.125,2.125,0,0,1-.189,1.088,5.362,5.362,0,0,0-.189,1.939l.757-.378.189,1.7,1.135.378-.189,1.324h2.648v.189l-2.081.189v.189l2.081.189v.189a14.743,14.743,0,0,1-3.288-.106A6.64,6.64,0,0,0-14.3,12.3c-.314.068-.63.131-.946.189-.252.062-.505.125-.757.189a15.646,15.646,0,0,1,.611-3.261c.367-1.273.709-2.548,1.031-3.834.036-.148.072-.3.11-.446q.2-.78.388-1.561C-13.567,2.393-13.274,1.214-12.973,0Z" transform="translate(214.965 202.141)" fill="#fb0808"/>
    <path id="Path_28306" data-name="Path 28306" d="M-23.7-.024l.477-.006.513,0,.528,0c.367,0,.736,0,1.1,0q.846,0,1.691,0c.359,0,.717,0,1.074,0l.513,0,.475.006.42,0a1.286,1.286,0,0,1,.933.639,4.721,4.721,0,0,1,.257.844c.064.255.064.255.129.516.044.185.089.371.132.562.072.289.072.289.144.583q.227.928.45,1.858.292,1.209.588,2.419c.049.2.1.393.146.6.39,1.587.817,3.161,1.264,4.733,1.018,3.607,1.018,3.607.863,5.1-.463.463-.728.426-1.364.435h-.4l-.416,0c-.289,0-.581,0-.87,0q-.667,0-1.334.009h-.844l-.4.006a6.515,6.515,0,0,1-.986-.074,2.819,2.819,0,0,1-.567-1.513l-2.837-.189v1.324c-.471.471-.749.424-1.392.431l-.416,0c-.142,0-.284,0-.428,0-.3,0-.6,0-.9,0-.458,0-.916,0-1.373,0-.291,0-.581,0-.872,0l-.416,0c-.97-.009-.97-.009-1.392-.431-.121-1.714.569-3.554.993-5.2.079-.31.157-.619.236-.929.4-1.587.812-3.172,1.264-4.746.242-.846.463-1.693.675-2.546.059-.235.117-.467.178-.707.115-.463.231-.927.342-1.392l.161-.639c.047-.189.093-.378.142-.573A1.379,1.379,0,0,1-23.7-.024Zm-.6,1.02c-.18.724-.359,1.451-.547,2.2-.146.588-.293,1.177-.439,1.765q-.23.925-.46,1.846c-.622,2.506-1.245,5.007-1.954,7.489a10.881,10.881,0,0,0-.573,2.97h5.3a2.843,2.843,0,0,0,.378-1.7h4.162c.095.842.095.842.189,1.7h5.486c-.288-1.634-.288-1.634-.673-3.227-.057-.2-.112-.41-.17-.622s-.121-.441-.185-.668c-.709-2.607-1.358-5.225-2-7.85-.047-.193-.095-.388-.142-.586q-.4-1.657-.8-3.314Z" transform="translate(226.283 201.146)" fill="#090600"/>
    <path id="Path_28307" data-name="Path 28307" d="M-23.636-.024l.477-.006.513,0,.528,0c.367,0,.736,0,1.1,0q.846,0,1.691,0c.359,0,.717,0,1.074,0l.513,0,.475.006.42,0a1.286,1.286,0,0,1,.933.639,4.721,4.721,0,0,1,.257.844c.064.255.064.255.129.516.044.185.089.371.132.562.072.289.072.289.144.583q.227.928.45,1.858.292,1.209.588,2.419c.049.2.1.393.146.6.39,1.587.817,3.161,1.264,4.733,1.035,3.672,1.035,3.672.863,5.1a5.213,5.213,0,0,1-3.083.437q-.621,0-1.241.009h-.789l-.724,0a1.487,1.487,0,0,1-.948-.3c-.214-.339-.214-.339-.4-1.284l-2.837-.189v1.135a1.081,1.081,0,0,1-.567.567,6.724,6.724,0,0,1-1.264.076c-.123,0-.246,0-.373,0-.259,0-.518,0-.779,0-.4,0-.791,0-1.186,0l-.759,0c-.229,0-.46,0-.694,0a2.956,2.956,0,0,1-1.566-.641,46.5,46.5,0,0,1,1.1-5.427c.07-.27.138-.541.206-.811.375-1.475.759-2.947,1.178-4.411.246-.859.469-1.721.687-2.588.057-.233.115-.465.176-.706q.176-.692.342-1.39l.161-.639c.047-.189.093-.378.142-.573A1.379,1.379,0,0,1-23.636-.024Zm-.6,1.02c-.18.724-.359,1.451-.547,2.2-.146.588-.293,1.177-.439,1.765q-.23.925-.46,1.846c-.622,2.506-1.245,5.007-1.954,7.489a10.881,10.881,0,0,0-.573,2.97h5.3a2.843,2.843,0,0,0,.378-1.7h4.162c.095.842.095.842.189,1.7h5.486c-.288-1.634-.288-1.634-.673-3.227-.057-.2-.112-.41-.17-.622s-.121-.441-.185-.668c-.709-2.607-1.358-5.225-2-7.85-.047-.193-.095-.388-.142-.586q-.4-1.657-.8-3.314Z" transform="translate(192.363 201.146)" fill="#080600"/>
    <path id="Path_28308" data-name="Path 28308" d="M-.116,0H6.316C7.379,2.128,7.379,2.128,7.727,2.945l.223.524c.074.174.146.348.221.526l.233.549c.187.441.375.88.56,1.32A4.338,4.338,0,0,0,9.87,4.345c.1-.227.2-.456.3-.69s.212-.482.316-.723l.318-.723L11.389.883c.131-.3.267-.592.412-.883h6.431V1.892a5.819,5.819,0,0,1-2.72.863c-.647.008-.647.008-.874.272-.475.093-.951.17-1.428.246a1.566,1.566,0,0,0-1.031.7c-.3.535-.564,1.08-.832,1.627-.3.454-.3.454-.717.613-.113.009-.227.019-.342.03L10.1,7c-2.033.163-2.033.163-2.766-.437a2.1,2.1,0,0,1-.639-1.076L6.316,5.3A5.875,5.875,0,0,1,6.1,4.434c-.049-.235-.049-.235-.1-.475-.034-.18-.034-.18-.07-.365a11.145,11.145,0,0,0-2.826-.45A5.2,5.2,0,0,1,.073,2.27,5.361,5.361,0,0,1-.116,0Z" transform="translate(143.846 202.141)" fill="#fc2020"/>
    <path id="Path_28309" data-name="Path 28309" d="M0,0H5.107L6.254,2.009c.117.2.233.407.354.617C7.423,4.063,8.147,5.512,8.891,7L9.08,0H14V2.648A23.3,23.3,0,0,1,11.87,3.772a2.188,2.188,0,0,0-1.277,1.335c-.015.214-.032.429-.047.651A2.39,2.39,0,0,1,9.418,7.364c-.339.2-.339.2-.906.2v.378h.378L8.7,8.512A3.138,3.138,0,0,1,6.81,7.756a3.2,3.2,0,0,0-.757-.189L6.242,7c-.11-.129-.218-.257-.331-.39a4.788,4.788,0,0,1-.84-2.03c-.131-.484-.131-.484-.721-.8-.586-.07-1.167-.1-1.757-.125A1.031,1.031,0,0,1,1.7,3.216q-.658-.3-1.324-.567L0,3.027Z" transform="translate(181.751 202.141)" fill="#fd1c1c"/>
    <path id="Path_28310" data-name="Path 28310" d="M-20.834-.285V.093h.378V.472L-19.7.85V2.174h.378l-.189,1.135.567.189c-.356.626-.713,1.252-1.088,1.869-.252.35-.252.35-.236.59h-.946l.189,1.324h-2.648l.189-1.324-.45.023c-.5-.023-.5-.023-.874-.4A13.071,13.071,0,0,1-25,4.066l-.567.189a3.5,3.5,0,0,1,.378-2.837,3.153,3.153,0,0,0,0-.946C-23.879-.572-22.421-.353-20.834-.285Z" transform="translate(194.262 205.831)" fill="#f90000"/>
    <path id="Path_28311" data-name="Path 28311" d="M-31.12,0l.5,0a13.952,13.952,0,0,1,5.054.838A2.451,2.451,0,0,0-24,.811l.378.189c.064-.25.125-.5.189-.757q.145.55.284,1.1c.053.2.106.409.161.619a3.438,3.438,0,0,1,.123,1.12h-5.486c-.093-.842-.093-.842-.189-1.7h-4.162c-.062.5-.123,1-.189,1.513-.189.189-.189.189-.7.212l-.67,0-.723,0c-.253,0-.507,0-.76,0l-.762,0q-.936,0-1.875-.009c.189-1.661.189-1.661.567-2.27.062.187.127.375.189.567A24.884,24.884,0,0,0-33.515.23,8.215,8.215,0,0,1-31.12,0Z" transform="translate(236.398 215.328)" fill="#c90000"/>
    <path id="Path_28312" data-name="Path 28312" d="M0,0A17.748,17.748,0,0,1,4.493.579,16.613,16.613,0,0,0,9.836.946V.757l1.7-.378-.567,2.648H0Z" transform="translate(231.69 215.383)" fill="#cf0000"/>
    <path id="Path_28313" data-name="Path 28313" d="M-57.637,0h.189V9.458a26.625,26.625,0,0,1-3.1.887c-.335.07-.335.07-.677.144a4.282,4.282,0,0,1-1.143.1V9.647l-.624.011c-.768.015-1.536.023-2.3.03-.331,0-.664.009-.995.015-.479.009-.955.013-1.434.017l-.446.011a3.1,3.1,0,0,1-2.33-.842,2.943,2.943,0,0,1-.567-2.081l.757.378v.378l.318.015c.477.021.955.044,1.432.068l.5.023.484.023.445.021a3.152,3.152,0,0,1,.776.136,8.029,8.029,0,0,0,2.011.091l.963-.009q.755-.009,1.511-.021.729-.011,1.462-.017c.149,0,.3-.008.454-.009l.429,0,.373-.006c.382.066.382.066,1.328.634Z" transform="translate(286.489 208.762)" fill="#bd0000"/>
    <path id="Path_28314" data-name="Path 28314" d="M-.056-.1Q2.083-.1,4.225-.107c.664,0,1.326,0,1.988-.006l2.283,0,.724,0h.666l.59,0c.439.023.439.023.628.212.013.288.015.575.011.863,0,.157,0,.314,0,.475,0,.119-.006.24-.008.365l-.482.008q-.894.02-1.789.042c-.255.008-.513.011-.77.017a7.468,7.468,0,0,0-3.768.69A5.037,5.037,0,0,1,.472,2.186a.939.939,0,0,1-.528-.581c-.013-.291-.015-.583-.011-.874,0-.155,0-.31,0-.469C-.06.143-.058.026-.056-.1Z" transform="translate(231.746 202.239)" fill="#fd1d1d"/>
    <path id="Path_28315" data-name="Path 28315" d="M-1.707,0H5.859A6.362,6.362,0,0,1,6.1,1.513c.006.125.009.25.015.378a1.659,1.659,0,0,1-.63,1.135,10.756,10.756,0,0,1-1.615.087H3.389c-.335,0-.668,0-1-.009Q1.619,3.1.854,3.1l-.972-.006c-.153,0-.306,0-.465,0-1.08-.019-1.08-.019-1.5-.441A6.548,6.548,0,0,1-1.707,0Z" transform="translate(203.698 202.141)" fill="#fd2626"/>
    <path id="Path_28316" data-name="Path 28316" d="M-1.707,0H5.859A6.362,6.362,0,0,1,6.1,1.513c.006.125.009.25.015.378a1.659,1.659,0,0,1-.63,1.135,10.756,10.756,0,0,1-1.615.087H3.389c-.335,0-.668,0-1-.009Q1.619,3.1.854,3.1l-.972-.006c-.153,0-.306,0-.465,0-1.08-.019-1.08-.019-1.5-.441A6.548,6.548,0,0,1-1.707,0Z" transform="translate(169.839 202.141)" fill="#fd2626"/>
    <path id="Path_28317" data-name="Path 28317" d="M-.116-.365Q2.027-.391,4.171-.4q1-.006,1.992-.017c.764-.009,1.528-.013,2.293-.017L9.172-.45a5.544,5.544,0,0,1,3.386.842,3.949,3.949,0,0,1-.189.757,4.555,4.555,0,0,1-2.637.306l-.855-.061-.433-.03a12.119,12.119,0,0,0-4.067.163A5.353,5.353,0,0,1,.925,1.455Q.4,1.117-.116.77A5.982,5.982,0,0,1-.116-.365Z" transform="translate(246.181 202.506)" fill="#fe2f2f"/>
    <path id="Path_28318" data-name="Path 28318" d="M-34.193,0H-34l.284,1.371c.026.129.055.257.081.392a8.745,8.745,0,0,1,.2,1.831l-7,.189-.189,7.188h-.189V6.242l-.757-.378a2.381,2.381,0,0,1-.6-1.788,2.085,2.085,0,0,1,.978-1.617h.378V2.081a16.645,16.645,0,0,1,4.468-.4l.687,0q.826.009,1.655.019V1.135h-1.7V.946h1.135V.567h.378Z" transform="translate(261.343 202.898)" fill="#da0000"/>
    <path id="Path_28319" data-name="Path 28319" d="M-9.195,0h.6l.637.009.658,0c.692,0,1.383.009,2.075.017.469,0,.94.006,1.409.008q1.725.011,3.45.028V1.388a3,3,0,0,1-1.447.236c-.218.006-.435.011-.66.019l-1.366.032a23.868,23.868,0,0,0-5.228.658,3.258,3.258,0,0,1-2.27-.378A5.636,5.636,0,0,1-11.151.631,2.728,2.728,0,0,1-9.195,0Z" transform="translate(227.519 202.078)" fill="#fd2c2c"/>
    <path id="Path_28320" data-name="Path 28320" d="M-8.447-.163l.32.131V.346l.946.378c.036.375.074.751.11,1.126.064.445.064.445.458.955-.091.074-.18.148-.272.225a2.068,2.068,0,0,0-.484,1.288l.757.189h-.567L-6.992,6.4H-9.641l.189-2.081H-9.83V3.94H-10.4A7.808,7.808,0,0,1-9.83.346C-9.054-.245-9.054-.245-8.447-.163Z" transform="translate(214.092 206.714)" fill="#e10000"/>
    <path id="Path_28321" data-name="Path 28321" d="M-8.447-.163l.32.131V.346l.946.378c.036.375.074.751.11,1.126.064.445.064.445.458.955-.091.074-.18.148-.272.225a2.068,2.068,0,0,0-.484,1.288l.757.189h-.567L-6.992,6.4H-9.641l.189-2.081H-9.83V3.94H-10.4A7.808,7.808,0,0,1-9.83.346C-9.054-.245-9.054-.245-8.447-.163Z" transform="translate(180.232 206.714)" fill="#e10000"/>
    <path id="Path_28322" data-name="Path 28322" d="M0-.147,1.4-.169l.437-.011c.335,0,.67.015,1,.034.378.378.378.378.416.995-.006.24-.009.482-.015.73s-.006.486-.009.736c0,.187-.009.373-.013.566a3.214,3.214,0,0,1-2.033.4L0,3.258Z" transform="translate(251.173 206.449)" fill="#080500"/>
    <path id="Path_28323" data-name="Path 28323" d="M0,0H8.891L8.7.567a2.627,2.627,0,0,1-.734.2L7.5.857c-.165.028-.329.059-.5.089-.151.036-.3.07-.456.108a16.293,16.293,0,0,1-3.375.329l-.433.011A4.637,4.637,0,0,1,.189.757Z" transform="translate(232.825 202.141)" fill="#ff3535"/>
    <path id="Path_28324" data-name="Path 28324" d="M-.655,0H5.02C4.8.87,4.8.87,4.186,1.267a5.235,5.235,0,0,1-2.854.588l-.526.015c-.424.011-.847.017-1.271.021C-.955,1.143-.823,1.01-.655,0Z" transform="translate(156.302 202.141)" fill="#fe3232"/>
    <path id="Path_28325" data-name="Path 28325" d="M-4.865,0l.378.189A9.98,9.98,0,0,1-4.2,1.353c.049.236.1.473.151.717l.153.757.159.753a9.533,9.533,0,0,1,.386,2.285H-6C-5.694,3.893-5.285,1.948-4.865,0Z" transform="translate(210.45 207.249)" fill="#0c0800"/>
    <path id="Path_28326" data-name="Path 28326" d="M-4.865,0l.378.189A9.98,9.98,0,0,1-4.2,1.353c.049.236.1.473.151.717l.153.757.159.753a9.533,9.533,0,0,1,.386,2.285H-6C-5.694,3.893-5.285,1.948-4.865,0Z" transform="translate(176.591 207.249)" fill="#0c0800"/>
    <path id="Path_28327" data-name="Path 28327" d="M-25.947,0h.189V3.972h-5.864V3.783l4.918-.189.378-.946c-.742-.006-1.481-.009-2.223-.011l-.637-.006c-.2,0-.4,0-.613,0l-.564,0a2.043,2.043,0,0,0-.925.14l-.335.07L-32,2.459a6.12,6.12,0,0,1,1.844-.214l.632,0,.656,0,.658,0,.632,0H-27a2.666,2.666,0,0,1,1.054.214Z" transform="translate(268.419 208.384)" fill="#ca0000"/>
    <path id="Path_28328" data-name="Path 28328" d="M-.811,0,.324.567V.946l1.324.378V1.7c.157.053.314.1.475.159l3.5,1.165V3.4C3.186,3.189,1.1,1.909-1,.757Z" transform="translate(180.86 113.803)" fill="#ffc8c8"/>
    <path id="Path_28329" data-name="Path 28329" d="M0,0,6.431.189,6.242.946a2.409,2.409,0,0,1-1.585.306c-.151-.057-.151-.057-.306-.117L5.486.757,5.064.728C4.432.685,3.8.637,3.168.59,2.949.577,2.73.562,2.5.547L1.865.5,1.277.456A2.951,2.951,0,0,1,0,0Z" transform="translate(195.371 116.83)" fill="#ffaeae"/>
    <path id="Path_28330" data-name="Path 28330" d="M0,0H1.513V1.513H0Z" transform="translate(252.119 207.249)" fill="#f8f800"/>
    <path id="Path_28331" data-name="Path 28331" d="M-16.217,0l.378.189q-.8.809-1.6,1.615c-.18.183-.361.367-.541.552q-.389.394-.781.787c-.157.159-.312.318-.475.48-.39.348-.39.348-.768.348a5.494,5.494,0,0,1,1.466-1.88c.1-.1.195-.193.293-.293C-17.594,1.16-16.922.573-16.217,0Z" transform="translate(198.157 134.989)" fill="#ffcfcf"/>
    <path id="Path_28332" data-name="Path 28332" d="M-6.487,0l.378.189L-6.3.567h3.972V.757q-.939.1-1.88.189L-4.735,1A28.1,28.1,0,0,1-8,1.135V.757c.244-.132.488-.261.734-.39.134-.074.271-.146.41-.219Z" transform="translate(148.703 118.532)" fill="#ff4a4a"/>
    <path id="Path_28333" data-name="Path 28333" d="M-4.119,0h.189a12.942,12.942,0,0,1-.378,3.594l-.189.189c-.076.477-.142.951-.2,1.43-.017.134-.034.269-.053.409l-.125,1h-.189a16.317,16.317,0,0,1,.473-4.373c.045-.218.091-.435.136-.658Q-4.288.794-4.119,0Z" transform="translate(227.863 172.443)" fill="#ff8484"/>
    <path id="Path_28334" data-name="Path 28334" d="M-5.676,0h.567l.189.946L-5.108.567a2.485,2.485,0,0,0-.851,1.4,6.55,6.55,0,0,1-.851,1.82L-7,3.4a4.787,4.787,0,0,1,.342-.685A8.866,8.866,0,0,0-5.865.378Z" transform="translate(201.803 134.043)" fill="#ffe351"/>
    <path id="Path_28335" data-name="Path 28335" d="M-2.433,0h.189V3.972h-.189l-.189-2.648L-3,1.513A8.059,8.059,0,0,1-2.433,0Z" transform="translate(158.269 214.437)" fill="#e1e100"/>
    <path id="Path_28336" data-name="Path 28336" d="M-5.862,0l.46,0,.479.006c.159,0,.32,0,.484,0,.393,0,.789.006,1.182.009V.207Q-3.93.3-4.606.4l-.38.055A13.916,13.916,0,0,1-7.23.585V.207A3.616,3.616,0,0,1-5.862,0Z" transform="translate(146.987 119.46)" fill="#ffaeae"/>
    <path id="Path_28337" data-name="Path 28337" d="M-8.919-1.328v.378A4.8,4.8,0,0,1-11-1.517,3.054,3.054,0,0,1-8.919-1.328Z" transform="translate(195.399 118.157)" fill="#ff9494"/>
    <path id="Path_28338" data-name="Path 28338" d="M-1.622,0c.036.182.036.182.072.367.057.193.057.193.117.39l.378.189a10.422,10.422,0,0,1-.567.946H-2C-1.873,1.262-1.748.63-1.622,0Z" transform="translate(192.263 101.318)" fill="#ffc5c5"/>
    <path id="Path_28339" data-name="Path 28339" d="M0,0H.567L.757.567H.378V1.892H.189Z" transform="translate(177.022 144.447)" fill="#ffe55f"/>
    <path id="Path_28340" data-name="Path 28340" d="M-4.054,0V.567l.378.378L-5,1.135A1.778,1.778,0,0,1-4.054,0Z" transform="translate(214.558 115.695)" fill="#ffc2c2"/>
    <path id="Path_28341" data-name="Path 28341" d="M-.811,0,1.081.189V.378L-1,.567Z" transform="translate(205.072 119.289)" fill="#ff4242"/>
  </g>
</svg>
