<svg id="homelogo" xmlns="http://www.w3.org/2000/svg" width="159.501" height="142.136" viewBox="0 0 159.501 142.136">
  <path id="Path_5852" data-name="Path 5852" d="M14.81-85.024a5.388,5.388,0,0,0,2.244,3.376,7.96,7.96,0,0,0,4.225.99,20.051,20.051,0,0,0,3.788-.408A22.9,22.9,0,0,0,29.2-82.289a18.635,18.635,0,0,1,1.428,3.609,17.072,17.072,0,0,1,.67,4.366A30.314,30.314,0,0,1,20.7-72.394a19.915,19.915,0,0,1-7.2-1.164,12.77,12.77,0,0,1-4.9-3.231,12.963,12.963,0,0,1-2.8-4.918,20.537,20.537,0,0,1-.9-6.228,20.3,20.3,0,0,1,.932-6.229,14.3,14.3,0,0,1,2.8-5.064,13.19,13.19,0,0,1,4.661-3.405,15.857,15.857,0,0,1,6.527-1.251,13.733,13.733,0,0,1,5.507,1.048,11.99,11.99,0,0,1,4.108,2.881,12.512,12.512,0,0,1,2.594,4.424,16.949,16.949,0,0,1,.9,5.617,24.61,24.61,0,0,1-.146,2.823q-.146,1.251-.263,2.066Zm4.662-11.467a4.725,4.725,0,0,0-3.205,1.164,5.224,5.224,0,0,0-1.574,3.609h9.324a5.679,5.679,0,0,0-1.254-3.4A4.036,4.036,0,0,0,19.472-96.492Zm34.79-2.154q2.448.99,4.4,2.008a13.2,13.2,0,0,1,3.351,2.445,9.749,9.749,0,0,1,2.156,3.434,13.81,13.81,0,0,1,.758,4.861,13.777,13.777,0,0,1-1.078,5.559,11.548,11.548,0,0,1-3.176,4.249,14.685,14.685,0,0,1-5.157,2.736,23.453,23.453,0,0,1-7.022.96,31.239,31.239,0,0,1-6.381-.582,39.981,39.981,0,0,1-5.973-1.8,32.973,32.973,0,0,1,.816-4.336q.583-2.3,1.4-4.686a24.062,24.062,0,0,0,9.324,2.328,9.817,9.817,0,0,0,4.633-.9,3.249,3.249,0,0,0,1.663-3.115,3.416,3.416,0,0,0-.35-1.6,3.525,3.525,0,0,0-.932-1.135,5.874,5.874,0,0,0-1.311-.786q-.729-.32-1.486-.611l-3.263-1.222a21.011,21.011,0,0,1-3.817-1.8,12.221,12.221,0,0,1-2.943-2.475,10.408,10.408,0,0,1-1.893-3.289,12.9,12.9,0,0,1-.67-4.366,13.48,13.48,0,0,1,1.049-5.472A11.4,11.4,0,0,1,41.3-112.3a12.571,12.571,0,0,1,4.575-2.5,19.938,19.938,0,0,1,6-.844,27.825,27.825,0,0,1,5.74.582,47.289,47.289,0,0,1,5.915,1.689,29.735,29.735,0,0,1-.845,4.1,25.865,25.865,0,0,1-1.544,4.221q-1.515-.64-3.555-1.339a15.816,15.816,0,0,0-5.07-.7,8.766,8.766,0,0,0-1.777.175,5.2,5.2,0,0,0-1.515.553,2.936,2.936,0,0,0-1.078,1.048,3.135,3.135,0,0,0-.408,1.659,2.9,2.9,0,0,0,1.107,2.5,11.142,11.142,0,0,0,2.623,1.4ZM89.054-84.21H80.429v11.06q-1.515.233-2.739.349t-2.214.116q-.991,0-2.214-.116T70.58-73.15v-30.035a19.663,19.663,0,0,1,2.535-.408q1.253-.116,2.418-.116,1.107,0,2.389.116a17.758,17.758,0,0,1,2.506.408v10.244h8.625v-10.245a19.664,19.664,0,0,1,2.535-.408q1.253-.116,2.418-.116,1.107,0,2.389.116a17.759,17.759,0,0,1,2.506.408V-73.15q-1.515.233-2.739.349t-2.214.116q-.991,0-2.214-.116t-2.681-.349Zm14.918-3.784a20.786,20.786,0,0,1,.962-6.49,13.8,13.8,0,0,1,2.856-5.035,12.606,12.606,0,0,1,4.691-3.231,17.109,17.109,0,0,1,6.469-1.135,17.28,17.28,0,0,1,6.527,1.135,12.606,12.606,0,0,1,4.691,3.231,13.794,13.794,0,0,1,2.855,5.035,20.786,20.786,0,0,1,.962,6.491,20.044,20.044,0,0,1-.962,6.374,13.577,13.577,0,0,1-2.856,4.948,12.479,12.479,0,0,1-4.691,3.171,17.683,17.683,0,0,1-6.527,1.106A17.509,17.509,0,0,1,112.48-73.5a12.479,12.479,0,0,1-4.691-3.172,13.576,13.576,0,0,1-2.856-4.948,20.043,20.043,0,0,1-.961-6.373Zm20.047,0a10.717,10.717,0,0,0-1.253-5.7,4.208,4.208,0,0,0-3.817-1.98,4.139,4.139,0,0,0-3.788,1.98,10.927,10.927,0,0,0-1.224,5.706,10.786,10.786,0,0,0,1.224,5.646,4.14,4.14,0,0,0,3.788,1.98,4.208,4.208,0,0,0,3.817-1.98,10.585,10.585,0,0,0,1.253-5.647Zm24.65.349a5.773,5.773,0,0,0,.729.087q.437.029.728.029a5.3,5.3,0,0,0,3.351-1.019,4.128,4.128,0,0,0,1.311-3.463,4.042,4.042,0,0,0-1.311-3.231,4.767,4.767,0,0,0-3.234-1.135h-.67a7.294,7.294,0,0,0-.9.058Zm-9.615-15.425q2.681-.407,5.507-.61t5.449-.2a27.619,27.619,0,0,1,5.245.495,12.981,12.981,0,0,1,4.6,1.8,9.713,9.713,0,0,1,3.293,3.609,12.425,12.425,0,0,1,1.253,5.967,12.4,12.4,0,0,1-1.136,5.588,10.189,10.189,0,0,1-3,3.667,11.977,11.977,0,0,1-4.225,2.008,19.1,19.1,0,0,1-4.808.611q-.991,0-1.69-.058a5.138,5.138,0,0,1-.874-.116v7.16a23.7,23.7,0,0,1-2.71.378q-1.195.087-2.127.087-.991,0-2.127-.087a24.088,24.088,0,0,1-2.651-.379Z" transform="translate(-4.903 183.515)" fill="#6133bd"/>
  <path id="Delivery_Time" data-name="Delivery Time" d="M16.955-60.384c0-4.7-.675-10.808-.675-10.808a8.669,8.669,0,0,0,.694-2.273c0-.077-.714-.1-.945-.1a11.4,11.4,0,0,0-2.623.173c-.5.5-2.372,5.491-2.527,5.992-.019.077-.058.116-.1.116-.058,0-.1-.1-.1-.1-.424-1.31-2.006-5.876-2.16-6.011a10.423,10.423,0,0,0-1.64-.1,13.735,13.735,0,0,0-2.508.193.084.084,0,0,0-.019.058,4.777,4.777,0,0,0,.752,1.946S4.379-63.7,4.379-60.076a1.682,1.682,0,0,0,.694.116,3.514,3.514,0,0,0,1.948-.462,28.075,28.075,0,0,1-.1-2.928,41.924,41.924,0,0,1,.347-6.165c.019-.1.039-.135.058-.135s.058.039.1.116c.27.347,2.488,6.685,2.508,6.762a1.936,1.936,0,0,0,.849.173c.27,0,.752-.077.81-.212A55.524,55.524,0,0,1,14-69.593s.058-.116.116-.116c.019,0,.039.019.058.1.116.617.27,4.6.27,7.437,0,.925-.019,1.715-.058,2.235-.019.077.289.077.54.077A3.548,3.548,0,0,0,16.955-60.384Zm9.509-4.662v-.983c0-2.331-1.35-3.429-4.282-3.429a4.26,4.26,0,0,0-1.35.135,3.756,3.756,0,0,0-.675,1.753h.019a11.938,11.938,0,0,1,1.408-.077c1.678,0,2.392.385,2.392.944a.067.067,0,0,1-.039.019c-.386,0-4.841.443-4.841,3.815,0,1.638,1.061,2.543,2.8,2.543a4.3,4.3,0,0,0,2.45-.809s.039-.039.058-.039.019.039.019.039c.116,1.04.54,1.483.617,1.483a3.093,3.093,0,0,0,2.141-1.06,2.272,2.272,0,0,1-.656-1.522C26.465-62.638,26.465-64.083,26.465-65.046Zm-2.141,1.233a1.539,1.539,0,0,1-1.659,1.522c-.868,0-1.2-.462-1.2-.944,0-1.387,2.141-1.734,2.835-1.734a1.69,1.69,0,0,1,.019.424Zm5.208.655a21.682,21.682,0,0,1-.135,2.851c0,.058.135.058.289.058a3.53,3.53,0,0,0,1.987-.52,14.277,14.277,0,0,0,.077-2.139c0-1.214-.019-2.466-.019-2.447,0,0,.347-1.368,1.6-1.368,1.061,0,1.138,1.464,1.138,3.333a30.047,30.047,0,0,1-.193,3.294,2.085,2.085,0,0,0,.637.1,3.089,3.089,0,0,0,1.659-.385s.058-.983.058-2.254c0-3.295-.058-6.454-2.469-6.454a3.28,3.28,0,0,0-2.372,1.214s-.039.039-.058.039c-.039,0-.058-.077-.058-.385,0-.366.039-.848.058-1,0-.058-.231-.1-.405-.1a2.961,2.961,0,0,0-1.755.539,3.848,3.848,0,0,0-.1,1.291C29.474-66.356,29.531-64.68,29.531-63.158Zm16.685-1.888v-.983c0-2.331-1.35-3.429-4.282-3.429a4.26,4.26,0,0,0-1.35.135,3.756,3.756,0,0,0-.675,1.753h.019a11.938,11.938,0,0,1,1.408-.077c1.678,0,2.392.385,2.392.944a.067.067,0,0,1-.039.019c-.386,0-4.841.443-4.841,3.815,0,1.638,1.061,2.543,2.8,2.543a4.3,4.3,0,0,0,2.45-.809s.039-.039.058-.039.019.039.019.039c.116,1.04.54,1.483.617,1.483a3.093,3.093,0,0,0,2.141-1.06,2.272,2.272,0,0,1-.656-1.522C46.216-62.638,46.216-64.083,46.216-65.046Zm-2.141,1.233a1.539,1.539,0,0,1-1.659,1.522c-.868,0-1.2-.462-1.2-.944,0-1.387,2.141-1.734,2.835-1.734a1.69,1.69,0,0,1,.019.424Zm6.655,7.051h-.366a3.318,3.318,0,0,0,.714,2c1.485,0,5.169-.906,5.169-6.2,0-.539-.039-2.774-.039-4.566v-2.447a2.217,2.217,0,0,0-.829-.116h-.212s.019-.193.019-.289a4.59,4.59,0,0,0-.058-.713c0-.1-.675-.1-.675-.1-3.877,0-5.748,2.408-5.748,5.317,0,1.541,1,3.314,2.835,3.314a2.877,2.877,0,0,0,2.527-1.252s.039-.058.058-.058.019.019.019.077C54.144-57.166,51.713-56.762,50.729-56.762ZM54.1-67.146c-.058.462-.077,2.524-.077,2.813a1.793,1.793,0,0,1-1.659,1.406,1.381,1.381,0,0,1-1.35-1.483A2.609,2.609,0,0,1,53.7-67.2S54.1-67.2,54.1-67.146Zm9.3.27c0,1.291-1.7,2.447-2.507,2.466-.077,0-.077-.058-.077-.27,0-1.522.945-2.755,1.987-2.755A.544.544,0,0,1,63.4-66.876Zm-.849,6.57a4.927,4.927,0,0,0,2.527-.443,3.119,3.119,0,0,0,.482-1.734c0-.116-.019-.366-.058-.366a.067.067,0,0,0-.039.019,4.666,4.666,0,0,1-2.315.52c-1,0-1.408-.4-1.408-.52,2.469-.848,3.916-2.6,3.916-4.239a2.161,2.161,0,0,0-2.43-2.1,4.489,4.489,0,0,0-4.668,4.8A3.741,3.741,0,0,0,62.553-60.307Zm15.585.135c4.9,0,6.018-3.738,6.018-6.839,0-4.373-1.7-6.743-5.362-6.743a3.3,3.3,0,0,0-3.472,3.372h-.366a4.444,4.444,0,0,0-1.273.116,6.92,6.92,0,0,0-1.177,4.277C72.506-62.965,74.03-60.172,78.138-60.172Zm3.53-6.994c0,2.37-.559,4.99-3.51,4.99-1.871,0-3.2-1.792-3.2-3.911a4.958,4.958,0,0,1,.637-2.89,5.525,5.525,0,0,0,1.659,3.1A2.628,2.628,0,0,0,79.1-66.51s-1.736-1.946-1.736-3.718a1.485,1.485,0,0,1,1.6-1.464C80.492-71.693,81.668-70.556,81.668-67.165Zm10.319-1.214a1.488,1.488,0,0,0-.154-.732,3.834,3.834,0,0,0-2.874,1.541c-.039.039-.058.039-.077.039-.039,0-.039-.4-.039-.443,0-.5.039-1.233.058-1.406,0-.058-.231-.1-.405-.1a2.961,2.961,0,0,0-1.755.539,4.292,4.292,0,0,0-.077,1.214c0,1.117.039,2.832.039,4.373a21.191,21.191,0,0,1-.135,3.044c0,.058.077.058.154.058a3.7,3.7,0,0,0,2.122-.52,20.088,20.088,0,0,0,.058-2.37v-1.7a2.486,2.486,0,0,1,2.488-1.83,2.029,2.029,0,0,1,.251.039A3.131,3.131,0,0,0,91.988-68.379Zm9.027-5.337c0-.039-.309-.077-.482-.077a3.017,3.017,0,0,0-1.775.674,6.624,6.624,0,0,0-.058,1.252c0,1.117.039,2.639.039,2.851A5.056,5.056,0,0,0,93.531-63.7c0,1.541.964,3.314,2.8,3.314a2.873,2.873,0,0,0,2.411-1.156s.039-.039.058-.039.039,0,.039.058a2.111,2.111,0,0,0,.617,1.464,3.4,3.4,0,0,0,2.16-1.021,2.81,2.81,0,0,1-.637-1.541c-.1-.578-.116-2.428-.116-3.892C100.86-68.437,100.937-72.117,101.015-73.716Zm-2.3,9.556c0,.231-.424,1.541-1.543,1.541-.926,0-1.331-.732-1.331-1.618a2.569,2.569,0,0,1,2.643-2.794s.309,0,.289.039C98.739-66.53,98.719-64.449,98.719-64.16Zm9.953-2.717c0,1.291-1.7,2.447-2.508,2.466-.077,0-.077-.058-.077-.27,0-1.522.945-2.755,1.987-2.755A.544.544,0,0,1,108.672-66.876Zm-.849,6.57a4.927,4.927,0,0,0,2.527-.443,3.119,3.119,0,0,0,.482-1.734c0-.116-.019-.366-.058-.366a.067.067,0,0,0-.039.019,4.666,4.666,0,0,1-2.315.52c-1,0-1.408-.4-1.408-.52,2.469-.848,3.916-2.6,3.916-4.239a2.161,2.161,0,0,0-2.43-2.1,4.489,4.489,0,0,0-4.668,4.8A3.741,3.741,0,0,0,107.823-60.307Zm10.84-8.072a1.488,1.488,0,0,0-.154-.732,3.834,3.834,0,0,0-2.874,1.541c-.039.039-.058.039-.077.039-.039,0-.039-.4-.039-.443,0-.5.039-1.233.058-1.406,0-.058-.231-.1-.405-.1a2.961,2.961,0,0,0-1.755.539,4.291,4.291,0,0,0-.077,1.214c0,1.117.039,2.832.039,4.373a21.191,21.191,0,0,1-.135,3.044c0,.058.077.058.154.058a3.7,3.7,0,0,0,2.122-.52,20.091,20.091,0,0,0,.058-2.37v-1.7a2.486,2.486,0,0,1,2.488-1.83,2.029,2.029,0,0,1,.251.039A3.131,3.131,0,0,0,118.664-68.379Zm7.349,5.414c-.058-2-3.067-2.562-3.067-3.526,0-1.021,2.392-1.426,2.681-1.426-.019-.828-.617-1.618-.829-1.618-2.18,0-4.591,1.541-4.591,3.14,0,1.657,3.086,2.254,3.086,3.372,0,.617-.868,1.6-3.086,1.6v.135a2.087,2.087,0,0,0,.752,1.715C122.463-59.575,126.012-60.711,126.012-62.965Z" transform="translate(14.758 196.894)" fill="#6133bd"/>
  <path id="Path_6377" data-name="Path 6377" d="M25.673,48.216l.116-.116c5-2.092,11.4-.694,16.522-5.81a14.577,14.577,0,0,0,4.186-9.3c.116-1.4-.815-1.629-1.862-.931h0l-.116.116c-1.862,1.279-3.723,2.558-5.468,3.953a7.061,7.061,0,0,0-1.163.814c-.349.116-.582.349-.814.349-1.279.581-2.676,0-3.84-.7a12.944,12.944,0,0,1-3.026-3.141,10.372,10.372,0,0,1-1.63-3.839,3.2,3.2,0,0,1,.581-3.024A20.144,20.144,0,0,1,31.6,24.607c1.279-.93,2.676-1.86,4.072-2.79.931-.7,2.676-2.442.581-3.489a15.333,15.333,0,0,0-8.262,0A14.366,14.366,0,0,0,17.871,30.07c-.464,3.14-.813,5.582-2.092,7.908-1.163,1.977-6.747,8.139-8.375,10-.7.814-1.745,1.511-.814,3.14,0,.116.116.116.116.233a44.984,44.984,0,0,0,5.587,5.933.114.114,0,0,1,.116.116c1.746.931,2.328-.116,3.258-.929,2.443-2.093,7.794-7.325,10-8.255ZM35.55.185a32.723,32.723,0,0,0-6.749,0h-.233C26.706.764,27.056,1.927,26.94,3.09a7.1,7.1,0,0,1-4.42,5.93A7.065,7.065,0,0,1,15.3,7.855c-.815-.7-1.513-1.745-3.142-.815-.116,0-.116,0-.233.116a26.418,26.418,0,0,0-4.77,4.767l-.116.116c-.93,1.744.117,2.325.815,3.141a7.223,7.223,0,0,1,1.166,7.328,6.781,6.781,0,0,1-5.934,4.3c-1.164.116-2.328-.117-2.909,1.744v.116a33.814,33.814,0,0,0,0,6.862v.116c.582,1.861,1.746,1.512,2.91,1.629A7.268,7.268,0,0,1,9.031,41.7a.427.427,0,0,0,.117.349,28.8,28.8,0,0,0,4.071-5.233c1.628-2.907,1.4-3.721,1.743-6.629a16.056,16.056,0,0,1,1.162-4.652A17.467,17.467,0,0,1,38.813,16.12a17.316,17.316,0,0,1-5.46,33.262c-7.331.463-7.563,1.51-11.635,5.579a2.159,2.159,0,0,1,.815.233,6.947,6.947,0,0,1,4.307,6.049c.117,1.047-.116,2.21,1.63,2.792H28.7a33.867,33.867,0,0,0,6.865,0h.116c1.862-.581,1.512-1.744,1.628-2.791a7.265,7.265,0,0,1,4.42-6.047,6.982,6.982,0,0,1,7.215,1.165c.931.7,1.513,1.861,3.142.815h.233a27.118,27.118,0,0,0,4.77-4.884.114.114,0,0,0,.116-.116c.93-1.628-.117-2.325-.816-3.14a7.223,7.223,0,0,1-1.166-7.328,7.142,7.142,0,0,1,6.05-4.3c1.047-.116,2.211.233,2.792-1.628V35.55a32.669,32.669,0,0,0,0-6.746v-.234c-.582-1.861-1.746-1.512-2.793-1.629a7.279,7.279,0,0,1-6.052-4.422,7.055,7.055,0,0,1,1.162-7.211c.7-.814,1.861-1.512.814-3.14v-.233a31.638,31.638,0,0,0-4.888-4.77l-.116-.116c-1.629-.931-2.328.116-3.142.813a7.229,7.229,0,0,1-7.331,1.161,6.985,6.985,0,0,1-4.307-5.933C37.3,1.929,37.529.766,35.784.183Z" transform="translate(77.507 16.624) rotate(-15.005)" fill="#6133bd" fill-rule="evenodd"/>
</svg>
