<svg xmlns="http://www.w3.org/2000/svg" width="1388" height="645" viewBox="0 0 1388 645">
  <g id="placeholder" transform="translate(2456 -1932)">
    <rect id="Placeholder_Rectangle" width="1388" height="645" transform="translate(-2456 1932)" fill="none"/>
    <g id="sublogo" transform="translate(-2031.836 2013.782)" opacity="0.33">
      <path id="Path_5852" data-name="Path 5852" d="M38.424-11.922Q40.593-3.839,46.016-.486T60.31,2.867A67.769,67.769,0,0,0,73.126,1.487a77.417,77.417,0,0,0,14-4.141A63.167,63.167,0,0,1,91.958,9.57a57.892,57.892,0,0,1,2.267,14.789,102.461,102.461,0,0,1-35.887,6.507q-14.2,0-24.351-3.943A43.2,43.2,0,0,1,17.425,15.979,43.924,43.924,0,0,1,7.96-.681a69.642,69.642,0,0,1-3.054-21.1,68.834,68.834,0,0,1,3.152-21.1,48.458,48.458,0,0,1,9.465-17.154A44.63,44.63,0,0,1,33.295-71.569q9.464-4.239,22.084-4.239a46.419,46.419,0,0,1,18.633,3.549,40.569,40.569,0,0,1,13.9,9.759,42.4,42.4,0,0,1,8.775,14.986,57.473,57.473,0,0,1,3.054,19.027,83.461,83.461,0,0,1-.493,9.563q-.493,4.239-.889,7ZM54.2-50.767a15.975,15.975,0,0,0-10.844,3.944Q38.818-42.881,38.03-34.6H69.578a19.249,19.249,0,0,0-4.242-11.534Q61.488-50.767,54.2-50.767Zm117.712-7.3q8.281,3.353,14.887,6.8a44.659,44.659,0,0,1,11.34,8.282,33.028,33.028,0,0,1,7.3,11.634A46.83,46.83,0,0,1,208-14.879,46.717,46.717,0,0,1,204.347,3.95,39.113,39.113,0,0,1,193.6,18.342a49.667,49.667,0,0,1-17.45,9.267,79.267,79.267,0,0,1-23.76,3.254A105.577,105.577,0,0,1,130.8,28.892a135.158,135.158,0,0,1-20.208-6.111,111.815,111.815,0,0,1,2.76-14.69Q115.324.3,118.083-7.781,136.225.1,149.631.1q10.059,0,15.676-3.054T170.932-13.5a11.584,11.584,0,0,0-1.186-5.42,11.939,11.939,0,0,0-3.155-3.845,19.87,19.87,0,0,0-4.436-2.662q-2.465-1.084-5.029-2.07L146.084-31.64a71.054,71.054,0,0,1-12.915-6.113,41.361,41.361,0,0,1-9.957-8.382,35.266,35.266,0,0,1-6.407-11.141,43.737,43.737,0,0,1-2.266-14.789A45.71,45.71,0,0,1,118.088-90.6a38.607,38.607,0,0,1,9.954-13.7,42.521,42.521,0,0,1,15.479-8.478,67.391,67.391,0,0,1,20.309-2.859,94.041,94.041,0,0,1,19.422,1.972,159.864,159.864,0,0,1,20.013,5.72,100.829,100.829,0,0,1-2.859,13.9,87.68,87.68,0,0,1-5.225,14.3q-5.126-2.169-12.028-4.535A53.458,53.458,0,0,0,166-86.65a29.627,29.627,0,0,0-6.014.592,17.59,17.59,0,0,0-5.126,1.873,9.939,9.939,0,0,0-3.648,3.549,10.63,10.63,0,0,0-1.381,5.62q0,5.72,3.746,8.478a37.682,37.682,0,0,0,8.873,4.73Zm117.716,48.9H260.443V28.3q-5.126.789-9.267,1.183t-7.493.394q-3.353,0-7.493-.394T227.12,28.3V-73.441a66.462,66.462,0,0,1,8.578-1.381q4.239-.394,8.183-.394,3.747,0,8.083.394a60.017,60.017,0,0,1,8.478,1.381v34.7h29.184v-34.7a66.46,66.46,0,0,1,8.577-1.381q4.239-.394,8.183-.394,3.746,0,8.083.394a60.021,60.021,0,0,1,8.478,1.381V28.3q-5.126.789-9.267,1.183t-7.493.392q-3.353,0-7.493-.394t-9.07-1.183ZM340.1-21.979a70.485,70.485,0,0,1,3.254-21.984,46.743,46.743,0,0,1,9.663-17.056,42.651,42.651,0,0,1,15.872-10.944,57.828,57.828,0,0,1,21.887-3.845,58.406,58.406,0,0,1,22.084,3.845,42.651,42.651,0,0,1,15.873,10.943A46.742,46.742,0,0,1,438.4-43.962a70.487,70.487,0,0,1,3.254,21.988A67.97,67.97,0,0,1,438.4-.384a46,46,0,0,1-9.663,16.76,42.219,42.219,0,0,1-15.872,10.743,59.769,59.769,0,0,1-22.084,3.747,59.18,59.18,0,0,1-21.887-3.747,42.218,42.218,0,0,1-15.873-10.746A46,46,0,0,1,343.356-.39,67.968,67.968,0,0,1,340.1-21.979Zm67.829,0q0-12.619-4.239-19.324t-12.915-6.706q-8.676,0-12.817,6.706t-4.141,19.328q0,12.422,4.141,19.126t12.817,6.706q8.676,0,12.915-6.706T407.932-21.979Zm83.4,1.183a19.512,19.512,0,0,0,2.465.3q1.479.1,2.464.1,6.9,0,11.338-3.451t4.436-11.732q0-7.1-4.436-10.943a16.118,16.118,0,0,0-10.941-3.845h-2.267a24.646,24.646,0,0,0-3.054.2ZM458.806-73.047q9.07-1.377,18.633-2.066t18.436-.69a93.342,93.342,0,0,1,17.746,1.676A43.892,43.892,0,0,1,529.2-68.018a32.887,32.887,0,0,1,11.141,12.226Q544.575-48,544.575-35.58q0,11.24-3.845,18.929A34.5,34.5,0,0,1,530.575-4.228a40.5,40.5,0,0,1-14.294,6.8,64.558,64.558,0,0,1-16.267,2.07q-3.353,0-5.72-.2a17.368,17.368,0,0,1-2.958-.395V28.3a80.1,80.1,0,0,1-9.168,1.282q-4.042.3-7.2.3-3.353,0-7.2-.3a81.415,81.415,0,0,1-8.969-1.284Z" transform="translate(-4.903 345.511)" fill="#6133bd"/>
      <path id="Delivery_Time" data-name="Delivery Time" d="M46.976-28.37c0-15.924-2.284-36.612-2.284-36.612.653-1.24,2.349-6.069,2.349-7.7,0-.261-2.415-.326-3.2-.326-5.547,0-8.68.392-8.876.587-1.7,1.7-8.027,18.6-8.549,20.3-.065.261-.2.392-.326.392-.2,0-.326-.326-.326-.326C24.33-56.5,18.979-71.966,18.457-72.422c-.261-.261-4.764-.326-5.547-.326-2.611,0-8.158.326-8.484.653a.286.286,0,0,0-.065.2,16.194,16.194,0,0,0,2.545,6.592S4.425-39.6,4.425-27.326a5.684,5.684,0,0,0,2.349.392c1.566,0,5.221-.261,6.592-1.566a95.214,95.214,0,0,1-.326-9.92c0-7.309.326-16.577,1.175-20.884.065-.326.131-.457.2-.457s.2.131.326.392c.914,1.175,8.419,22.646,8.484,22.907a6.545,6.545,0,0,0,2.872.587c.914,0,2.545-.261,2.741-.718,0,0,5.156-17.556,8.158-22.972,0,0,.2-.392.392-.392.065,0,.131.065.2.326.392,2.088.914,15.6.914,25.191,0,3.133-.065,5.808-.2,7.57-.065.261.979.261,1.827.261C43.452-26.608,46.976-27.913,46.976-28.37ZM79.151-44.164v-3.328c0-7.9-4.568-11.617-14.488-11.617a14.4,14.4,0,0,0-4.568.457,12.73,12.73,0,0,0-2.284,5.939h.065a40.342,40.342,0,0,1,4.764-.261c5.678,0,8.093,1.305,8.093,3.2a.228.228,0,0,1-.131.065c-1.305,0-16.381,1.5-16.381,12.922,0,5.547,3.589,8.615,9.463,8.615a14.54,14.54,0,0,0,8.288-2.741s.131-.131.2-.131.065.131.065.131c.392,3.524,1.827,5.025,2.088,5.025,3.067,0,7.244-2.806,7.244-3.589-.914-.848-1.762-2.023-2.219-5.156C79.151-36.006,79.151-40.9,79.151-44.164Zm-7.244,4.177c0,4.307-3.916,5.156-5.613,5.156-2.937,0-4.046-1.566-4.046-3.2,0-4.7,7.244-5.874,9.594-5.874a5.73,5.73,0,0,1,.065,1.436Zm17.621,2.219a73.53,73.53,0,0,1-.457,9.659c0,.2.457.2.979.2,1.762,0,5.417-.457,6.722-1.762.2-.2.261-3.655.261-7.244,0-4.112-.065-8.354-.065-8.288,0,0,1.175-4.634,5.417-4.634,3.589,0,3.85,4.96,3.85,11.29a101.9,101.9,0,0,1-.653,11.16,7.047,7.047,0,0,0,2.154.326c2.806,0,5.613-.979,5.613-1.305,0,0,.2-3.328.2-7.636,0-11.16-.2-21.863-8.354-21.863-4.895,0-8.027,4.112-8.027,4.112s-.131.131-.2.131c-.131,0-.2-.261-.2-1.305,0-1.24.131-2.872.2-3.394,0-.2-.783-.326-1.371-.326-2.349,0-5.025.914-5.939,1.827-.261.261-.326,1.893-.326,4.373C89.332-48.6,89.528-42.924,89.528-37.768Zm56.452-6.4v-3.328c0-7.9-4.568-11.617-14.488-11.617a14.4,14.4,0,0,0-4.568.457,12.73,12.73,0,0,0-2.284,5.939h.065a40.342,40.342,0,0,1,4.764-.261c5.678,0,8.093,1.305,8.093,3.2a.228.228,0,0,1-.131.065c-1.305,0-16.381,1.5-16.381,12.922,0,5.547,3.589,8.615,9.463,8.615a14.539,14.539,0,0,0,8.288-2.741s.131-.131.2-.131.065.131.065.131c.392,3.524,1.827,5.025,2.088,5.025,3.067,0,7.244-2.806,7.244-3.589-.914-.848-1.762-2.023-2.219-5.156C145.98-36.006,145.98-40.9,145.98-44.164Zm-7.244,4.177c0,4.307-3.916,5.156-5.613,5.156-2.937,0-4.046-1.566-4.046-3.2,0-4.7,7.244-5.874,9.594-5.874a5.73,5.73,0,0,1,.065,1.436ZM161.251-16.1h-1.24c0,3.2,2.023,6.787,2.415,6.787,5.025,0,17.49-3.067,17.49-21.015,0-1.827-.131-9.4-.131-15.467v-8.288a7.493,7.493,0,0,0-2.806-.392h-.718s.065-.653.065-.979a15.565,15.565,0,0,0-.2-2.415c0-.326-2.284-.326-2.284-.326-13.118,0-19.448,8.158-19.448,18.012,0,5.221,3.394,11.225,9.594,11.225a9.73,9.73,0,0,0,8.549-4.242s.131-.2.2-.2.065.065.065.261C172.8-17.471,164.58-16.1,161.251-16.1Zm11.421-35.177c-.2,1.566-.261,8.549-.261,9.528,0,.848-1.762,4.764-5.613,4.764-3.067,0-4.568-2.611-4.568-5.025,0-5.156,3.263-9.463,9.072-9.463C171.3-51.473,172.672-51.473,172.672-51.277Zm31.457.914c0,4.373-5.743,8.288-8.484,8.354-.261,0-.261-.2-.261-.914,0-5.156,3.2-9.333,6.722-9.333A1.842,1.842,0,0,1,204.129-50.364Zm-2.872,22.255c6.33,0,8.549-1.5,8.549-1.5,1.24-1.566,1.632-4.307,1.632-5.874,0-.392-.065-1.24-.2-1.24a.228.228,0,0,0-.131.065A15.773,15.773,0,0,1,203.28-34.9c-3.394,0-4.764-1.371-4.764-1.762,8.354-2.872,13.248-8.81,13.248-14.358,0-5.808-5.156-7.114-8.223-7.114-10.573,0-15.794,7.766-15.794,16.25C187.748-34.244,192.12-28.109,201.257-28.109Zm52.732.457c16.577,0,20.362-12.661,20.362-23.168,0-14.815-5.743-22.842-18.143-22.842-3.72,0-11.747,2.088-11.747,11.421h-1.24a15.018,15.018,0,0,0-4.307.392c-.326.2-3.981,5.286-3.981,14.488C234.933-37.115,240.089-27.652,253.989-27.652Zm11.943-23.69c0,8.027-1.893,16.9-11.878,16.9-6.33,0-10.834-6.069-10.834-13.248,0-6.2,1.632-9.2,2.154-9.789,1.305,6.33,5.156,10.507,5.613,10.507,3.067,0,6.265-1.566,6.265-2.154,0,0-5.874-6.592-5.874-12.6a5.027,5.027,0,0,1,5.417-4.96C261.951-66.679,265.932-62.829,265.932-51.343Zm34.915-4.112a5.046,5.046,0,0,0-.522-2.48c-6.069,0-9.724,5.221-9.724,5.221-.131.131-.2.131-.261.131-.13,0-.13-1.371-.13-1.5,0-1.7.13-4.177.2-4.764,0-.2-.783-.326-1.371-.326-2.349,0-5.025.914-5.939,1.827-.2.2-.261,1.762-.261,4.112,0,3.785.13,9.594.13,14.815a71.865,71.865,0,0,1-.457,10.311c0,.2.261.2.522.2,1.7,0,5.613-.261,7.179-1.762.2-.2.2-4.307.2-8.027v-5.743a8.414,8.414,0,0,1,8.419-6.2,6.853,6.853,0,0,1,.848.131S300.848-51.082,300.848-55.454Zm30.543-18.078c0-.131-1.044-.261-1.632-.261a10.2,10.2,0,0,0-6,2.284,22.472,22.472,0,0,0-.2,4.242c0,3.785.131,8.941.131,9.659-11.943.392-17.621,8.81-17.621,18.012,0,5.221,3.263,11.225,9.463,11.225a9.717,9.717,0,0,0,8.158-3.916s.131-.131.2-.131.131,0,.131.2c.261,3.067,1.827,4.96,2.088,4.96,2.741,0,7.309-2.676,7.309-3.459a9.524,9.524,0,0,1-2.154-5.221c-.326-1.958-.392-8.223-.392-13.183C330.869-55.65,331.13-68.115,331.391-73.532Zm-7.766,32.37c0,.783-1.436,5.221-5.221,5.221-3.133,0-4.5-2.48-4.5-5.482,0-5.221,3.133-9.463,8.941-9.463,0,0,1.044,0,.979.131C323.69-49.189,323.625-42.141,323.625-41.162Zm33.676-9.2c0,4.373-5.743,8.288-8.484,8.354-.261,0-.261-.2-.261-.914,0-5.156,3.2-9.333,6.722-9.333A1.842,1.842,0,0,1,357.3-50.364Zm-2.872,22.255c6.33,0,8.549-1.5,8.549-1.5,1.24-1.566,1.632-4.307,1.632-5.874,0-.392-.065-1.24-.2-1.24a.228.228,0,0,0-.131.065,15.773,15.773,0,0,1-7.832,1.762c-3.394,0-4.764-1.371-4.764-1.762,8.354-2.872,13.248-8.81,13.248-14.358,0-5.808-5.156-7.114-8.223-7.114-10.573,0-15.794,7.766-15.794,16.25C340.919-34.244,345.292-28.109,354.429-28.109Zm36.678-27.345a5.046,5.046,0,0,0-.522-2.48c-6.069,0-9.724,5.221-9.724,5.221-.131.131-.2.131-.261.131-.13,0-.13-1.371-.13-1.5,0-1.7.13-4.177.2-4.764,0-.2-.783-.326-1.37-.326-2.349,0-5.025.914-5.939,1.827-.2.2-.261,1.762-.261,4.112,0,3.785.131,9.594.131,14.815a71.859,71.859,0,0,1-.457,10.311c0,.2.261.2.522.2,1.7,0,5.613-.261,7.179-1.762.2-.2.2-4.307.2-8.027v-5.743a8.414,8.414,0,0,1,8.419-6.2,6.855,6.855,0,0,1,.848.131S391.106-51.082,391.106-55.454Zm24.865,18.339c-.2-6.787-10.377-8.68-10.377-11.943,0-3.459,8.093-4.829,9.071-4.829-.065-2.806-2.088-5.482-2.806-5.482-7.375,0-15.533,5.221-15.533,10.638,0,5.613,10.442,7.636,10.442,11.421,0,2.088-2.937,5.417-10.442,5.417v.457c0,3.067,1.893,5.808,2.545,5.808C403.963-25.629,415.971-29.48,415.971-37.115Z" transform="translate(60.326 490.749)" fill="#6133bd"/>
      <path id="Path_6377" data-name="Path 6377" d="M86.824,163.29l.394-.394c16.931-7.091,38.588-2.364,55.912-19.7A49.43,49.43,0,0,0,157.3,111.683c.394-4.727-2.756-5.515-6.3-3.152h0l-.394.394c-6.3,4.333-12.6,8.667-18.506,13.394a23.912,23.912,0,0,0-3.937,2.757c-1.182.394-1.969,1.182-2.756,1.182-4.329,1.97-9.056,0-12.994-2.364a43.787,43.787,0,0,1-10.237-10.637,35.129,35.129,0,0,1-5.513-13c-.788-3.151-.788-7.485,1.969-10.243a68.235,68.235,0,0,1,8.269-6.7c4.329-3.151,9.056-6.3,13.781-9.454,3.15-2.364,9.056-8.273,1.969-11.818-9.45-2.758-18.506-2.364-27.956,0a48.682,48.682,0,0,0-34.256,39.788c-1.575,10.637-2.756,18.91-7.088,26.788-3.937,6.7-22.837,27.576-28.35,33.879-2.362,2.757-5.906,5.121-2.756,10.637,0,.394.394.394.394.788,4.725,5.909,12.994,15.364,18.9,20.091a.386.386,0,0,1,.394.394c5.906,3.151,7.877-.394,11.025-3.151,8.269-7.091,26.381-24.818,33.862-27.97ZM120.293.591a110.624,110.624,0,0,0-22.837,0h-.788c-6.3,1.97-5.119,5.909-5.513,9.849A24.064,24.064,0,0,1,76.192,30.531c-8.269,3.548-17.718,1.576-24.412-3.94-2.756-2.364-5.119-5.909-10.631-2.758-.394,0-.394,0-.788.394A89.516,89.516,0,0,0,24.218,40.379l-.394.394c-3.15,5.909.394,7.877,2.756,10.637a24.478,24.478,0,0,1,3.937,24.818A22.964,22.964,0,0,1,10.435,90.8C6.5,91.2,2.558,90.41.591,96.713v.394a114.645,114.645,0,0,0,0,23.243v.394c1.969,6.3,5.906,5.121,9.844,5.515a24.576,24.576,0,0,1,20.083,14.972,1.448,1.448,0,0,0,.394,1.182c5.119-5.515,10.237-11.424,13.781-17.728,5.513-9.848,4.725-12.606,5.906-22.455a54.453,54.453,0,0,1,3.938-15.758,59.112,59.112,0,0,1,76.783-31.91,59.318,59.318,0,0,1,31.5,76.819c-8.663,20.879-28.741,34.273-50.007,35.849-24.806,1.576-25.593,5.121-39.375,18.91a7.3,7.3,0,0,1,2.756.788,23.514,23.514,0,0,1,14.569,20.485c.394,3.547-.394,7.485,5.513,9.454h.788a114.492,114.492,0,0,0,23.231,0h.394c6.3-1.97,5.119-5.909,5.513-9.454a24.623,24.623,0,0,1,14.962-20.485,23.6,23.6,0,0,1,24.412,3.94c3.15,2.364,5.119,6.3,10.631,2.757h.787a91.884,91.884,0,0,0,16.144-16.546.385.385,0,0,0,.394-.394c3.15-5.515-.394-7.877-2.756-10.637a24.479,24.479,0,0,1-3.938-24.818c3.544-8.667,11.813-13.788,20.475-14.576,3.544-.394,7.481.788,9.45-5.515v-.788a110.758,110.758,0,0,0,0-22.849V96.71c-1.969-6.3-5.906-5.121-9.45-5.515a24.613,24.613,0,0,1-20.475-14.972c-3.543-8.273-1.575-17.728,3.938-24.425,2.362-2.758,6.3-5.122,2.756-10.637v-.788C188.412,34.466,183.293,28.95,177,24.223l-.394-.394c-5.512-3.151-7.877.394-10.631,2.757a24.447,24.447,0,0,1-24.806,3.94A23.64,23.64,0,0,1,126.6,10.435c-.394-3.94.394-7.877-5.513-9.849Z" transform="translate(262.244 56.273) rotate(-15.005)" fill="#6133bd" fill-rule="evenodd"/>
    </g>
  </g>
</svg>
