<svg xmlns="http://www.w3.org/2000/svg" width="1388" height="645" viewBox="0 0 1388 645">
  <g id="placeholder" transform="translate(2456 -1932)">
    <rect id="Placeholder_Rectangle" width="1388" height="645" transform="translate(-2456 1932)" fill="none"/>
    <g id="homelogo" transform="translate(-2108.464 1934.456)" opacity="0.44">
      <path id="Path_28279" data-name="Path 28279" d="M-7.937-.2c.572,0,1.15-.006,1.74-.006h1.908c.671,0,1.342,0,2.038-.006H4.567C6.208-.219,7.842-.219,9.483-.225q6.069-.009,12.131-.012,7.262,0,14.524-.012,17.544-.028,35.1-.037,5.817,0,11.628-.006,30.9-.028,61.805-.037,7.159,0,14.319-.006h1.8q28.852-.009,57.7-.056,29.644-.037,59.3-.044h10.037q13.265-.009,26.537-.031Q327.688-.5,341.019-.486q7.924.009,15.848-.019,5.295-.009,10.584,0,3.02.009,6.028-.006c2.169-.012,4.338-.006,6.507.006.621-.006,1.243-.012,1.877-.025a19.153,19.153,0,0,1,11.3,3.518c3.238,3.319,3.8,6.358,3.816,10.832.006.6.006.6.006,1.212.006,1.342.006,2.679.006,4.021.006.957.006,1.92.012,2.877q.009,3.915.012,7.831c0,1.628.006,3.263.006,4.891q.019,7.653.019,15.313,0,8.828.031,17.662.019,6.833.019,13.666,0,4.074.019,8.154.019,3.841.006,7.675c0,.938,0,1.877.006,2.809.006,1.286.006,2.567,0,3.853v2.169a13.613,13.613,0,0,1-5.2,9.521,12.69,12.69,0,0,1-7.75,2.567c-.858,0-.858,0-1.734.006-.951-.006-.951-.006-1.914-.006-1.013,0-1.013,0-2.038.006h-6.83c-1.641,0-3.275.006-4.916.006q-6.069.009-12.144.006-7.271,0-14.536.006-17.572.019-35.138.019-8.306,0-16.618.006l-56.858.019H215.32q-28.87,0-57.747.025-30.511.028-61.022.025H88.192q-13.284,0-26.562.019-13.349.009-26.686.006-7.933,0-15.866.012-5.295,0-10.59-.006-3.011,0-6.034.006c-2.169.006-4.332,0-6.5-.006-.628.006-1.255.012-1.9.012-4.425-.031-7.464-.609-10.907-3.586a14.2,14.2,0,0,1-3.971-10.521c0-.4-.006-.8-.006-1.212q-.009-2.014-.006-4.021c0-.963-.006-1.92-.012-2.884q-.009-3.915-.012-7.837c0-1.628-.006-3.263-.006-4.9q-.009-7.653-.019-15.319,0-8.837-.031-17.681-.019-6.833-.019-13.672,0-4.074-.019-8.16-.009-3.841-.006-7.681c0-.938,0-1.877-.006-2.815-.006-1.286-.006-2.567,0-3.853V11.887c.547-4.86,2.89-7.557,6.482-10.608C-12.393-.07-10.379-.2-7.937-.2Z" transform="translate(158.383 435.318)" fill="#fdfd00"/>
      <path id="Path_28282" data-name="Path 28282" d="M-92.6-3.232c.914.7,1.821,1.411,2.722,2.138.584.423,1.175.845,1.784,1.28a19.929,19.929,0,0,1,3.81,4.934V6.363h1.243c4.692,9.981,6.687,20.658,4.35,31.695-.416.615-.82,1.231-1.243,1.864q-.55,1.594-1.013,3.219c-.162.566-.323,1.125-.491,1.7-.18.64-.18.64-.36,1.293h1.243c.143-.441.286-.876.435-1.33A22.224,22.224,0,0,1-76.4,39.376c.447-.516.447-.516.907-1.05A119.091,119.091,0,0,1-45.128,13.2c.746-.472,1.5-.945,2.25-1.417,6.556-4.027,13.3-6.084,20.745-7.905.423-.118.845-.23,1.286-.348,7.874-1.815,15.823.385,22.634,4.325A27.835,27.835,0,0,1,10.8,16.928v1.243h1.243c3.611,6.849,6.762,13.567,4.518,21.478q-.615,1.51-1.305,2.989a51.661,51.661,0,0,0-2.014,5.674C9.027,60.226.308,70.256-7.84,79.7c-.416.479-.827.963-1.249,1.46-2.368,2.747-4.86,5.326-7.451,7.862q-.941.932-1.864,1.864,3.71-1,7.414-2.02l2.107-.566A59.364,59.364,0,0,0,1.569,84.55a15.628,15.628,0,0,1,4.885-1.125V82.182c.5-.23.994-.466,1.51-.7,12.293-6.2,20.571-16.811,28.693-27.537,2.828-3.723,5.73-7.308,8.9-10.751,1.168-1.274,2.3-2.573,3.424-3.89,6.612-7.563,14.331-15.195,23.97-18.644h1.864V19.414a161.929,161.929,0,0,1,16.892-5.171c.423-.093.845-.193,1.286-.3a60.879,60.879,0,0,1,12.765-1.516c.684-.012.684-.012,1.386-.019,1.485-.012,2.964-.025,4.45-.031.51,0,1.013,0,1.535-.006a151.235,151.235,0,0,1,28.184,2.691v1.864c-.789.311-1.578.621-2.374.932-.441.174-.876.342-1.33.522a6.852,6.852,0,0,1-3.132.41v1.243c-9.546,4.35-9.546,4.35-12.429,4.35v1.243c-.51.155-.51.155-1.032.317a70.557,70.557,0,0,0-8.949,3.555,5.607,5.607,0,0,1-3.07.479v1.243l-1.125.3A64.9,64.9,0,0,0,97.649,35.4c-2.169,1-4.388,1.864-6.619,2.716a9.991,9.991,0,0,0-3.163,1.8H86v1.243c-.367.131-.727.261-1.1.392a78.458,78.458,0,0,0-12.535,6.327L70.465,49A329.792,329.792,0,0,0,41.878,67.889l-2.722,1.976c-5.183,3.785-10.316,7.6-15.257,11.7-6.824,5.593-6.824,5.593-9.365,5.593-.205.615-.416,1.23-.621,1.864a14.374,14.374,0,0,1-2.747,1.206l-1.715.64L7.7,91.5c-.516.2-1.025.4-1.554.6a122.533,122.533,0,0,1-25.058,6.507c-.479.075-.957.155-1.454.236-5.338.851-10.664,1.591-16.059,1.976.7-2.094,1.007-2.281,2.753-3.455,11.373-8.29,19.881-22.553,24.592-35.7.336-.907.336-.907.684-1.827,2.567-7.141,5.27-17.339,2.032-24.623-1.3-2.212-2.989-3.344-5.2-4.624-.205-.41-.416-.82-.621-1.243-9.633-3.617-21.292-2.244-30.67,1.672-9.247,4.251-16.717,10.64-24.02,17.594C-92.211,71.617-92.211,71.617-99.817,71.617c.367-1.572.746-3.138,1.125-4.7.1-.441.205-.876.311-1.33a46.463,46.463,0,0,1,2.915-8.266c.23-.827.454-1.647.621-2.486H-93.6c.044-.553.044-.553.087-1.119a24.148,24.148,0,0,1,1.777-7.582c1.286-6.563,1.038-12.809-2.486-18.644C-96.971,24-99.761,22-104.168,21.278c-5.786-.472-10.627-.516-15.288,3.12-5.295,4.58-7.98,9.011-8.514,16.053-.292,9.117,2.324,15.232,7.644,22.466,1.007,1.063,2.038,2.1,3.107,3.107l1.125,1.125c3.375,3.145,7.116,5.046,11.3,6.954v1.243l1.864.466a31.579,31.579,0,0,1,6.122,2.6c1.38.677,2.772,1.237,4.207,1.784A84.241,84.241,0,0,1-84.9,83.736a65.663,65.663,0,0,0,16.73,6.084,21.091,21.091,0,0,1,3.636,1.063A25.315,25.315,0,0,0-58.359,91.9c.771.05,1.541.106,2.343.155l2.417.149,2.461.162c2,.137,4,.261,6.01.385-13.964,9.3-37.674,8.551-53.446,5.593-.74-.118-1.479-.23-2.244-.348a121.585,121.585,0,0,1-29.75-8.7A41.8,41.8,0,0,0-138,87.154a66.079,66.079,0,0,1-10.292-3.107c-.827-.218-1.659-.429-2.486-.621V82.182c-.423-.068-.845-.137-1.28-.205a46.248,46.248,0,0,1-8.4-2.051c-5.972-1.864-13.815-1.933-19.477.851-4.848,2.908-9.465,6.693-12.125,11.783-.982,1.429-.982,1.429-2.405,1.958-.572.068-1.137.137-1.728.205-.659.087-1.318.174-2,.261-.764.081-1.523.162-2.306.249-.907.1-1.815.2-2.722.3-1.448.155-2.9.317-4.344.472-4.717.51-9.366,1.28-14.02,2.181a144.446,144.446,0,0,1-23.038,2.014V98.962c.7-.311,1.392-.621,2.113-.938.939-.423,1.877-.851,2.815-1.274.46-.205.914-.4,1.386-.609a45.648,45.648,0,0,0,9.844-6.5q1.482-1.128,2.977-2.25c.5-.373,1.007-.746,1.523-1.131s1.025-.771,1.554-1.168c3.25-2.418,6.482-4.841,9.651-7.358A97.638,97.638,0,0,1-192.416,65.4c.4-.186.8-.367,1.218-.559,9.527-3.953,21-3.082,31.055-2.045.447.044.889.087,1.349.131a25.1,25.1,0,0,1,8.017,2.473c.808.267,1.622.516,2.442.733l1.908.51v1.243c.522.062,1.05.124,1.591.193a28.9,28.9,0,0,1,6.488,2.293l1.442.553a60.929,60.929,0,0,1,5.544,2.71c.659.348,1.318.7,1.995,1.056,1.69.938,3.281,1.983,4.885,3.07,2.9,1.958,5.9,3.679,8.968,5.351.547.292,1.088.59,1.647.895,6.364,3.443,12.541,6.494,19.645,8.116V90.883c-.373-.056-.74-.112-1.125-.162a41.615,41.615,0,0,1-11.926-4.189V85.29l-1.442-.2c-1.883-.479-2.219-.926-3.53-2.287-.659-.354-1.318-.715-1.995-1.081a27.724,27.724,0,0,1-6.32-5.1l-1.063-1.081c-8.757-9.142-15.151-21.136-16.724-33.758-.112-.7-.224-1.392-.342-2.113-1.218-9.6-.938-21.652,4.071-30.2.28-.528.566-1.05.864-1.591,4.307-7.383,9.968-13.486,18.4-15.81A28.853,28.853,0,0,1-92.6-3.232Z" transform="translate(392.839 95.108)" fill="#ff0505"/>
      <path id="Path_28283" data-name="Path 28283" d="M-38.254,0h1.864c.106.348.211.69.323,1.05a39.924,39.924,0,0,0,2.747,6.911,50.852,50.852,0,0,1,3.176,8.253c.51,1.566,1.069,3.082,1.678,4.605a9.252,9.252,0,0,1,.777,4.661h1.243c3.685,9.16,3.685,9.16,4.736,12,1.262,3.375,2.61,6.712,3.965,10.043q1.678,4.148,3.263,8.334c.211.547.416,1.094.634,1.659a9.537,9.537,0,0,1,.454,4.008h2.486V60.283c1.237-.976,2.473-1.871,3.766-2.759q1.193-.83,2.38-1.659c.416-.292.833-.584,1.262-.882,1.317-.932,2.61-1.883,3.9-2.846.423-.311.839-.621,1.274-.945.82-.615,1.641-1.224,2.455-1.846,2.846-2.113,2.846-2.113,4.226-2.113V45.989A22.313,22.313,0,0,1,10.9,44.1c.522-.36,1.05-.721,1.6-1.094s1.112-.746,1.69-1.131c.547-.385,1.1-.764,1.672-1.156C20,37.91,20,37.91,21.408,37.91V36.667c3.362-2.486,3.362-2.486,4.972-2.486A9.883,9.883,0,0,1,25.5,39.5a39.9,39.9,0,0,0-2.038,8.974c-.118.814-.118.814-.242,1.641q-.289,1.976-.572,3.953H21.408c.025.528.05,1.05.075,1.591a17.9,17.9,0,0,1-.92,5.127,106.077,106.077,0,0,0-2.884,13.169H16.436c.019,1.137.019,1.137.037,2.293a22.716,22.716,0,0,1-.659,5.786H14.571c.012.69.025,1.386.037,2.1-.037,2.25-.037,2.25-.659,3.493-.112.969-.2,1.939-.273,2.915a33.508,33.508,0,0,1-1.591,7.65H10.843l-.621,8.079H8.978c.019.982.019.982.037,1.982a26.064,26.064,0,0,1-.659,5.475q-17.731.019-35.461.031-8.231.009-16.463.019-7.169.009-14.344.006-3.794.009-7.6.012h-7.141c-.876,0-1.753.006-2.629.006h-5.606c-1.492-.075-1.492-.075-2.113-.7q-.037-1.864,0-3.729h-1.243c-.056-.354-.106-.708-.162-1.075q-.364-2.4-.733-4.792c-.081-.559-.168-1.112-.255-1.69-.118-.8-.118-.8-.249-1.61-.075-.491-.149-.982-.224-1.485-.13-1.162-.13-1.162-.864-1.777q-.037-1.864,0-3.729h-1.243c-.124-.8-.255-1.6-.385-2.424-.168-1.044-.342-2.088-.51-3.132-.081-.528-.168-1.057-.255-1.6-.081-.5-.162-1.007-.249-1.523-.075-.466-.149-.932-.224-1.411-.143-1.112-.143-1.112-.864-1.721-.025-1.448-.025-2.9,0-4.35H-91.7c-.075-.491-.149-.976-.23-1.479a78.268,78.268,0,0,0-2.256-10.329c-.646-2.685-1.255-5.382-1.864-8.079l-1.4-6.041q-.485-2.107-.957-4.214c-.155-.7-.317-1.411-.479-2.138-.143-.634-.286-1.268-.429-1.92a25.068,25.068,0,0,0-1.137-3.834,11.781,11.781,0,0,1-.572-4.847c1.864,0,1.864,0,3.238,1.33.572.584,1.143,1.175,1.734,1.777,1.541,1.249,3.132,2.411,4.736,3.573.628.46.628.46,1.262.932a17.841,17.841,0,0,0,5.189,2.952v1.243l1.119.528a20.442,20.442,0,0,1,3.387,2.231c3.008,2.306,6.14,4.419,9.285,6.532a60.814,60.814,0,0,1,5.662,4.245,5.671,5.671,0,0,0,3.542,2c.075-.541.143-1.081.224-1.641a25.949,25.949,0,0,1,1.833-5.7c.416-.97.416-.97.839-1.964q1.081-2.442,2.194-4.872A42.07,42.07,0,0,0-54.412,40.4h1.243c.056-.845.056-.845.118-1.709a31.8,31.8,0,0,1,2.821-8.278c.969-2.244,1.815-4.506,2.654-6.793q.522-1.4,1.05-2.8c.267-.715.534-1.436.814-2.175h1.243l.621-4.972H-42.6c.062-.653.131-1.305.193-1.982a13.655,13.655,0,0,1,2.293-5.475c.491-1.641.858-3.3,1.243-4.972Z" transform="translate(368.56 242.543)" fill="#ffd702"/>
      <path id="Path_28284" data-name="Path 28284" d="M-7.937-.2c.572,0,1.15-.006,1.74-.006h1.908c.671,0,1.342,0,2.038-.006H4.567C6.208-.219,7.842-.219,9.483-.225q6.069-.009,12.131-.012,7.262,0,14.524-.012,17.544-.028,35.1-.037,5.817,0,11.628-.006,30.9-.028,61.805-.037,7.159,0,14.319-.006h1.8q28.852-.009,57.7-.056,29.644-.037,59.3-.044h10.037q13.265-.009,26.537-.031Q327.688-.5,341.019-.486q7.924.009,15.848-.019,5.295-.009,10.584,0,3.02.009,6.028-.006c2.169-.012,4.338-.006,6.507.006.621-.006,1.243-.012,1.877-.025a19.153,19.153,0,0,1,11.3,3.518c3.238,3.319,3.8,6.358,3.816,10.832.006.6.006.6.006,1.212.006,1.342.006,2.679.006,4.021.006.957.006,1.92.012,2.877q.009,3.915.012,7.831c0,1.628.006,3.263.006,4.891q.019,7.653.019,15.313,0,8.828.031,17.662.019,6.833.019,13.666,0,4.074.019,8.154.019,3.841.006,7.675c0,.938,0,1.877.006,2.809.006,1.286.006,2.567,0,3.853v2.169a13.613,13.613,0,0,1-5.2,9.521,12.69,12.69,0,0,1-7.75,2.567c-.858,0-.858,0-1.734.006-.951-.006-.951-.006-1.914-.006-1.013,0-1.013,0-2.038.006h-6.83c-1.641,0-3.275.006-4.916.006q-6.069.009-12.144.006-7.271,0-14.536.006-17.572.019-35.138.019-8.306,0-16.618.006l-56.858.019H215.32q-28.87,0-57.747.025-30.511.028-61.022.025H88.192q-13.284,0-26.562.019-13.349.009-26.686.006-7.933,0-15.866.012-5.295,0-10.59-.006-3.011,0-6.034.006c-2.169.006-4.332,0-6.5-.006-.628.006-1.255.012-1.9.012-4.425-.031-7.464-.609-10.907-3.586a14.2,14.2,0,0,1-3.971-10.521c0-.4-.006-.8-.006-1.212q-.009-2.014-.006-4.021c0-.963-.006-1.92-.012-2.884q-.009-3.915-.012-7.837c0-1.628-.006-3.263-.006-4.9q-.009-7.653-.019-15.319,0-8.837-.031-17.681-.019-6.833-.019-13.672,0-4.074-.019-8.16-.009-3.841-.006-7.681c0-.938,0-1.877-.006-2.815-.006-1.286-.006-2.567,0-3.853V11.887c.547-4.86,2.89-7.557,6.482-10.608C-12.393-.07-10.379-.2-7.937-.2ZM-13.9,9.2l-.621.621c-.068,1.262-.087,2.523-.093,3.779-.006.4-.006.8-.012,1.212q-.009,2.023-.012,4.046c-.006.963-.012,1.927-.019,2.884q-.019,4.754-.031,9.508c-.006,1.094-.006,2.181-.012,3.269q-.019,6.805-.031,13.6-.019,9.76-.068,19.508-.037,6.852-.037,13.7,0,4.1-.031,8.191-.028,3.85-.012,7.706c0,.945-.006,1.889-.019,2.828-.012,1.286-.006,2.573,0,3.866,0,.721,0,1.442-.006,2.181.5,2.486,1.6,3.406,3.493,5.021l.621.621c.876.062,1.753.081,2.623.081.572,0,1.144.006,1.734.006h1.927c.671,0,1.342,0,2.032.006H4.362c1.641.006,3.281.006,4.922.012q6.078.009,12.15.012,7.281,0,14.549.012,17.591.028,35.175.037,5.826,0,11.646.006,30.94.028,61.874.037,7.169,0,14.344.006h1.8q28.9.009,57.791.056,29.691.037,59.381.043h10.049q13.293.009,26.587.031,13.349.028,26.7.019,7.942-.009,15.879.019,5.3.009,10.6,0,3.03-.009,6.047.006c2.169.012,4.338.006,6.5-.006.634.006,1.262.012,1.908.025,3.6-.044,3.6-.044,6.612-1.951.392-.516.783-1.032,1.181-1.566l.621-.621c.068-1.262.093-2.523.093-3.779.006-.6.006-.6.012-1.212q.009-2.023.012-4.046c.006-.963.012-1.927.019-2.884q.019-4.754.031-9.508c.006-1.094.012-2.181.012-3.269q.019-6.805.031-13.6.019-9.751.068-19.5.037-6.852.037-13.7.009-4.1.031-8.191.028-3.85.012-7.706c0-.945.006-1.889.019-2.828.012-1.286.006-2.573,0-3.866,0-.721.006-1.442.006-2.181-.5-2.511-1.529-3.431-3.493-5.021a12.6,12.6,0,0,0-4.636-.7c-.572,0-1.144-.006-1.728-.006H379.3c-1.007,0-1.007,0-2.032-.006h-6.811c-1.634-.006-3.269-.006-4.9-.012q-6.05-.009-12.106-.012-7.253,0-14.505-.012-17.516-.028-35.045-.037-5.8,0-11.6-.006-30.828-.028-61.662-.037-7.15,0-14.288-.006h-1.8q-28.8-.009-57.592-.056-29.588-.037-59.176-.044H87.763Q74.517,5.769,61.27,5.747q-13.3-.028-26.611-.019-7.905.009-15.816-.019-5.286-.009-10.559,0Q5.273,5.719,2.262,5.7C.1,5.691-2.058,5.7-4.22,5.71c-.628-.006-1.255-.012-1.9-.025C-9.807,5.734-11.548,6.089-13.9,9.2Z" transform="translate(158.383 435.318)"/>
      <path id="Path_28285" data-name="Path 28285" d="M-23.629-.773c4.145.684,8.321,1.1,12.5,1.554A39.2,39.2,0,0,1-1.965,2.732c2.026.317,4.046.572,6.084.808C7.245,3.919,7.245,3.919,8.6,4.6c1.255.1,2.511.168,3.772.23A81.162,81.162,0,0,1,22.39,6.106,128.937,128.937,0,0,0,35.578,7.865c.69.062.69.062,1.4.131l1.218.1c2.181.336,4.313.938,6.451,1.473V28.212c-3.692.3-3.692.3-7.458.621A77.549,77.549,0,0,0-12.53,58.043c-2.635,3.7-5.295,7.507-6.836,11.808h-1.243c-.062.653-.124,1.305-.193,1.976-.429,2.374-.429,2.374-1.28,3.772-1.566,2.647-2.144,5.575-2.877,8.545H-26.2c-.031.534-.056,1.069-.093,1.622-.4,6.525-1.056,13.007-1.771,19.508q-4.875.047-9.751.068c-1.112.006-2.219.012-3.325.025q-2.377.019-4.767.025l-1.5.019c-1.218,0-2.43-.062-3.648-.137-1.777-1.784-1.572-3.667-1.728-6.066-.037-.479-.075-.963-.112-1.46-.118-1.541-.224-3.089-.336-4.636q-.158-2.293-.336-4.586c-.068-.951-.137-1.9-.2-2.859a53.748,53.748,0,0,0-1.342-8.3c-.4-1.746-.646-3.493-.876-5.264-.093-.721-.186-1.436-.286-2.181s-.2-1.5-.3-2.287c-.777-5.817-1.634-11.615-2.641-17.4-.914-5.239-1.591-10.466-2.038-15.767a12.956,12.956,0,0,0-.994-5.009c-.609-6.619.255-13.324,4.195-18.843q.988-1.165,2.02-2.287c.4-.435.8-.87,1.218-1.318A32.011,32.011,0,0,1-47.332.867c.4-.23.789-.466,1.2-.7C-39.433-3.166-30.764-2.079-23.629-.773Z" transform="translate(281.931 202.525)" fill="#ff0202"/>
      <path id="Path_28286" data-name="Path 28286" d="M-42.774,0h21.13c-.7,9.086-.7,9.086-1.243,12.429H-24.13c-.043.8-.043.8-.093,1.622-.044.733-.093,1.467-.143,2.225-.037.715-.081,1.423-.13,2.163-.634,7.582-2.25,15.108-3.611,22.584-.336,1.815-.659,3.629-.988,5.438C-30,51.42-30.9,56.367-32,61.283A120.638,120.638,0,0,0-33.961,74.8a42.275,42.275,0,0,1-2.6,10.963c-.317.845-.317.845-.646,1.709a23.842,23.842,0,0,1-12.4,11.963c-.708.36-.708.36-1.436.727a23.247,23.247,0,0,1-7.3.708c-.541,0-1.081,0-1.641-.006a83.924,83.924,0,0,1-20.16-2.716A34.28,34.28,0,0,0-86.9,97.26a35.879,35.879,0,0,1-7.955-1.231,94.306,94.306,0,0,0-9.695-1.479c-.553-.075-1.106-.149-1.678-.224-.746-.093-.746-.093-1.5-.193A29.934,29.934,0,0,1-113,92.6V66.5l7.458-1.243c1.249-.273,2.492-.566,3.729-.895,1.927-.5,3.847-.994,5.792-1.436.665-.155,1.33-.311,2.014-.466.6-.137,1.206-.267,1.827-.41a6.921,6.921,0,0,0,3.418-2.386,23.3,23.3,0,0,1,2.56-1.168c14.946-6.407,25.965-17.96,34.106-31.77q.867-1.324,1.746-2.641a25.382,25.382,0,0,0,2.8-6.569,17.167,17.167,0,0,1,1.013-2.7A49.862,49.862,0,0,0-44.6,7.029c.218-1.063.429-2.125.646-3.188.093-.472.186-.938.28-1.423A7.521,7.521,0,0,1-42.774,0Z" transform="translate(451.386 318.984)" fill="#ff0303"/>
      <path id="Path_28287" data-name="Path 28287" d="M0,0C8.141,1.094,8.141,1.094,11.087,1.871a51.026,51.026,0,0,0,8.837,1.237c1.156.1,2.306.205,3.462.311.566.05,1.125.106,1.709.155,2.306.218,4.611.485,6.911.777,1.069.137,1.069.137,2.157.273a10.168,10.168,0,0,1,3.288.957A22.228,22.228,0,0,0,43.4,6.743c1.206.118,1.206.118,2.436.242.839.081,1.684.162,2.523.236.858.087,1.709.174,2.567.255q3.123.308,6.252.6V9.322l1.044-.037A87.558,87.558,0,0,1,72.4,10.447c.777.106,1.56.205,2.362.311C85,12.181,91.574,15.058,98.528,22.945a8.038,8.038,0,0,1,1.529,3.779H101.3c4.108,11.106,1.964,24.933-1.243,36.045-.211,1.473-.392,2.952-.547,4.425-.584,5.233-1.579,10.36-2.592,15.518-.6,3.082-1.119,6.171-1.591,9.279-.242,1.231-.242,1.231-.864,1.852-1.7.056-3.387.075-5.09.062-.51,0-1.019-.006-1.547-.006q-2.442,0-4.9-.019c-1.106,0-2.212-.006-3.319-.006q-4.064-.009-8.141-.031c-.037-.659-.068-1.318-.106-1.995C70.7,80.139,68.585,69.4,63.011,58.978a5.688,5.688,0,0,1-.864-3.667H60.9c-1.864-3.573-1.864-3.573-1.864-4.972H57.8c-.87-1.231-1.684-2.461-2.486-3.729A29.236,29.236,0,0,0,48.9,39.4a22.181,22.181,0,0,1-2.523-2.38,35.491,35.491,0,0,0-8.464-6.563V29.209c-.566-.168-1.131-.336-1.709-.5a8.223,8.223,0,0,1-3.194-1.628,30.513,30.513,0,0,0-6.3-3.257c-1.175-.522-2.343-1.075-3.493-1.653-6.289-3.12-13.038-4.195-20.005-4.636A9.943,9.943,0,0,1,0,16.78Z" transform="translate(337.764 213.955)" fill="#ff0303"/>
      <path id="Path_28288" data-name="Path 28288" d="M0,0H21.751c.348,1.8.69,3.586,1.05,5.438a59.32,59.32,0,0,0,4.543,13.828,10.734,10.734,0,0,1,1.243,4.972h1.243c.3.69.3.69.621,1.392a47.168,47.168,0,0,0,7.284,11.249c1.349,1.572,2.579,3.188,3.828,4.835A45.525,45.525,0,0,0,53.875,52.166c.677.423,1.355.845,2.057,1.28v1.243c.435.162.864.323,1.311.491a55.163,55.163,0,0,1,5.643,2.853A67.411,67.411,0,0,0,91.965,66.41c1.255.087,1.255.087,1.877.708.056,1.746.075,3.48.062,5.227,0,.783,0,.783-.006,1.585q0,2.517-.019,5.034c0,1.137-.006,2.268-.006,3.406q-.009,4.186-.031,8.365A51.833,51.833,0,0,1,81.413,88.87c-2.349-.36-4.7-.6-7.072-.858-6.227-.7-12.4-1.591-18.588-2.61-3.561-.59-7.116-1.125-10.7-1.579a73.173,73.173,0,0,1-8.284-1.485c-1.566-.354-3.138-.572-4.729-.808-7.5-1.355-13.828-5.916-18.371-11.926-.323-.423-.64-.845-.969-1.28C8.5,62.427,7.085,56.15,6.215,49.059c-.1-.764-.2-1.535-.3-2.318-.566-4.419-1.088-8.844-1.6-13.268-.056-.472-.112-.945-.168-1.429q-.4-3.468-.789-6.929A88.981,88.981,0,0,0,1.523,13.741,65.657,65.657,0,0,1,.547,5.867C.367,3.928.186,1.995,0,0Z" transform="translate(232.736 318.984)" fill="#ff0303"/>
      <path id="Path_28289" data-name="Path 28289" d="M-5.278-.008c.485,0,.976-.006,1.479-.006,1.025,0,2.051,0,3.082.012Q1.642.008,4-.014C5-.014,6-.014,7-.008c.472-.006.938-.006,1.423-.012,3.225.044,3.225.044,4.717,1.056A18.215,18.215,0,0,1,14.9,4.486c.273.69.273.69.553,1.386.273.715.273.715.553,1.436a44.877,44.877,0,0,0,4.04,8.471c.236-.609.466-1.218.708-1.846C24.888,3.268,24.888,3.268,26.877.862,29.264-.014,31.793.129,34.3.117,34.776.111,35.248.1,35.739.1c1-.006,2-.012,3-.012,1.535-.006,3.07-.025,4.6-.044.976-.006,1.951-.012,2.921-.012.46-.006.92-.012,1.392-.025,3.182.019,3.182.019,4.518,1.032,1.411,1.852,1.069,4.139,1.05,6.376.006.547.006,1.088.012,1.647.006,1.8,0,3.592-.006,5.388,0,1.249.006,2.5.006,3.741q0,3.925-.012,7.843-.009,5.034.006,10.062.009,3.869,0,7.725c0,1.237,0,2.473.006,3.716.006,1.728,0,3.449-.012,5.177.006.516.006,1.032.012,1.56-.037,3.486-.037,3.486-1.081,4.823-1.678,1.293-3.288,1.056-5.37,1.069-.416.006-.839.006-1.274.012-.889,0-1.777,0-2.66-.006-1.361,0-2.716.012-4.077.037-.864,0-1.728,0-2.592-.006-.783.006-1.572.006-2.38.006-1.951-.311-1.951-.311-3.132-1.386a9.435,9.435,0,0,1-1-4.375c-.019-.553-.044-1.106-.068-1.672s-.025-1.144-.044-1.734-.037-1.162-.062-1.765c-.05-1.429-.093-2.865-.131-4.294-.267.547-.267.547-.541,1.112-.814,1.659-1.628,3.325-2.449,4.984-.28.578-.559,1.156-.851,1.753-.273.553-.547,1.106-.833,1.678-.249.51-.5,1.019-.758,1.547a10.066,10.066,0,0,1-2.647,3.219c-2.057.236-2.057.236-4.35-.621a36.216,36.216,0,0,1-3.692-6.873c-.3-.653-.609-1.3-.926-1.97q-1.128-2.405-2.219-4.829c-.006.385-.019.771-.025,1.168Q10,48.775,9.9,51.394c-.019.914-.019.914-.044,1.84-.019.584-.044,1.168-.068,1.765-.012.541-.031,1.075-.05,1.628a4.8,4.8,0,0,1-.969,2.517c-1.721,1.125-3.132,1-5.177,1.007-1.187,0-1.187,0-2.405.006-.41-.006-.82-.006-1.249-.012-1.255-.012-2.511,0-3.766.012-.8-.006-1.585-.006-2.405-.006-.727-.006-1.454-.006-2.206-.006a7.808,7.808,0,0,1-5.084-2.107,27.894,27.894,0,0,1-.4-5.32c-.006-.541-.012-1.081-.019-1.641-.012-1.8-.006-3.592.006-5.394-.006-1.243-.006-2.492-.012-3.741q0-3.915.019-7.843c.019-3.35.006-6.706-.012-10.062-.012-2.573-.006-5.146,0-7.725.006-1.237,0-2.473-.006-3.71-.006-1.728.006-3.455.025-5.183-.006-.51-.019-1.025-.025-1.554a18.021,18.021,0,0,1,.423-3.76C-11.02-.076-8.46-.032-5.278-.008Z" transform="translate(168.569 462.925)" fill="#e60000"/>
      <path id="Path_28290" data-name="Path 28290" d="M-4.584,0C-3.82,0-3.055-.01-2.272-.01-1.079,0-1.079,0,.133.009L2.544-.01c1.144,0,1.144,0,2.312.006C5.552,0,6.248,0,6.963,0a6.127,6.127,0,0,1,4.319,2.107A13.1,13.1,0,0,1,12.569,4.4c.211.429.423.864.634,1.311s.423.9.64,1.367c.429.895.858,1.784,1.286,2.679.28.59.28.59.566,1.2a15.368,15.368,0,0,0,1.8,2.958c.006-.348.019-.7.025-1.056q.075-2.368.168-4.729c.012-.553.025-1.1.044-1.659.019-.528.044-1.056.068-1.6.012-.485.031-.969.044-1.473A3.94,3.94,0,0,1,19.983.245,22.54,22.54,0,0,1,24.178,0c.609,0,.609,0,1.231-.006.858,0,1.715,0,2.579.012q1.967.009,3.94-.012c.833,0,1.666,0,2.5.006.758,0,1.516.006,2.3.006,2.1.267,2.5.491,3.76,2.107a47.492,47.492,0,0,1,.23,5.314c0,.547.006,1.088.006,1.647q.009,2.694-.012,5.388V18.2q0,3.925-.019,7.843-.019,5.034-.006,10.062,0,3.869-.012,7.725v3.716q0,2.582-.019,5.177c0,.516.006,1.032.006,1.56-.025,2.405-.056,3.573-1.417,5.624a19.7,19.7,0,0,1-3.959.249c-.8,0-1.585,0-2.405.006-.416-.006-.833-.006-1.262-.012-1.262-.012-2.517,0-3.779.012-.8-.006-1.6-.006-2.418-.006-.733-.006-1.46-.006-2.212-.006a8.789,8.789,0,0,1-5.1-2.107,13.459,13.459,0,0,1-1.666-2.629q-.4-.746-.82-1.51c-.267-.522-.541-1.038-.82-1.572s-.559-1.05-.851-1.591Q12.917,48.8,11.9,46.855c-.012.783-.019,1.572-.031,2.38-.025,1.032-.056,2.063-.087,3.095-.006.516-.006,1.038-.012,1.572-.019.5-.037.994-.056,1.51-.012.69-.012.69-.025,1.392-.41,1.237-.41,1.237-1.753,2.318A12.13,12.13,0,0,1,4.284,60.13H2.06C1.3,60.117.531,60.111-.259,60.1c-.764,0-1.529.006-2.318.006-6.494-.037-6.494-.037-8.514-1.442a21.81,21.81,0,0,1-.746-7.066c0-.534-.006-1.063-.012-1.61-.019-1.759-.025-3.511-.037-5.27,0-.6-.006-1.2-.006-1.815q-.028-4.754-.037-9.508-.019-4.922-.075-9.838-.028-3.775-.031-7.551c0-1.212-.012-2.418-.025-3.629-.019-1.69-.019-3.375-.019-5.065-.006-.5-.019-1.007-.031-1.523a16.847,16.847,0,0,1,.4-3.679C-9.425.158-7.536,0-4.584,0Z" transform="translate(291.682 462.921)" fill="#fb0101"/>
      <path id="Path_28291" data-name="Path 28291" d="M-4.4-.011C-3.31-.018-3.31-.018-2.191-.03c.783.006,1.566.006,2.374.012,1.218,0,1.218,0,2.461-.006,1.715,0,3.431,0,5.146.012,2.188.006,4.375,0,6.563-.006,2.1-.012,4.2-.006,6.3,0,.783-.006,1.56-.006,2.368-.012C28.578.014,33.1.529,37.266,4.581c3.319,4.624,2.666,10.285,2.7,15.736.012,1.025.031,2.057.05,3.089.242,10.391.242,10.391-3.375,14.735-.746,2.237-.441,2.741.4,4.885.23.59.454,1.181.69,1.79q.727,1.855,1.46,3.71c2.306,6.041,2.306,6.041,1.8,9.5a4.547,4.547,0,0,1-1.864,1.864,35.378,35.378,0,0,1-4.58.267c-.447.006-.895.006-1.355.012-.945,0-1.889,0-2.828-.006q-2.163,0-4.325.037c-.92,0-1.84,0-2.753-.006-.435.012-.864.019-1.305.025a6.864,6.864,0,0,1-4.835-1.442,10.755,10.755,0,0,1-1.933-3.791c-.137-.441-.267-.882-.4-1.336s-.255-.907-.385-1.373-.273-.926-.416-1.4c-.336-1.137-.659-2.275-.982-3.412-.025.69-.044,1.38-.068,2.088-.044.907-.081,1.815-.124,2.728-.019.677-.019.677-.044,1.373-.131,2.672-.28,4.369-2.25,6.24a16.672,16.672,0,0,1-4.151.3c-.4.006-.808.006-1.224.006-.851,0-1.7-.006-2.56-.025q-1.948-.019-3.9,0c-7.458-.037-7.458-.037-9.919-2.15a28.416,28.416,0,0,1-.4-5.32c0-.541-.006-1.081-.012-1.641-.012-1.8-.006-3.6.006-5.394-.006-1.243-.006-2.492-.012-3.741q0-3.915.019-7.843c.019-3.35.006-6.706-.012-10.062-.012-2.573-.006-5.146,0-7.725.006-1.237,0-2.473-.006-3.71-.006-1.728.006-3.455.019-5.183-.006-.51-.012-1.025-.019-1.554a18.022,18.022,0,0,1,.423-3.76C-9.108.15-7.194-.005-4.4-.011Z" transform="translate(501.854 462.935)" fill="#e50000"/>
      <path id="Path_28292" data-name="Path 28292" d="M-11.053-.034c.69,0,1.386-.006,2.094-.006q2.191-.009,4.369,0C-2.359-.04-.128-.059,2.1-.071H6.348L8.374-.09c.615.006,1.237.006,1.871.012h1.647a4.217,4.217,0,0,1,3.263,2.094,19.58,19.58,0,0,1,.882,3.2c.137.621.273,1.249.416,1.9s.267,1.3.41,1.976c.218.969.218.969.435,1.958,1.187,5.537,1.187,5.537.342,8.371C16.4,20.661,16.4,20.661,14.2,20.8c-.945,0-1.883-.006-2.821-.019-.5-.006-.988-.006-1.5-.006-1.579-.006-3.163-.025-4.748-.037l-3.213-.019q-3.953-.019-7.893-.062V40.548H-.382V38.684c-.385-.062-.771-.131-1.168-.193-1.318-.429-1.318-.429-2.56-2.293a41.994,41.994,0,0,1-.236-5.867c-.012-.534-.031-1.069-.044-1.616-.006-.777-.006-.777-.006-1.566-.006-.466-.012-.938-.019-1.423.447-1.97,1.15-2.647,2.79-3.822a28.943,28.943,0,0,1,4.8-.311h1.4c.969,0,1.945.006,2.915.019,1.492.019,2.977.012,4.462.006l2.84.019c.441-.006.889-.006,1.349-.006,3.058.056,3.058.056,4.419,1.013,1.119,1.547,1.038,2.579,1.025,4.475v2.076c-.012.733-.019,1.473-.031,2.231s-.006,1.516-.006,2.293c-.012,2.418-.037,4.841-.056,7.259-.012,1.634-.019,3.275-.031,4.916q-.028,6.022-.087,12.057a25.07,25.07,0,0,1-6.5,2.592c-.5.106-1,.211-1.51.323s-1.019.205-1.547.311c-.5.112-1.007.218-1.529.336A38.379,38.379,0,0,1,.861,62.3L-.382,59.814l-1.454.019c-2.194.025-4.394.044-6.588.062-1.131.012-1.131.012-2.281.031-11.23.056-11.23.056-15.779-3.841-2.262-3.586-2.56-7.172-2.585-11.336-.006-.758-.012-1.51-.019-2.293-.006-.808-.006-1.616-.012-2.449V38.752q-.019-3.3-.019-6.594-.009-3.393-.037-6.774c-.012-1.746-.012-3.5-.019-5.245,0-1.231-.012-2.467-.025-3.7.012-4.742.261-8.514,2.915-12.572l.851-.839c.267-.292.541-.578.82-.87C-20.58-.326-15.615-.04-11.053-.034Z" transform="translate(419.561 463.012)" fill="#f80707"/>
      <path id="Path_28293" data-name="Path 28293" d="M-4.342-.011C-3.273-.018-3.273-.018-2.185-.03c.764.006,1.523.006,2.312.012,1.181,0,1.181,0,2.386-.006,1.666,0,3.331,0,5,.012,2.132.006,4.257,0,6.389-.006,2.038-.012,4.077-.006,6.115,0L22.326-.03l2.156.019c.621,0,1.243,0,1.889.006A9.4,9.4,0,0,1,31.2,2.1,8.624,8.624,0,0,1,32.045,5c.106.566.205,1.137.311,1.715s.186,1.181.28,1.79c.106.584.211,1.168.317,1.765C34.289,18,34.289,18,32.909,20a8.158,8.158,0,0,1-3.573,1.361L30.579,22.6a23.744,23.744,0,0,1,.143,3.5c0,.69-.006,1.386-.006,2.1S30.7,29.658,30.7,30.41c-.006,1.094-.006,1.094-.006,2.212-.025,5.432-.025,5.432-.733,6.14l3.729,1.864A37.328,37.328,0,0,1,32.25,52.006c-.137.553-.267,1.112-.4,1.684-.137.528-.267,1.063-.41,1.61-.118.479-.236.957-.36,1.454a6.073,6.073,0,0,1-2.362,3.138,17.735,17.735,0,0,1-3.667.242l-2.281.019c-.814-.006-1.622-.012-2.461-.012s-1.69,0-2.529.006q-2.647,0-5.3-.012c-2.262-.012-4.524-.006-6.786.006q-2.61.009-5.22,0c-1.243,0-2.48.006-3.723.012-1.131-.012-1.131-.012-2.281-.019-.665-.006-1.33-.006-2.014-.006-1.92-.273-2.331-.615-3.511-2.1a47.571,47.571,0,0,1-.261-5.32c-.006-.541-.012-1.081-.019-1.641-.012-1.8-.012-3.6-.012-5.394q-.009-1.864-.012-3.741-.019-3.915-.006-7.843,0-5.025-.044-10.062-.019-3.859-.012-7.725l-.019-3.71q-.019-2.592,0-5.183c-.006-.51-.012-1.025-.025-1.554a17.8,17.8,0,0,1,.41-3.76C-8.984.175-7.107-.005-4.342-.011Z" transform="translate(455.097 462.935)" fill="#f70303"/>
      <path id="Path_28294" data-name="Path 28294" d="M-11.062-.011-9.5-.03c.553.006,1.112.006,1.684.012s1.144-.006,1.734-.006c1.206,0,2.418,0,3.629.012Q.329,0,3.107-.024c1.181,0,2.355,0,3.53.006C7.19-.024,7.743-.024,8.321-.03c.771.012.771.012,1.56.019.684,0,.684,0,1.38.006a4.223,4.223,0,0,1,3.064,2.1,15.51,15.51,0,0,1,.845,2.772c.211.839.211.839.423,1.7.143.609.292,1.218.435,1.846.236.951.236.951.472,1.914q.746,3.048,1.479,6.1.96,3.971,1.933,7.949c.162.646.317,1.293.479,1.958,1.28,5.214,2.685,10.385,4.151,15.549,3.344,11.851,3.344,11.851,2.834,16.767-1.523,1.523-2.393,1.4-4.481,1.429H21.571c-.454,0-.9.006-1.367.006-.951.006-1.908.006-2.859,0q-2.191,0-4.381.031H10.192l-1.33.019a21.405,21.405,0,0,1-3.238-.242C4.381,58.028,4.381,58.028,3.76,54.92L-5.562,54.3v4.35c-1.547,1.547-2.461,1.392-4.574,1.417l-1.367-.012c-.466.006-.932.006-1.4.006-.988,0-1.97,0-2.952-.006-1.5-.006-3.008,0-4.512.006-.957,0-1.908,0-2.865-.006-.447.006-.9.006-1.367.012-3.188-.031-3.188-.031-4.574-1.417-.4-5.631,1.871-11.677,3.263-17.09.261-1.019.516-2.032.777-3.051,1.324-5.214,2.666-10.422,4.151-15.593.8-2.778,1.523-5.562,2.219-8.365.193-.771.385-1.535.584-2.324.379-1.523.758-3.045,1.125-4.574.174-.69.348-1.386.528-2.1.155-.621.3-1.243.466-1.883C-15.108.977-13.921,0-11.062-.011Z" transform="translate(362.591 462.935)" fill="#f80303"/>
      <path id="Path_28295" data-name="Path 28295" d="M-11.034-.011-9.468-.03c.553.006,1.112.006,1.684.012S-6.64-.024-6.05-.024c1.206,0,2.418,0,3.629.012Q.357,0,3.135-.024c1.181,0,2.355,0,3.53.006C7.218-.024,7.772-.024,8.35-.03c.771.012.771.012,1.56.019.684,0,.684,0,1.38.006a4.223,4.223,0,0,1,3.064,2.1A15.511,15.511,0,0,1,15.2,4.867c.211.839.211.839.423,1.7.143.609.292,1.218.435,1.846.236.951.236.951.472,1.914q.746,3.048,1.479,6.1.96,3.971,1.933,7.949c.162.646.317,1.293.479,1.958C21.7,31.547,23.1,36.718,24.57,41.882c3.4,12.063,3.4,12.063,2.834,16.767-3.027,2.02-6.588,1.448-10.13,1.436q-2.042,0-4.077.031H10.605c-.783,0-1.572.006-2.38.006-1.951-.23-1.951-.23-3.114-.982-.7-1.112-.7-1.112-1.324-4.22L-5.534,54.3v3.729A3.55,3.55,0,0,1-7.4,59.892a22.09,22.09,0,0,1-4.151.249c-.4,0-.808,0-1.224.006-.851,0-1.7-.006-2.56-.012-1.3-.012-2.6,0-3.9.012-.833,0-1.666-.006-2.492-.006-.752-.006-1.51-.006-2.281-.006a9.713,9.713,0,0,1-5.146-2.107A152.769,152.769,0,0,1-25.539,40.2c.23-.889.454-1.777.677-2.666,1.231-4.847,2.492-9.683,3.872-14.493.808-2.821,1.541-5.655,2.256-8.5.186-.764.379-1.529.578-2.318q.578-2.275,1.125-4.568c.174-.69.348-1.386.528-2.1.155-.621.3-1.243.466-1.883C-15.08.977-13.893,0-11.034-.011Z" transform="translate(251.32 462.935)" fill="#e70202"/>
      <path id="Path_28296" data-name="Path 28296" d="M0,0H21.13c3.493,6.992,3.493,6.992,4.636,9.676.242.572.485,1.137.733,1.721s.479,1.144.727,1.728c.379.895.379.895.764,1.8.615,1.448,1.231,2.89,1.84,4.338a14.25,14.25,0,0,0,2.977-4.99c.329-.746.659-1.5.994-2.268.348-.789.7-1.585,1.038-2.374s.7-1.585,1.044-2.374c.64-1.454,1.274-2.9,1.914-4.357.429-.976.876-1.945,1.355-2.9h21.13V10.565c-1.864,1.243-1.864,1.243-3.729,1.243-1.454.186-2.9.4-4.35.621l-1.46.131c-2.287.684-3.723,2.1-5.413,3.716-.485.435-.485.435-.976.882a33.288,33.288,0,0,0-5.2,6.457c-.5.292-1,.59-1.516.895a7.821,7.821,0,0,0-3.107,3.263c-1.367,2-1.367,2-3.3,2.486a25.648,25.648,0,0,1-7.613-2.915L22.994,26.1a15.01,15.01,0,0,0-3.145-.385c-.572-.05-1.144-.093-1.734-.143L16.78,25.48v1.243c-.5.249-.994.5-1.51.764-1.771.969-1.771.969-2.107,2.94-.062.7-.124,1.4-.186,2.125A13.445,13.445,0,0,1,9.322,41.21c-1.864,1.05-1.864,1.05-8.7,1.05Z" transform="translate(158.16 466.272)" fill="#fb0404"/>
      <path id="Path_28297" data-name="Path 28297" d="M0-.17Q7.159-.254,14.325-.3q3.328-.019,6.656-.056c2.144-.031,4.288-.044,6.432-.05,1.212-.006,2.418-.025,3.629-.044,4.456,0,7.458.3,11.218,2.766,1.622,1.908,2.424,3.02,2.641,5.519-.05.435-.1.87-.155,1.318-2.337,1.56-4.754,1.566-7.458,1.243q-1.37-.438-2.722-.932c-5.637-1.815-12.9-2.045-18.408.273a6.178,6.178,0,0,0-3.132,3.356,22.157,22.157,0,0,0-.6,4.139h4.35v7.458q2.1-.1,4.195-.236c1.168-.062,1.168-.062,2.362-.131a8.548,8.548,0,0,0,4.63-1.5,9.273,9.273,0,0,0,.621-3.107h4.35c2.175,3.828,2.349,7.532,1.243,11.808a7.426,7.426,0,0,1-2.486,2.486,9.557,9.557,0,0,1-3.182-.155,78.741,78.741,0,0,0-10.335-.5c-.5,0-1.007.006-1.529.006-1.2.006-2.4.019-3.6.031-.18.373-.367.74-.553,1.125-1.591,3.126-3.027,5.475-6.283,6.954a45.06,45.06,0,0,1-4.972,1.243c-1.15-1.15-.727-3.033-.752-4.574-.006-.41-.012-.82-.019-1.249-.019-1.367-.031-2.734-.05-4.1-.012-.951-.025-1.9-.037-2.84Q.339,26.2.292,22.457q-.047-3.822-.1-7.638Q.09,7.325,0-.17Z" transform="translate(493.754 466.442)" fill="#fc0808"/>
      <path id="Path_28298" data-name="Path 28298" d="M-5.278-.008c.485,0,.976-.006,1.479-.006,1.025,0,2.051,0,3.082.012Q1.642.008,4-.014C5-.014,6-.014,7-.008c.472-.006.938-.006,1.423-.012,3.225.044,3.225.044,4.717,1.056A18.215,18.215,0,0,1,14.9,4.486c.273.69.273.69.553,1.386.273.715.273.715.553,1.436a44.877,44.877,0,0,0,4.04,8.471c.236-.609.466-1.218.708-1.846C24.888,3.268,24.888,3.268,26.877.862,29.264-.014,31.793.129,34.3.117,34.776.111,35.248.1,35.739.1c1-.006,2-.012,3-.012,1.535-.006,3.07-.025,4.6-.044.976-.006,1.951-.012,2.921-.012.46-.006.92-.012,1.392-.025,3.182.019,3.182.019,4.518,1.032,1.411,1.852,1.069,4.139,1.05,6.376.006.547.006,1.088.012,1.647.006,1.8,0,3.592-.006,5.388,0,1.249.006,2.5.006,3.741q0,3.925-.012,7.843-.009,5.034.006,10.062.009,3.869,0,7.725c0,1.237,0,2.473.006,3.716.006,1.728,0,3.449-.012,5.177.006.516.006,1.032.012,1.56-.037,3.486-.037,3.486-1.081,4.823-1.678,1.293-3.288,1.056-5.37,1.069-.416.006-.839.006-1.274.012-.889,0-1.777,0-2.66-.006-1.361,0-2.716.012-4.077.037-.864,0-1.728,0-2.592-.006-.783.006-1.572.006-2.38.006-1.951-.311-1.951-.311-3.132-1.386a9.435,9.435,0,0,1-1-4.375c-.019-.553-.044-1.106-.068-1.672s-.025-1.144-.044-1.734-.037-1.162-.062-1.765c-.05-1.429-.093-2.865-.131-4.294-.267.547-.267.547-.541,1.112-.814,1.659-1.628,3.325-2.449,4.984-.28.578-.559,1.156-.851,1.753-.273.553-.547,1.106-.833,1.678-.249.51-.5,1.019-.758,1.547a10.066,10.066,0,0,1-2.647,3.219c-2.057.236-2.057.236-4.35-.621a36.216,36.216,0,0,1-3.692-6.873c-.3-.653-.609-1.3-.926-1.97q-1.128-2.405-2.219-4.829c-.006.385-.019.771-.025,1.168Q10,48.775,9.9,51.394c-.019.914-.019.914-.044,1.84-.019.584-.044,1.168-.068,1.765-.012.541-.031,1.075-.05,1.628a4.8,4.8,0,0,1-.969,2.517c-1.721,1.125-3.132,1-5.177,1.007-1.187,0-1.187,0-2.405.006-.41-.006-.82-.006-1.249-.012-1.255-.012-2.511,0-3.766.012-.8-.006-1.585-.006-2.405-.006-.727-.006-1.454-.006-2.206-.006a7.808,7.808,0,0,1-5.084-2.107,27.894,27.894,0,0,1-.4-5.32c-.006-.541-.012-1.081-.019-1.641-.012-1.8-.006-3.592.006-5.394-.006-1.243-.006-2.492-.012-3.741q0-3.915.019-7.843c.019-3.35.006-6.706-.012-10.062-.012-2.573-.006-5.146,0-7.725.006-1.237,0-2.473-.006-3.71-.006-1.728.006-3.455.025-5.183-.006-.51-.019-1.025-.025-1.554a18.021,18.021,0,0,1,.423-3.76C-11.02-.076-8.46-.032-5.278-.008Zm-5.133,3.356V56.795H6.99L7.612,33.8c.8,1.61,1.585,3.213,2.405,4.872.771,1.547,1.535,3.1,2.306,4.649l1.6,3.244c.764,1.554,1.535,3.1,2.306,4.655.236.485.479.969.721,1.473,1.081,2.467,1.081,2.467,3.089,4.1q2.358-4.577,4.711-9.16l1.6-3.114c.771-1.492,1.535-2.983,2.306-4.475.236-.466.479-.926.721-1.4l.677-1.318c.3-.572.3-.572.6-1.156q.914-1.8,1.815-3.611l.621,24.237h16.78V3.348H28.742c-1.206,2.6-2.411,5.2-3.648,7.886-.572,1.218-.572,1.218-1.15,2.467-.447.976-.447.976-.907,1.964-.3.665-.609,1.324-.926,2-.733,1.634-1.417,3.275-2.069,4.947a23.227,23.227,0,0,1-3.518-6.24c-.3-.721-.6-1.442-.907-2.181S15,12.7,14.684,11.931Q13.761,9.7,12.832,7.475c-.273-.659-.541-1.311-.82-1.989-.534-1.454-.534-1.454-1.293-2.138Z" transform="translate(168.569 462.925)" fill="#090400"/>
      <path id="Path_28299" data-name="Path 28299" d="M-11.053-.034c.69,0,1.386-.006,2.094-.006q2.191-.009,4.369,0C-2.359-.04-.128-.059,2.1-.071H6.348L8.374-.09c.615.006,1.237.006,1.871.012h1.647a4.217,4.217,0,0,1,3.263,2.094,19.58,19.58,0,0,1,.882,3.2c.137.621.273,1.249.416,1.9s.267,1.3.41,1.976c.218.969.218.969.435,1.958,1.187,5.537,1.187,5.537.342,8.371C16.4,20.661,16.4,20.661,14.2,20.8c-.945,0-1.883-.006-2.821-.019-.5-.006-.988-.006-1.5-.006-1.579-.006-3.163-.025-4.748-.037l-3.213-.019q-3.953-.019-7.893-.062V40.548H-.382V38.684c-.385-.062-.771-.131-1.168-.193-1.318-.429-1.318-.429-2.56-2.293a41.994,41.994,0,0,1-.236-5.867c-.012-.534-.031-1.069-.044-1.616-.006-.777-.006-.777-.006-1.566-.006-.466-.012-.938-.019-1.423.447-1.97,1.15-2.647,2.79-3.822a28.943,28.943,0,0,1,4.8-.311h1.4c.969,0,1.945.006,2.915.019,1.492.019,2.977.012,4.462.006l2.84.019c.441-.006.889-.006,1.349-.006,3.058.056,3.058.056,4.419,1.013,1.119,1.547,1.038,2.579,1.025,4.475v2.076c-.012.733-.019,1.473-.031,2.231s-.006,1.516-.006,2.293c-.012,2.418-.037,4.841-.056,7.259-.012,1.634-.019,3.275-.031,4.916q-.028,6.022-.087,12.057a25.07,25.07,0,0,1-6.5,2.592c-.5.106-1,.211-1.51.323s-1.019.205-1.547.311c-.5.112-1.007.218-1.529.336A38.379,38.379,0,0,1,.861,62.3L-.382,59.814l-1.454.019c-2.194.025-4.394.044-6.588.062-1.131.012-1.131.012-2.281.031-11.23.056-11.23.056-15.779-3.841-2.262-3.586-2.56-7.172-2.585-11.336-.006-.758-.012-1.51-.019-2.293-.006-.808-.006-1.616-.012-2.449V38.752q-.019-3.3-.019-6.594-.009-3.393-.037-6.774c-.012-1.746-.012-3.5-.019-5.245,0-1.231-.012-2.467-.025-3.7.012-4.742.261-8.514,2.915-12.572l.851-.839c.267-.292.541-.578.82-.87C-20.58-.326-15.615-.04-11.053-.034ZM-24,5.746a13.36,13.36,0,0,0-2.107,7.862c-.006.808-.012,1.616-.019,2.449.006.876.006,1.753.012,2.623,0,.907-.006,1.815-.006,2.716,0,1.9,0,3.791.012,5.68.006,2.424,0,4.841-.006,7.259-.006,1.871-.006,3.735,0,5.606,0,.895,0,1.784-.006,2.679-.006,1.249.006,2.5.012,3.747,0,.708,0,1.417.006,2.144a10.259,10.259,0,0,0,3.741,7.172c2.635,1.293,4.593,1.342,7.483,1.268.5,0,1.007-.006,1.529-.012,1.6-.012,3.207-.043,4.8-.075,1.094-.012,2.181-.025,3.275-.031q4-.047,7.992-.124v3.107c8.651-.659,8.651-.659,16.158-3.729.056-.97.075-1.945.068-2.921V51.275c0-.671-.006-1.349-.006-2.045s-.006-1.38-.006-2.088c0-2.212-.012-4.425-.019-6.631,0-1.5-.006-2.989-.006-4.481q-.009-5.509-.031-11.019H-1V36.2H2.1v6.836H-8.462l.621-24.859,22.994-.621A93.82,93.82,0,0,0,13.563,7.262c-.168-.758-.336-1.516-.51-2.293-.131-.566-.255-1.131-.385-1.709Q5.882,3.167-.9,3.123c-1.541-.012-3.076-.031-4.618-.05-2.212-.031-4.425-.044-6.637-.056l-2.076-.037C-18.231,2.98-20.829,3.2-24,5.746Z" transform="translate(419.561 463.012)" fill="#070600"/>
      <path id="Path_28300" data-name="Path 28300" d="M-4.342-.011C-3.273-.018-3.273-.018-2.185-.03c.764.006,1.523.006,2.312.012,1.181,0,1.181,0,2.386-.006,1.666,0,3.331,0,5,.012,2.132.006,4.257,0,6.389-.006,2.038-.012,4.077-.006,6.115,0L22.326-.03l2.156.019c.621,0,1.243,0,1.889.006A9.4,9.4,0,0,1,31.2,2.1,8.624,8.624,0,0,1,32.045,5c.106.566.205,1.137.311,1.715s.186,1.181.28,1.79c.106.584.211,1.168.317,1.765C34.289,18,34.289,18,32.909,20a8.158,8.158,0,0,1-3.573,1.361L30.579,22.6a23.744,23.744,0,0,1,.143,3.5c0,.69-.006,1.386-.006,2.1S30.7,29.658,30.7,30.41c-.006,1.094-.006,1.094-.006,2.212-.025,5.432-.025,5.432-.733,6.14l3.729,1.864A37.328,37.328,0,0,1,32.25,52.006c-.137.553-.267,1.112-.4,1.684-.137.528-.267,1.063-.41,1.61-.118.479-.236.957-.36,1.454a6.073,6.073,0,0,1-2.362,3.138,17.735,17.735,0,0,1-3.667.242l-2.281.019c-.814-.006-1.622-.012-2.461-.012s-1.69,0-2.529.006q-2.647,0-5.3-.012c-2.262-.012-4.524-.006-6.786.006q-2.61.009-5.22,0c-1.243,0-2.48.006-3.723.012-1.131-.012-1.131-.012-2.281-.019-.665-.006-1.33-.006-2.014-.006-1.92-.273-2.331-.615-3.511-2.1a47.571,47.571,0,0,1-.261-5.32c-.006-.541-.012-1.081-.019-1.641-.012-1.8-.012-3.6-.012-5.394q-.009-1.864-.012-3.741-.019-3.915-.006-7.843,0-5.025-.044-10.062-.019-3.859-.012-7.725l-.019-3.71q-.019-2.592,0-5.183c-.006-.51-.012-1.025-.025-1.554a17.8,17.8,0,0,1,.41-3.76C-8.984.175-7.107-.005-4.342-.011Zm-3.611,3.35V56.785H28.093c2.144-7.072,2.144-7.072,3.107-14.294H8.827V36.9H28.093V23.847H8.827V17.632H31.2A99.59,99.59,0,0,0,28.093,3.338Z" transform="translate(455.097 462.935)" fill="#060500"/>
      <path id="Path_28301" data-name="Path 28301" d="M-4.584,0C-3.82,0-3.055-.01-2.272-.01-1.079,0-1.079,0,.133.009L2.544-.01c1.144,0,1.144,0,2.312.006C5.552,0,6.248,0,6.963,0a6.127,6.127,0,0,1,4.319,2.107A13.1,13.1,0,0,1,12.569,4.4c.211.429.423.864.634,1.311s.423.9.64,1.367c.429.895.858,1.784,1.286,2.679.28.59.28.59.566,1.2a15.368,15.368,0,0,0,1.8,2.958c.006-.348.019-.7.025-1.056q.075-2.368.168-4.729c.012-.553.025-1.1.044-1.659.019-.528.044-1.056.068-1.6.012-.485.031-.969.044-1.473A3.94,3.94,0,0,1,19.983.245,22.54,22.54,0,0,1,24.178,0c.609,0,.609,0,1.231-.006.858,0,1.715,0,2.579.012q1.967.009,3.94-.012c.833,0,1.666,0,2.5.006.758,0,1.516.006,2.3.006,2.1.267,2.5.491,3.76,2.107a47.492,47.492,0,0,1,.23,5.314c0,.547.006,1.088.006,1.647q.009,2.694-.012,5.388V18.2q0,3.925-.019,7.843-.019,5.034-.006,10.062,0,3.869-.012,7.725v3.716q0,2.582-.019,5.177c0,.516.006,1.032.006,1.56-.025,2.405-.056,3.573-1.417,5.624a19.7,19.7,0,0,1-3.959.249c-.8,0-1.585,0-2.405.006-.416-.006-.833-.006-1.262-.012-1.262-.012-2.517,0-3.779.012-.8-.006-1.6-.006-2.418-.006-.733-.006-1.46-.006-2.212-.006a8.789,8.789,0,0,1-5.1-2.107,13.459,13.459,0,0,1-1.666-2.629q-.4-.746-.82-1.51c-.267-.522-.541-1.038-.82-1.572s-.559-1.05-.851-1.591Q12.917,48.8,11.9,46.855c-.012.783-.019,1.572-.031,2.38-.025,1.032-.056,2.063-.087,3.095-.006.516-.006,1.038-.012,1.572-.019.5-.037.994-.056,1.51-.012.69-.012.69-.025,1.392-.41,1.237-.41,1.237-1.753,2.318A12.13,12.13,0,0,1,4.284,60.13H2.06C1.3,60.117.531,60.111-.259,60.1c-.764,0-1.529.006-2.318.006-6.494-.037-6.494-.037-8.514-1.442a21.81,21.81,0,0,1-.746-7.066c0-.534-.006-1.063-.012-1.61-.019-1.759-.025-3.511-.037-5.27,0-.6-.006-1.2-.006-1.815q-.028-4.754-.037-9.508-.019-4.922-.075-9.838-.028-3.775-.031-7.551c0-1.212-.012-2.418-.025-3.629-.019-1.69-.019-3.375-.019-5.065-.006-.5-.019-1.007-.031-1.523a16.847,16.847,0,0,1,.4-3.679C-9.425.158-7.536,0-4.584,0ZM-8.6,3.352V56.8H8.175L8.8,35.669c1.125,1.989,2.256,3.971,3.418,6.022.7,1.193,1.4,2.393,2.113,3.586a35.631,35.631,0,0,1,2.94,6.109c.895,2.592.895,2.592,3.959,5.413h16.78V3.352H21.226L20.6,26.347,15.632,16.4c-1.1-2.045-2.2-4.077-3.344-6.1-.392-.715-.392-.715-.8-1.436C10.437,6.982,9.374,5.154,8.175,3.352Z" transform="translate(291.682 462.921)" fill="#080400"/>
      <path id="Path_28302" data-name="Path 28302" d="M-28.011,0h.621V53.446h-16.78c-2.554-2.685-3.281-3.493-4.4-6.668a49.232,49.232,0,0,0-3.462-6.488c-1.554-2.641-3.058-5.307-4.568-7.973l-.621,21.13H-74V9.944h.621V41.639a9.061,9.061,0,0,0,5.32.155c.479-.1.951-.2,1.442-.3a5.883,5.883,0,0,0,3.182-2.343,9.933,9.933,0,0,0,.7-2.679c.1-.5.2-.988.3-1.5.2-1.15.342-2.312.479-3.474a5.478,5.478,0,0,1,2.871-4.158,9.981,9.981,0,0,1,7.34.037c1.529.764,3.008,1.566,4.468,2.449v1.243h1.243a16.629,16.629,0,0,1,3.884,5.711c1.429,2.3,2.734,2.585,5.27,3.294,1.119.249,2.256.447,3.393.628,1.746.311,1.746.311,5.475,2.175Z" transform="translate(357.075 466.272)" fill="#db0000"/>
      <path id="Path_28303" data-name="Path 28303" d="M-4.4-.011C-3.31-.018-3.31-.018-2.191-.03c.783.006,1.566.006,2.374.012,1.218,0,1.218,0,2.461-.006,1.715,0,3.431,0,5.146.012,2.188.006,4.375,0,6.563-.006,2.1-.012,4.2-.006,6.3,0,.783-.006,1.56-.006,2.368-.012C28.578.014,33.1.529,37.266,4.581c3.319,4.624,2.666,10.285,2.7,15.736.012,1.025.031,2.057.05,3.089.242,10.391.242,10.391-3.375,14.735-.746,2.237-.441,2.741.4,4.885.23.59.454,1.181.69,1.79q.727,1.855,1.46,3.71c2.306,6.041,2.306,6.041,1.8,9.5a4.547,4.547,0,0,1-1.864,1.864,35.378,35.378,0,0,1-4.58.267c-.447.006-.895.006-1.355.012-.945,0-1.889,0-2.828-.006q-2.163,0-4.325.037c-.92,0-1.84,0-2.753-.006-.435.012-.864.019-1.305.025a6.864,6.864,0,0,1-4.835-1.442,10.755,10.755,0,0,1-1.933-3.791c-.137-.441-.267-.882-.4-1.336s-.255-.907-.385-1.373-.273-.926-.416-1.4c-.336-1.137-.659-2.275-.982-3.412-.025.69-.044,1.38-.068,2.088-.044.907-.081,1.815-.124,2.728-.019.677-.019.677-.044,1.373-.131,2.672-.28,4.369-2.25,6.24a16.672,16.672,0,0,1-4.151.3c-.4.006-.808.006-1.224.006-.851,0-1.7-.006-2.56-.025q-1.948-.019-3.9,0c-7.458-.037-7.458-.037-9.919-2.15a28.416,28.416,0,0,1-.4-5.32c0-.541-.006-1.081-.012-1.641-.012-1.8-.006-3.6.006-5.394-.006-1.243-.006-2.492-.012-3.741q0-3.915.019-7.843c.019-3.35.006-6.706-.012-10.062-.012-2.573-.006-5.146,0-7.725.006-1.237,0-2.473-.006-3.71-.006-1.728.006-3.455.019-5.183-.006-.51-.012-1.025-.019-1.554a18.022,18.022,0,0,1,.423-3.76C-9.108.15-7.194-.005-4.4-.011Zm-3.7,3.35V56.785H9.3V40.627l4.35.621q.876,2.312,1.746,4.624c.168.423.329.851.5,1.293,1.2,3.188,2.275,6.382,3.35,9.62H38.509c-1.156-3.859-2.312-7.625-3.729-11.379-.155-.423-.3-.845-.466-1.274a32.874,32.874,0,0,0-3.263-6.612q.69-.214,1.4-.429a9.541,9.541,0,0,0,4.195-3.921c1.069-3.2.764-6.619.771-9.962.006-1.324.025-2.647.044-3.977.037-4.412,0-8.185-2.057-12.162a12.092,12.092,0,0,0-8-3.878c-.653,0-1.311.006-1.982.006H23.122l-2.393.019c-1.094.006-1.094.006-2.212.006-2.722.006-5.444.025-8.166.037C1.215,3.3,1.215,3.3-8.1,3.338Z" transform="translate(501.854 462.935)" fill="#080600"/>
      <path id="Path_28304" data-name="Path 28304" d="M-6.056,0H18.8c1.864,7.458,1.864,7.458,1.243,10.565a15.88,15.88,0,0,1-6.948.168c-2.231-.211-4.45-.292-6.687-.323-.8-.019-1.6-.031-2.424-.05-.646.068-1.3.137-1.964.205L.78,12.429c-1.224.659-2.467,1.286-3.729,1.864v1.864a6.983,6.983,0,0,1-.621,3.573,17.616,17.616,0,0,0-.621,6.37l2.486-1.243.621,5.593,3.729,1.243-.621,4.35h8.7v.621l-6.836.621v.621l6.836.621v.621q-2.386.028-4.779.037l-1.355.019a30.732,30.732,0,0,1-6.917-.677A32.755,32.755,0,0,0-10.407,40.4c-.541.1-1.075.205-1.628.311A14.43,14.43,0,0,0-16,42.26a47.183,47.183,0,0,1,2-11.224c1.821-6.4,3.431-12.846,5.028-19.3C-8.008,7.862-7.045,3.99-6.056,0Z" transform="translate(244.386 466.272)" fill="#fb0808"/>
      <path id="Path_28305" data-name="Path 28305" d="M-6.056,0H18.8c1.864,7.458,1.864,7.458,1.243,10.565a15.88,15.88,0,0,1-6.948.168c-2.231-.211-4.45-.292-6.687-.323-.8-.019-1.6-.031-2.424-.05-.646.068-1.3.137-1.964.205L.78,12.429c-1.224.659-2.467,1.286-3.729,1.864v1.864a6.983,6.983,0,0,1-.621,3.573,17.616,17.616,0,0,0-.621,6.37l2.486-1.243.621,5.593,3.729,1.243-.621,4.35h8.7v.621l-6.836.621v.621l6.836.621v.621c-7.831.106-7.831.106-10.8-.348-3.754-.454-6.805.367-10.329,1.591-1.032.224-2.069.429-3.107.621-.827.205-1.659.41-2.486.621a51.4,51.4,0,0,1,2.007-10.714c1.206-4.182,2.331-8.371,3.387-12.6.118-.485.236-.969.36-1.467Q-9.6,14.3-8.971,11.733C-8.008,7.862-7.045,3.99-6.056,0Z" transform="translate(355.629 466.272)" fill="#fb0808"/>
      <path id="Path_28306" data-name="Path 28306" d="M-11.062-.011-9.5-.03c.553.006,1.112.006,1.684.012s1.144-.006,1.734-.006c1.206,0,2.418,0,3.629.012Q.329,0,3.107-.024c1.181,0,2.355,0,3.53.006C7.19-.024,7.743-.024,8.321-.03c.771.012.771.012,1.56.019.684,0,.684,0,1.38.006a4.223,4.223,0,0,1,3.064,2.1,15.51,15.51,0,0,1,.845,2.772c.211.839.211.839.423,1.7.143.609.292,1.218.435,1.846.236.951.236.951.472,1.914q.746,3.048,1.479,6.1.96,3.971,1.933,7.949c.162.646.317,1.293.479,1.958,1.28,5.214,2.685,10.385,4.151,15.549,3.344,11.851,3.344,11.851,2.834,16.767-1.523,1.523-2.393,1.4-4.481,1.429H21.571c-.454,0-.9.006-1.367.006-.951.006-1.908.006-2.859,0q-2.191,0-4.381.031H10.192l-1.33.019a21.405,21.405,0,0,1-3.238-.242C4.381,58.028,4.381,58.028,3.76,54.92L-5.562,54.3v4.35c-1.547,1.547-2.461,1.392-4.574,1.417l-1.367-.012c-.466.006-.932.006-1.4.006-.988,0-1.97,0-2.952-.006-1.5-.006-3.008,0-4.512.006-.957,0-1.908,0-2.865-.006-.447.006-.9.006-1.367.012-3.188-.031-3.188-.031-4.574-1.417-.4-5.631,1.871-11.677,3.263-17.09.261-1.019.516-2.032.777-3.051,1.324-5.214,2.666-10.422,4.151-15.593.8-2.778,1.523-5.562,2.219-8.365.193-.771.385-1.535.584-2.324.379-1.523.758-3.045,1.125-4.574.174-.69.348-1.386.528-2.1.155-.621.3-1.243.466-1.883C-15.108.977-13.921,0-11.062-.011Zm-1.958,3.35c-.59,2.38-1.181,4.767-1.8,7.221-.479,1.933-.963,3.866-1.442,5.8q-.755,3.039-1.51,6.066c-2.045,8.234-4.089,16.45-6.42,24.6a35.747,35.747,0,0,0-1.883,9.757h17.4c1.342-3.368,1.342-3.368,1.243-5.593H6.246c.311,2.766.311,2.766.621,5.593H24.89c-.945-5.37-.945-5.37-2.212-10.6-.186-.671-.367-1.349-.559-2.045-.2-.727-.4-1.448-.609-2.194-2.331-8.564-4.462-17.165-6.563-25.791-.155-.634-.311-1.274-.466-1.927Q13.156,8.782,11.839,3.338Z" transform="translate(362.591 462.935)" fill="#090600"/>
      <path id="Path_28307" data-name="Path 28307" d="M-11.034-.011-9.468-.03c.553.006,1.112.006,1.684.012S-6.64-.024-6.05-.024c1.206,0,2.418,0,3.629.012Q.357,0,3.135-.024c1.181,0,2.355,0,3.53.006C7.218-.024,7.772-.024,8.35-.03c.771.012.771.012,1.56.019.684,0,.684,0,1.38.006a4.223,4.223,0,0,1,3.064,2.1A15.511,15.511,0,0,1,15.2,4.867c.211.839.211.839.423,1.7.143.609.292,1.218.435,1.846.236.951.236.951.472,1.914q.746,3.048,1.479,6.1.96,3.971,1.933,7.949c.162.646.317,1.293.479,1.958C21.7,31.547,23.1,36.718,24.57,41.882c3.4,12.063,3.4,12.063,2.834,16.767-3.027,2.02-6.588,1.448-10.13,1.436q-2.042,0-4.077.031H10.605c-.783,0-1.572.006-2.38.006-1.951-.23-1.951-.23-3.114-.982-.7-1.112-.7-1.112-1.324-4.22L-5.534,54.3v3.729A3.55,3.55,0,0,1-7.4,59.892a22.09,22.09,0,0,1-4.151.249c-.4,0-.808,0-1.224.006-.851,0-1.7-.006-2.56-.012-1.3-.012-2.6,0-3.9.012-.833,0-1.666-.006-2.492-.006-.752-.006-1.51-.006-2.281-.006a9.713,9.713,0,0,1-5.146-2.107A152.769,152.769,0,0,1-25.539,40.2c.23-.889.454-1.777.677-2.666,1.231-4.847,2.492-9.683,3.872-14.493.808-2.821,1.541-5.655,2.256-8.5.186-.764.379-1.529.578-2.318q.578-2.275,1.125-4.568c.174-.69.348-1.386.528-2.1.155-.621.3-1.243.466-1.883C-15.08.977-13.893,0-11.034-.011Zm-1.958,3.35c-.59,2.38-1.181,4.767-1.8,7.221-.479,1.933-.963,3.866-1.442,5.8q-.755,3.039-1.51,6.066c-2.045,8.234-4.089,16.45-6.42,24.6a35.748,35.748,0,0,0-1.883,9.757h17.4C-7.3,53.416-7.3,53.416-7.4,51.192H6.274c.311,2.766.311,2.766.621,5.593H24.918c-.945-5.37-.945-5.37-2.212-10.6-.186-.671-.367-1.349-.559-2.045-.2-.727-.4-1.448-.609-2.194-2.331-8.564-4.462-17.165-6.563-25.791-.155-.634-.311-1.274-.466-1.927Q13.185,8.782,11.867,3.338Z" transform="translate(251.32 462.935)" fill="#080600"/>
      <path id="Path_28308" data-name="Path 28308" d="M-.054,0h21.13c3.493,6.992,3.493,6.992,4.636,9.676.242.572.485,1.137.733,1.721s.479,1.144.727,1.728c.379.895.379.895.764,1.8.615,1.448,1.231,2.89,1.84,4.338a14.25,14.25,0,0,0,2.977-4.99c.329-.746.659-1.5.994-2.268.348-.789.7-1.585,1.038-2.374s.7-1.585,1.044-2.374C36.47,5.8,37.1,4.357,37.744,2.9,38.173,1.927,38.62.957,39.1,0h21.13V6.215a19.119,19.119,0,0,1-8.937,2.834c-2.125.025-2.125.025-2.871.895-1.56.3-3.126.559-4.692.808a5.145,5.145,0,0,0-3.387,2.3C39.372,14.81,38.49,16.6,37.607,18.4c-.994,1.492-.994,1.492-2.355,2.014-.373.031-.746.062-1.125.1l-.621,2.486c-6.681.534-6.681.534-9.086-1.436a6.888,6.888,0,0,1-2.1-3.536L21.076,17.4a19.3,19.3,0,0,1-.7-2.834c-.162-.771-.162-.771-.317-1.56-.112-.59-.112-.59-.23-1.2a36.615,36.615,0,0,0-9.285-1.479c-3.567-.218-7.079-.6-9.981-2.871C-.489,5.09-.054,2.6-.054,0Z" transform="translate(158.214 466.272)" fill="#fc2020"/>
      <path id="Path_28309" data-name="Path 28309" d="M0,0H16.78c1.243,2.181,2.486,4.357,3.766,6.6.385.671.764,1.336,1.162,2.026,2.679,4.723,5.059,9.484,7.5,14.368L29.831,0H45.989V8.7A76.551,76.551,0,0,1,39,12.392,7.188,7.188,0,0,0,34.8,16.78c-.05.7-.106,1.411-.155,2.138-.578,2.747-1.591,3.555-3.7,5.276-1.112.665-1.112.665-2.977.665V26.1h1.243l-.621,1.864a10.31,10.31,0,0,1-6.215-2.486,10.508,10.508,0,0,0-2.486-.621l.621-1.864c-.36-.423-.715-.845-1.088-1.28-1.653-2.163-2.132-4.058-2.759-6.668-.429-1.591-.429-1.591-2.368-2.616-1.927-.23-3.834-.317-5.773-.41-1.684-.211-1.684-.211-2.927-1.454Q3.431,9.6,1.243,8.7L0,9.944Z" transform="translate(283.075 466.272)" fill="#fd1c1c"/>
      <path id="Path_28310" data-name="Path 28310" d="M-9.726-.133V1.11h1.243V2.353L-6,3.6v4.35h1.243l-.621,3.729,1.864.621c-1.168,2.057-2.343,4.114-3.573,6.14-.827,1.15-.827,1.15-.777,1.939h-3.107l.621,4.35h-8.7l.621-4.35-1.479.075c-1.628-.075-1.628-.075-2.871-1.318a42.946,42.946,0,0,1-.621-4.972l-1.864.621c-.7-3.8-.715-5.873,1.243-9.322a10.358,10.358,0,0,0,0-3.107C-19.732-1.078-14.94-.357-9.726-.133Z" transform="translate(265.456 477.591)" fill="#f90000"/>
      <path id="Path_28311" data-name="Path 28311" d="M-14.528,0C-13.987,0-13.44,0-12.881,0-7.319.091-1.465.626,3.725,2.757c1.877.727,3.188.311,5.127-.081l1.243.621c.211-.82.41-1.641.621-2.486q.475,1.808.932,3.611c.174.671.348,1.342.528,2.032a11.3,11.3,0,0,1,.4,3.679H-5.442c-.3-2.766-.3-2.766-.621-5.593H-19.736c-.205,1.641-.4,3.281-.621,4.972-.621.621-.621.621-2.287.7-.727-.006-1.448-.006-2.2-.012-.783,0-1.566-.006-2.374-.006-.833-.006-1.666-.012-2.5-.012s-1.672-.006-2.5-.012q-3.076-.009-6.159-.031c.621-5.457.621-5.457,1.864-7.458.205.615.416,1.231.621,1.864A81.753,81.753,0,0,0-22.4.769,26.99,26.99,0,0,1-14.528,0Z" transform="translate(374.898 509.583)" fill="#c90000"/>
      <path id="Path_28312" data-name="Path 28312" d="M0,0C5.2.186,9.77.46,14.76,1.9c5.8,1.672,11.572,1.429,17.557,1.206V2.486L37.91,1.243l-1.864,8.7H0Z" transform="translate(447.143 509.775)" fill="#cf0000"/>
      <path id="Path_28313" data-name="Path 28313" d="M-26.907,0h.621V31.074a87.472,87.472,0,0,1-10.18,2.915c-1.1.23-1.1.23-2.225.472a14.067,14.067,0,0,1-3.754.342V31.695l-2.051.037c-2.523.05-5.046.075-7.57.1-1.088.012-2.181.031-3.269.05-1.572.031-3.138.044-4.711.056l-1.467.037a10.18,10.18,0,0,1-7.657-2.766,9.669,9.669,0,0,1-1.864-6.836l2.486,1.243v1.243l1.044.05c1.566.068,3.138.143,4.7.224l1.641.075,1.591.075c.727.037.727.037,1.46.068a10.355,10.355,0,0,1,2.548.447,26.378,26.378,0,0,0,6.606.3c1.05-.012,2.107-.019,3.163-.031q2.48-.028,4.966-.068,2.4-.037,4.8-.056c.491-.012.988-.025,1.492-.031.7-.006.7-.006,1.411-.006l1.224-.019c1.255.218,1.255.218,4.363,2.082Z" transform="translate(464.728 488.024)" fill="#bd0000"/>
      <path id="Path_28314" data-name="Path 28314" d="M-.026-.045Q7-.064,14.038-.076c2.181-.006,4.357-.006,6.532-.019q3.757-.009,7.5-.012c.789,0,1.572-.006,2.38-.006h2.188C33.6-.12,33.6-.12,34.577-.12c1.442.075,1.442.075,2.063.7.044.945.05,1.889.037,2.834-.006.516-.012,1.032-.012,1.56-.012.392-.019.789-.025,1.2l-1.585.025q-2.936.065-5.879.137c-.839.025-1.684.037-2.529.056-6.445.068-6.445.068-12.38,2.268-4.667,1.318-8.259.8-12.56-1.2A3.085,3.085,0,0,1-.026,5.548c-.044-.957-.05-1.914-.037-2.871.006-.51.012-1.019.012-1.541C-.039.744-.032.359-.026-.045Z" transform="translate(447.169 466.318)" fill="#fd1d1d"/>
      <path id="Path_28315" data-name="Path 28315" d="M-.8,0H24.062a20.9,20.9,0,0,1,.777,4.972c.019.41.031.82.05,1.243a5.45,5.45,0,0,1-2.069,3.729,35.338,35.338,0,0,1-5.307.286H15.945c-1.1-.006-2.194-.012-3.288-.031q-2.526-.028-5.04-.025l-3.194-.019c-.5-.006-1.007-.006-1.529-.006C-.654,10.086-.654,10.086-2.04,8.7-2.3,5.338-1.76,3.381-.8,0Z" transform="translate(350.369 466.272)" fill="#fd2626"/>
      <path id="Path_28316" data-name="Path 28316" d="M-.8,0H24.062a20.9,20.9,0,0,1,.777,4.972c.019.41.031.82.05,1.243a5.45,5.45,0,0,1-2.069,3.729,35.338,35.338,0,0,1-5.307.286H15.945c-1.1-.006-2.194-.012-3.288-.031q-2.526-.028-5.04-.025l-3.194-.019c-.5-.006-1.007-.006-1.529-.006C-.654,10.086-.654,10.086-2.04,8.7-2.3,5.338-1.76,3.381-.8,0Z" transform="translate(239.126 466.272)" fill="#fd2626"/>
      <path id="Path_28317" data-name="Path 28317" d="M-.054-.17Q6.984-.254,14.029-.3,17.3-.32,20.573-.357C23.083-.388,25.594-.4,28.1-.413L30.46-.45c4.431-.006,7.346.392,11.124,2.766A12.973,12.973,0,0,1,40.963,4.8C38.079,6.231,35.426,6.094,32.3,5.808c-.938-.068-1.871-.131-2.809-.2-.472-.031-.938-.068-1.423-.1-6.743-.485-6.743-.485-13.362.534A17.586,17.586,0,0,1,3.364,5.808Q1.649,4.7-.054,3.558A19.652,19.652,0,0,1-.054-.17Z" transform="translate(494.429 466.443)" fill="#fe2f2f"/>
      <path id="Path_28318" data-name="Path 28318" d="M-15.963,0h.621c.311,1.5.621,3,.932,4.506.087.423.18.845.267,1.286a28.732,28.732,0,0,1,.665,6.016l-22.994.621-.621,23.616h-.621V20.509L-40.2,19.266c-1.784-1.784-1.759-3.418-1.97-5.873.174-2.629,1.274-3.6,3.213-5.314h1.243V6.836A54.685,54.685,0,0,1-23.035,5.519l2.256.012q2.713.028,5.438.062V3.729h-5.593V3.107h3.729V1.864h1.243Z" transform="translate(448.191 468.758)" fill="#da0000"/>
      <path id="Path_28319" data-name="Path 28319" d="M-4.293,0h1.958c.7.012,1.386.019,2.094.031,1.069,0,1.069,0,2.163.006C4.2.049,6.465.068,8.74.093c1.541.012,3.089.019,4.63.025q5.668.037,11.336.093v4.35c-1.641.82-2.921.733-4.754.777-.715.019-1.429.037-2.169.062-1.5.037-2.989.068-4.487.106A78.416,78.416,0,0,0-3.882,7.669c-2.728.23-5.1.329-7.458-1.243a18.516,18.516,0,0,1,.621-4.35A8.962,8.962,0,0,1-4.293,0Z" transform="translate(407.523 466.061)" fill="#fd2c2c"/>
      <path id="Path_28320" data-name="Path 28320" d="M-3.943-.076c.348.143.69.28,1.05.429V1.6c1.535.615,1.535.615,3.107,1.243.118,1.231.242,2.467.36,3.7C.786,8,.786,8,2.079,9.675c-.3.242-.59.485-.895.74A6.8,6.8,0,0,0-.407,14.646l2.486.621H.214l.621,6.215h-8.7l.621-6.836H-8.486V13.4h-1.864A25.651,25.651,0,0,1-8.486,1.6C-5.938-.343-5.938-.343-3.943-.076Z" transform="translate(365.518 480.836)" fill="#e10000"/>
      <path id="Path_28321" data-name="Path 28321" d="M-3.943-.076c.348.143.69.28,1.05.429V1.6c1.535.615,1.535.615,3.107,1.243.118,1.231.242,2.467.36,3.7C.786,8,.786,8,2.079,9.675c-.3.242-.59.485-.895.74A6.8,6.8,0,0,0-.407,14.646l2.486.621H.214l.621,6.215h-8.7l.621-6.836H-8.486V13.4h-1.864A25.651,25.651,0,0,1-8.486,1.6C-5.938-.343-5.938-.343-3.943-.076Z" transform="translate(254.275 480.836)" fill="#e10000"/>
      <path id="Path_28322" data-name="Path 28322" d="M0-.068,4.586-.143,6.022-.18c1.1-.006,2.2.05,3.3.112,1.243,1.243,1.243,1.243,1.367,3.269-.019.789-.031,1.585-.05,2.4s-.019,1.6-.031,2.418c-.012.615-.031,1.224-.044,1.858-2.231,1.4-4.083,1.373-6.681,1.318L0,11.118Z" transform="translate(511.155 480.013)" fill="#080500"/>
      <path id="Path_28323" data-name="Path 28323" d="M0,0H29.209l-.621,1.864a8.63,8.63,0,0,1-2.411.659c-.51.1-1.019.193-1.547.292s-1.081.193-1.634.292c-.5.118-.988.23-1.5.354A53.53,53.53,0,0,1,10.41,4.543L8.986,4.58A15.234,15.234,0,0,1,.621,2.486Z" transform="translate(450.872 466.272)" fill="#ff3535"/>
      <path id="Path_28324" data-name="Path 28324" d="M-.306,0H18.338c-.715,2.859-.715,2.859-2.741,4.164C12.534,5.947,9.7,6.078,6.22,6.1l-1.728.05C3.1,6.184,1.708,6.2.316,6.215-1.294,3.754-.859,3.319-.306,0Z" transform="translate(197.618 466.272)" fill="#fe3232"/>
      <path id="Path_28325" data-name="Path 28325" d="M-2.271,0l1.243.621A32.789,32.789,0,0,1-.09,4.444C.072,5.22.24,6,.407,6.8c.168.827.336,1.659.5,2.486s.348,1.647.522,2.473C2.7,17.811,2.7,17.811,2.7,19.266H-6C-4.993,12.79-3.651,6.4-2.271,0Z" transform="translate(363.652 483.052)" fill="#0c0800"/>
      <path id="Path_28326" data-name="Path 28326" d="M-2.271,0l1.243.621A32.789,32.789,0,0,1-.09,4.444C.072,5.22.24,6,.407,6.8c.168.827.336,1.659.5,2.486s.348,1.647.522,2.473C2.7,17.811,2.7,17.811,2.7,19.266H-6C-4.993,12.79-3.651,6.4-2.271,0Z" transform="translate(252.408 483.052)" fill="#0c0800"/>
      <path id="Path_28327" data-name="Path 28327" d="M-12.113,0h.621V13.051H-30.757v-.621l16.158-.621L-13.356,8.7c-2.436-.019-4.866-.031-7.3-.037l-2.094-.019c-.665,0-1.33,0-2.014-.006-.92-.006-.92-.006-1.852-.006a6.711,6.711,0,0,0-3.039.46c-.36.075-.727.149-1.1.23L-32,8.079a20.106,20.106,0,0,1,6.059-.7c.69,0,1.373-.006,2.076-.006l2.156.012c.715-.006,1.429-.006,2.163-.012.69,0,1.373.006,2.076.006h1.9a8.76,8.76,0,0,1,3.462.7Z" transform="translate(494.68 486.781)" fill="#ca0000"/>
      <path id="Path_28328" data-name="Path 28328" d="M-.379,0,3.35,1.864V3.107L7.7,4.35V5.593c.516.174,1.032.342,1.56.522C15,8.029,15,8.029,20.751,9.944v1.243C12.753,10.478,5.9,6.271-1,2.486Z" transform="translate(277.86 176.046)" fill="#ffc8c8"/>
      <path id="Path_28329" data-name="Path 28329" d="M0,0,21.13.621l-.621,2.486A7.914,7.914,0,0,1,15.3,4.114c-.5-.186-.5-.186-1.007-.385l3.729-1.243-1.386-.093c-2.076-.143-4.151-.3-6.227-.454C9.689,1.9,8.968,1.846,8.228,1.8l-2.1-.162c-.64-.044-1.274-.087-1.933-.137C2.486,1.243,2.486,1.243,0,0Z" transform="translate(327.821 185.989)" fill="#ffaeae"/>
      <path id="Path_28330" data-name="Path 28330" d="M0,0H4.972V4.972H0Z" transform="translate(514.262 483.052)" fill="#f8f800"/>
      <path id="Path_28331" data-name="Path 28331" d="M-7.571,0l1.243.621q-2.619,2.657-5.245,5.307c-.59.6-1.187,1.206-1.777,1.815q-1.277,1.3-2.567,2.585c-.516.522-1.025,1.044-1.56,1.579-1.28,1.144-1.28,1.144-2.523,1.144,1.013-2.573,2.877-4.282,4.816-6.177.317-.317.64-.634.963-.963C-12.095,3.81-9.889,1.883-7.571,0Z" transform="translate(291.267 245.65)" fill="#ffcfcf"/>
      <path id="Path_28332" data-name="Path 28332" d="M-3.028,0l1.243.621-.621,1.243H10.644v.621q-3.086.317-6.177.621c-.572.062-1.15.118-1.74.18A92.309,92.309,0,0,1-8,3.729V2.486c.8-.435,1.6-.858,2.411-1.28C-5.147.963-4.7.727-4.24.485-3.836.323-3.438.162-3.028,0Z" transform="translate(156.216 191.582)" fill="#ff4a4a"/>
      <path id="Path_28333" data-name="Path 28333" d="M-1.923,0H-1.3A42.521,42.521,0,0,1-2.544,11.808l-.621.621c-.249,1.566-.466,3.126-.659,4.7-.056.441-.112.882-.174,1.342l-.41,3.281H-5.03A53.606,53.606,0,0,1-3.476,7.383c.149-.715.3-1.429.447-2.163Q-2.479,2.61-1.923,0Z" transform="translate(422.964 368.701)" fill="#ff8484"/>
      <path id="Path_28334" data-name="Path 28334" d="M-2.65,0H-.785l.621,3.107L-.785,1.864a8.164,8.164,0,0,0-2.8,4.586,21.52,21.52,0,0,1-2.8,5.979L-7,11.186a15.727,15.727,0,0,1,1.125-2.25,29.13,29.13,0,0,0,2.6-7.694Z" transform="translate(332.957 242.543)" fill="#ffe351"/>
      <path id="Path_28335" data-name="Path 28335" d="M-1.136,0h.621V13.051h-.621l-.621-8.7c-.615.311-.615.311-1.243.621A26.476,26.476,0,0,1-1.136,0Z" transform="translate(199.069 506.668)" fill="#e1e100"/>
      <path id="Path_28336" data-name="Path 28336" d="M-2.737,0c.746,0,.746,0,1.51.006S-.45.012.346.024c.522,0,1.05,0,1.591.006C3.229.037,4.528.049,5.821.062V.683Q3.612,1,1.39,1.3c-.41.056-.827.118-1.249.18a45.721,45.721,0,0,1-7.371.441V.683A11.879,11.879,0,0,1-2.737,0Z" transform="translate(152.339 194.629)" fill="#ffaeae"/>
      <path id="Path_28337" data-name="Path 28337" d="M-4.164-.62V.623C-6.687.331-8.806.076-11-1.241-8.359-2.124-6.824-1.359-4.164-.62Z" transform="translate(302.776 186.609)" fill="#ff9494"/>
      <path id="Path_28338" data-name="Path 28338" d="M-.757,0c.118.6.118.6.236,1.206.186.634.186.634.385,1.28l1.243.621A34.24,34.24,0,0,1-.757,6.215H-2C-1.584,4.145-1.173,2.069-.757,0Z" transform="translate(313.041 135.028)" fill="#ffc5c5"/>
      <path id="Path_28339" data-name="Path 28339" d="M0,0H1.864l.621,1.864H1.243v4.35H.621Z" transform="translate(267.538 276.724)" fill="#ffe55f"/>
      <path id="Path_28340" data-name="Path 28340" d="M-1.893,0V1.864L-.65,3.107-5,3.729C-4.3,1.616-3.676,1.212-1.893,0Z" transform="translate(379.431 182.26)" fill="#ffc2c2"/>
      <path id="Path_28341" data-name="Path 28341" d="M-.379,0,5.836.621v.621L-1,1.864Z" transform="translate(357.409 194.068)" fill="#ff4242"/>
    </g>
  </g>
</svg>
