<svg id="splashlogo" xmlns="http://www.w3.org/2000/svg" width="281.501" height="251.124" viewBox="0 0 281.501 251.124">
  <path id="Path_5852" data-name="Path 5852" d="M22.388-61.541a9.521,9.521,0,0,0,3.96,5.965A14.035,14.035,0,0,0,33.8-53.827a35.35,35.35,0,0,0,6.685-.72,40.382,40.382,0,0,0,7.3-2.16,32.949,32.949,0,0,1,2.52,6.376A30.2,30.2,0,0,1,51.5-42.617a53.445,53.445,0,0,1-18.719,3.394,35.11,35.11,0,0,1-12.7-2.057,22.535,22.535,0,0,1-8.639-5.708A22.911,22.911,0,0,1,6.5-55.678,36.326,36.326,0,0,1,4.905-66.683,35.9,35.9,0,0,1,6.549-77.689a25.277,25.277,0,0,1,4.937-8.948,23.28,23.28,0,0,1,8.226-6.017,27.958,27.958,0,0,1,11.519-2.211,24.213,24.213,0,0,1,9.719,1.851A21.161,21.161,0,0,1,48.2-87.923a22.114,22.114,0,0,1,4.577,7.817,29.979,29.979,0,0,1,1.593,9.925,43.534,43.534,0,0,1-.257,4.988q-.257,2.211-.463,3.651ZM30.616-81.8a8.333,8.333,0,0,0-5.657,2.057q-2.366,2.056-2.777,6.376H38.638a10.041,10.041,0,0,0-2.213-6.016A7.12,7.12,0,0,0,30.616-81.8Zm61.4-3.806q4.32,1.749,7.765,3.548a23.3,23.3,0,0,1,5.915,4.32,17.228,17.228,0,0,1,3.806,6.068,24.427,24.427,0,0,1,1.337,8.589,24.368,24.368,0,0,1-1.9,9.822,20.4,20.4,0,0,1-5.605,7.507,25.907,25.907,0,0,1-9.1,4.834,41.347,41.347,0,0,1-12.393,1.7,55.07,55.07,0,0,1-11.262-1.028A70.5,70.5,0,0,1,60.032-43.44a58.322,58.322,0,0,1,1.44-7.662q1.028-4.063,2.467-8.279Q73.4-55.268,80.4-55.268a17.309,17.309,0,0,0,8.177-1.593q2.93-1.593,2.934-5.5a6.043,6.043,0,0,0-.618-2.827A6.227,6.227,0,0,0,89.242-67.2a10.364,10.364,0,0,0-2.314-1.389q-1.286-.566-2.623-1.08l-5.76-2.16a37.062,37.062,0,0,1-6.737-3.188,21.574,21.574,0,0,1-5.194-4.372A18.4,18.4,0,0,1,63.273-85.2a22.814,22.814,0,0,1-1.182-7.714,23.843,23.843,0,0,1,1.851-9.668,20.138,20.138,0,0,1,5.192-7.148,22.179,22.179,0,0,1,8.074-4.422A35.151,35.151,0,0,1,87.8-115.641a49.053,49.053,0,0,1,10.131,1.028,83.387,83.387,0,0,1,10.439,2.984,52.592,52.592,0,0,1-1.491,7.251,45.735,45.735,0,0,1-2.726,7.458q-2.674-1.132-6.274-2.366a27.884,27.884,0,0,0-8.948-1.234,15.455,15.455,0,0,0-3.137.309,9.175,9.175,0,0,0-2.674.977,5.184,5.184,0,0,0-1.9,1.851,5.545,5.545,0,0,0-.72,2.931,5.13,5.13,0,0,0,1.954,4.422,19.656,19.656,0,0,0,4.628,2.467Zm61.4,25.507H138.2V-40.56q-2.674.411-4.834.617t-3.908.205q-1.749,0-3.908-.205t-4.731-.617V-93.631a34.666,34.666,0,0,1,4.474-.72q2.211-.206,4.268-.205,1.954,0,4.216.205a31.307,31.307,0,0,1,4.422.72v18.1h15.223v-18.1a34.668,34.668,0,0,1,4.474-.72q2.211-.206,4.268-.206,1.954,0,4.216.205a31.308,31.308,0,0,1,4.422.72V-40.56q-2.674.411-4.834.617t-3.908.2q-1.749,0-3.908-.206t-4.731-.617Zm26.329-6.685a36.766,36.766,0,0,1,1.7-11.467,24.382,24.382,0,0,1,5.04-8.9,22.247,22.247,0,0,1,8.279-5.709,30.164,30.164,0,0,1,11.417-2.006A30.466,30.466,0,0,1,217.7-92.859a22.247,22.247,0,0,1,8.279,5.708,24.381,24.381,0,0,1,5.039,8.9,36.768,36.768,0,0,1,1.7,11.469,35.454,35.454,0,0,1-1.7,11.262,24,24,0,0,1-5.04,8.742,22.022,22.022,0,0,1-8.279,5.6,31.176,31.176,0,0,1-11.519,1.954,30.869,30.869,0,0,1-11.417-1.954,22.022,22.022,0,0,1-8.279-5.605,24,24,0,0,1-5.04-8.743,35.453,35.453,0,0,1-1.7-11.261Zm35.381,0q0-6.582-2.211-10.08a7.424,7.424,0,0,0-6.737-3.5,7.3,7.3,0,0,0-6.685,3.5q-2.16,3.5-2.16,10.082,0,6.48,2.16,9.976a7.305,7.305,0,0,0,6.685,3.5,7.424,7.424,0,0,0,6.737-3.5q2.211-3.5,2.211-9.978Zm43.5.617a10.178,10.178,0,0,0,1.286.154q.771.052,1.285.052a9.349,9.349,0,0,0,5.914-1.8q2.314-1.8,2.314-6.119a7.146,7.146,0,0,0-2.314-5.708,8.407,8.407,0,0,0-5.707-2.005h-1.183a12.857,12.857,0,0,0-1.593.1ZM241.666-93.425q4.731-.718,9.719-1.077t9.617-.36a48.689,48.689,0,0,1,9.257.874,22.9,22.9,0,0,1,8.124,3.187,17.154,17.154,0,0,1,5.811,6.377A21.976,21.976,0,0,1,286.4-73.881a21.933,21.933,0,0,1-2.006,9.874,18,18,0,0,1-5.3,6.48,21.126,21.126,0,0,1-7.456,3.548,33.675,33.675,0,0,1-8.485,1.08q-1.749,0-2.983-.1a9.059,9.059,0,0,1-1.543-.206v12.65a41.78,41.78,0,0,1-4.782.669q-2.108.154-3.754.154-1.749,0-3.754-.154a42.466,42.466,0,0,1-4.678-.67Z" transform="translate(-4.903 235.547)" fill="#fff"/>
  <path id="Delivery_Time" data-name="Delivery Time" d="M26.589-50.1c0-8.306-1.191-19.1-1.191-19.1a15.33,15.33,0,0,0,1.226-4.017c0-.136-1.26-.17-1.668-.17a20.094,20.094,0,0,0-4.63.306c-.885.885-4.187,9.7-4.459,10.587-.034.136-.1.2-.17.2-.1,0-.17-.17-.17-.17-.749-2.315-3.54-10.383-3.813-10.621a18.376,18.376,0,0,0-2.894-.17,24.213,24.213,0,0,0-4.425.34.149.149,0,0,0-.034.1,8.447,8.447,0,0,0,1.328,3.438S4.394-55.955,4.394-49.555a2.965,2.965,0,0,0,1.226.2c.817,0,2.723-.136,3.438-.817a49.665,49.665,0,0,1-.17-5.174A74.162,74.162,0,0,1,9.5-66.236c.034-.17.068-.238.1-.238s.1.068.17.2c.477.613,4.391,11.813,4.425,11.949a3.414,3.414,0,0,0,1.5.306c.477,0,1.328-.136,1.43-.374,0,0,2.689-9.157,4.255-11.983,0,0,.1-.2.2-.2.034,0,.068.034.1.17.2,1.089.477,8.136.477,13.14,0,1.634-.034,3.03-.1,3.949-.034.136.511.136.953.136C24.751-49.181,26.589-49.862,26.589-50.1Zm16.783-8.238v-1.736c0-4.119-2.383-6.059-7.557-6.059a7.51,7.51,0,0,0-2.383.238,6.64,6.64,0,0,0-1.191,3.1h.034a21.043,21.043,0,0,1,2.485-.136c2.962,0,4.221.681,4.221,1.668a.119.119,0,0,1-.068.034c-.681,0-8.545.783-8.545,6.74C30.368-51.6,32.24-50,35.3-50a7.584,7.584,0,0,0,4.323-1.43s.068-.068.1-.068.034.068.034.068c.2,1.838.953,2.621,1.089,2.621,1.6,0,3.779-1.464,3.779-1.872a4.017,4.017,0,0,1-1.157-2.689C43.372-54.083,43.372-56.636,43.372-58.338Zm-3.779,2.179a2.717,2.717,0,0,1-2.928,2.689c-1.532,0-2.111-.817-2.111-1.668,0-2.451,3.779-3.064,5-3.064a2.989,2.989,0,0,1,.034.749ZM48.785-55a38.355,38.355,0,0,1-.238,5.038c0,.1.238.1.511.1.919,0,2.825-.238,3.506-.919a25.256,25.256,0,0,0,.136-3.779c0-2.145-.034-4.357-.034-4.323,0,0,.613-2.417,2.825-2.417,1.872,0,2.008,2.587,2.008,5.889a53.152,53.152,0,0,1-.34,5.821,3.676,3.676,0,0,0,1.123.17A5.448,5.448,0,0,0,61.21-50.1s.1-1.736.1-3.983c0-5.821-.1-11.4-4.357-11.4a5.788,5.788,0,0,0-4.187,2.145s-.068.068-.1.068c-.068,0-.1-.136-.1-.681,0-.647.068-1.5.1-1.77,0-.1-.409-.17-.715-.17a5.221,5.221,0,0,0-3.1.953,6.806,6.806,0,0,0-.17,2.281C48.683-60.653,48.785-57.691,48.785-55Zm29.446-3.336v-1.736c0-4.119-2.383-6.059-7.557-6.059a7.51,7.51,0,0,0-2.383.238A6.64,6.64,0,0,0,67.1-62.8h.034a21.043,21.043,0,0,1,2.485-.136c2.962,0,4.221.681,4.221,1.668a.119.119,0,0,1-.068.034c-.681,0-8.545.783-8.545,6.74C65.227-51.6,67.1-50,70.163-50a7.584,7.584,0,0,0,4.323-1.43s.068-.068.1-.068.034.068.034.068c.2,1.838.953,2.621,1.089,2.621,1.6,0,3.779-1.464,3.779-1.872a4.017,4.017,0,0,1-1.157-2.689C78.231-54.083,78.231-56.636,78.231-58.338Zm-3.779,2.179a2.717,2.717,0,0,1-2.928,2.689c-1.532,0-2.111-.817-2.111-1.668,0-2.451,3.779-3.064,5-3.064a2.989,2.989,0,0,1,.034.749ZM86.2-43.7H85.55a5.867,5.867,0,0,0,1.26,3.54c2.621,0,9.123-1.6,9.123-10.962,0-.953-.068-4.9-.068-8.068v-4.323a3.909,3.909,0,0,0-1.464-.2h-.374s.034-.34.034-.511a8.119,8.119,0,0,0-.1-1.26c0-.17-1.191-.17-1.191-.17-6.842,0-10.145,4.255-10.145,9.4,0,2.723,1.77,5.855,5,5.855a5.075,5.075,0,0,0,4.459-2.213s.068-.1.1-.1.034.034.034.136C92.222-44.415,87.933-43.7,86.2-43.7Zm5.957-18.349c-.1.817-.136,4.459-.136,4.97a3.167,3.167,0,0,1-2.928,2.485,2.439,2.439,0,0,1-2.383-2.621,4.608,4.608,0,0,1,4.732-4.936S92.154-62.151,92.154-62.049Zm16.408.477c0,2.281-3,4.323-4.425,4.357-.136,0-.136-.1-.136-.477,0-2.689,1.668-4.868,3.506-4.868A.961.961,0,0,1,108.562-61.572Zm-1.5,11.608c3.3,0,4.459-.783,4.459-.783a5.516,5.516,0,0,0,.851-3.064c0-.2-.034-.647-.1-.647a.119.119,0,0,0-.068.034,8.228,8.228,0,0,1-4.085.919c-1.77,0-2.485-.715-2.485-.919,4.357-1.5,6.911-4.6,6.911-7.489,0-3.03-2.689-3.711-4.289-3.711-5.515,0-8.238,4.051-8.238,8.476C100.018-53.164,102.3-49.964,107.065-49.964Zm27.506.238c8.647,0,10.621-6.6,10.621-12.085,0-7.728-3-11.915-9.464-11.915-1.94,0-6.128,1.089-6.128,5.957h-.647a7.834,7.834,0,0,0-2.247.2c-.17.1-2.077,2.757-2.077,7.557C124.63-54.661,127.32-49.725,134.57-49.725Zm6.23-12.357c0,4.187-.987,8.817-6.2,8.817-3.3,0-5.651-3.166-5.651-6.911,0-3.234.851-4.8,1.123-5.106.681,3.3,2.689,5.481,2.928,5.481,1.6,0,3.268-.817,3.268-1.123,0,0-3.064-3.438-3.064-6.57a2.622,2.622,0,0,1,2.825-2.587C138.724-70.082,140.8-68.074,140.8-62.083Zm18.212-2.145a2.632,2.632,0,0,0-.272-1.294,6.765,6.765,0,0,0-5.072,2.723c-.068.068-.1.068-.136.068-.068,0-.068-.715-.068-.783,0-.885.068-2.179.1-2.485,0-.1-.409-.17-.715-.17a5.221,5.221,0,0,0-3.1.953,7.592,7.592,0,0,0-.136,2.145c0,1.974.068,5,.068,7.728a37.485,37.485,0,0,1-.238,5.379c0,.1.136.1.272.1.885,0,2.928-.136,3.745-.919a35.537,35.537,0,0,0,.1-4.187v-3a4.389,4.389,0,0,1,4.391-3.234,3.575,3.575,0,0,1,.443.068A5.537,5.537,0,0,0,159.013-64.227Zm15.932-9.43c0-.068-.545-.136-.851-.136a5.321,5.321,0,0,0-3.132,1.191,11.719,11.719,0,0,0-.1,2.213c0,1.974.068,4.664.068,5.038-6.23.2-9.191,4.6-9.191,9.4,0,2.723,1.7,5.855,4.936,5.855a5.069,5.069,0,0,0,4.255-2.043s.068-.068.1-.068.068,0,.068.1a3.732,3.732,0,0,0,1.089,2.587c1.43,0,3.813-1.4,3.813-1.8a4.968,4.968,0,0,1-1.123-2.723c-.17-1.021-.2-4.289-.2-6.876C174.672-64.329,174.808-70.831,174.944-73.657Zm-4.051,16.885c0,.409-.749,2.723-2.723,2.723-1.634,0-2.349-1.294-2.349-2.86,0-2.723,1.634-4.936,4.664-4.936,0,0,.545,0,.511.068C170.927-60.959,170.893-57.283,170.893-56.772Zm17.566-4.8c0,2.281-3,4.323-4.425,4.357-.136,0-.136-.1-.136-.477,0-2.689,1.668-4.868,3.506-4.868A.961.961,0,0,1,188.459-61.572Zm-1.5,11.608c3.3,0,4.459-.783,4.459-.783a5.516,5.516,0,0,0,.851-3.064c0-.2-.034-.647-.1-.647a.119.119,0,0,0-.068.034,8.228,8.228,0,0,1-4.085.919c-1.77,0-2.485-.715-2.485-.919,4.357-1.5,6.911-4.6,6.911-7.489,0-3.03-2.689-3.711-4.289-3.711-5.515,0-8.238,4.051-8.238,8.476C179.914-53.164,182.2-49.964,186.961-49.964Zm19.132-14.264a2.632,2.632,0,0,0-.272-1.294,6.765,6.765,0,0,0-5.072,2.723c-.068.068-.1.068-.136.068-.068,0-.068-.715-.068-.783,0-.885.068-2.179.1-2.485,0-.1-.408-.17-.715-.17a5.221,5.221,0,0,0-3.1.953,7.591,7.591,0,0,0-.136,2.145c0,1.974.068,5,.068,7.728a37.485,37.485,0,0,1-.238,5.379c0,.1.136.1.272.1.885,0,2.928-.136,3.745-.919a35.542,35.542,0,0,0,.1-4.187v-3a4.389,4.389,0,0,1,4.391-3.234,3.575,3.575,0,0,1,.443.068A5.537,5.537,0,0,0,206.093-64.227Zm12.97,9.566c-.1-3.54-5.413-4.528-5.413-6.23,0-1.8,4.221-2.519,4.732-2.519-.034-1.464-1.089-2.86-1.464-2.86-3.847,0-8.1,2.723-8.1,5.549,0,2.928,5.447,3.983,5.447,5.957,0,1.089-1.532,2.825-5.447,2.825v.238c0,1.6.987,3.03,1.328,3.03C212.8-48.67,219.063-50.679,219.063-54.661Z" transform="translate(29.381 291.284)" fill="#fff"/>
  <path id="Path_6377" data-name="Path 6377" d="M45.288,85.174l.205-.205c8.832-3.7,20.128-1.233,29.165-10.274a25.783,25.783,0,0,0,7.394-16.439c.205-2.466-1.438-2.877-3.286-1.644h0l-.205.205c-3.286,2.26-6.572,4.521-9.653,6.987a12.473,12.473,0,0,0-2.054,1.438c-.616.205-1.027.617-1.438.617-2.258,1.027-4.724,0-6.778-1.233a22.839,22.839,0,0,1-5.34-5.548A18.324,18.324,0,0,1,50.423,52.3c-.411-1.644-.411-3.9,1.027-5.343a35.593,35.593,0,0,1,4.313-3.493c2.258-1.644,4.724-3.288,7.189-4.932,1.643-1.233,4.724-4.315,1.027-6.165a27.037,27.037,0,0,0-14.583,0A25.393,25.393,0,0,0,31.528,53.118c-.821,5.548-1.438,9.864-3.7,13.973-2.054,3.493-11.912,14.384-14.788,17.672-1.232,1.438-3.081,2.671-1.438,5.548,0,.205.205.205.205.411A79.376,79.376,0,0,0,21.67,101.2a.2.2,0,0,1,.205.205c3.081,1.644,4.109-.205,5.751-1.644,4.313-3.7,13.761-12.946,17.663-14.59ZM62.746.308a57.7,57.7,0,0,0-11.912,0h-.411c-3.286,1.027-2.67,3.082-2.875,5.137a12.552,12.552,0,0,1-7.8,10.48A12.458,12.458,0,0,1,27.009,13.87c-1.438-1.233-2.67-3.082-5.545-1.438-.205,0-.205,0-.411.205a46.692,46.692,0,0,0-8.421,8.425l-.205.205c-1.643,3.082.205,4.109,1.438,5.548a12.768,12.768,0,0,1,2.054,12.946,11.979,11.979,0,0,1-10.475,7.6c-2.054.206-4.109-.205-5.135,3.082v.206a59.8,59.8,0,0,0,0,12.124v.205c1.027,3.288,3.081,2.671,5.135,2.877a12.819,12.819,0,0,1,10.475,7.81.755.755,0,0,0,.205.616,50.925,50.925,0,0,0,7.189-9.247c2.875-5.137,2.465-6.576,3.081-11.713a28.4,28.4,0,0,1,2.054-8.219A30.834,30.834,0,0,1,68.5,28.461,30.6,30.6,0,0,1,58.845,87.23c-12.939.822-13.35,2.671-20.538,9.864a3.806,3.806,0,0,1,1.438.411,12.265,12.265,0,0,1,7.6,10.685c.205,1.85-.205,3.9,2.875,4.932h.411a59.715,59.715,0,0,0,12.118,0h.205c3.286-1.027,2.67-3.082,2.875-4.932a12.844,12.844,0,0,1,7.8-10.685,12.311,12.311,0,0,1,12.734,2.055c1.643,1.233,2.67,3.288,5.545,1.438h.411a47.932,47.932,0,0,0,8.421-8.631.2.2,0,0,0,.205-.205c1.643-2.877-.205-4.109-1.438-5.548a12.768,12.768,0,0,1-2.054-12.946,12.617,12.617,0,0,1,10.68-7.6c1.849-.205,3.9.411,4.929-2.877v-.411a57.774,57.774,0,0,0,0-11.918v-.413c-1.027-3.288-3.081-2.671-4.929-2.877a12.838,12.838,0,0,1-10.68-7.81,12.477,12.477,0,0,1,2.054-12.74c1.232-1.438,3.286-2.672,1.438-5.548V21.06a55.82,55.82,0,0,0-8.625-8.425l-.205-.205c-2.875-1.644-4.109.205-5.545,1.438a12.752,12.752,0,0,1-12.939,2.055,12.331,12.331,0,0,1-7.6-10.48c-.205-2.055.205-4.109-2.875-5.137Z" transform="translate(136.791 29.353) rotate(-15.005)" fill="#fff" fill-rule="evenodd"/>
</svg>
