<svg xmlns="http://www.w3.org/2000/svg" width="224.85" height="251.123" viewBox="0 0 224.85 251.123">
  <g id="splashlogo" transform="translate(-137.416 -86.568)">
    <path id="Path_28279" data-name="Path 28279" d="M-13.96-.353c.307,0,.618,0,.936,0H-12c.361,0,.722,0,1.1,0h3.666c.882,0,1.761,0,2.644-.007q3.264-.005,6.524-.007,3.905,0,7.811-.007Q19.178-.395,28.62-.4q3.128,0,6.253,0,16.619-.015,33.238-.02,3.85,0,7.7,0h.966q15.516-.005,31.029-.03Q123.75-.477,139.7-.48h5.4Q152.23-.485,159.368-.5q7.169-.015,14.338-.01,4.261.005,8.523-.01,2.848-.005,5.692,0,1.624.005,3.242,0c1.166-.007,2.333,0,3.5,0,.334,0,.668-.007,1.009-.013a10.3,10.3,0,0,1,6.08,1.892c1.741,1.785,2.045,3.419,2.052,5.825,0,.324,0,.324,0,.652,0,.722,0,1.44,0,2.162,0,.515,0,1.033.007,1.547q0,2.106.007,4.211c0,.876,0,1.755,0,2.63q.01,4.116.01,8.235,0,4.748.017,9.5.01,3.675.01,7.35,0,2.191.01,4.385.01,2.065,0,4.128c0,.5,0,1.009,0,1.511,0,.692,0,1.38,0,2.072v1.166a7.321,7.321,0,0,1-2.8,5.12,6.825,6.825,0,0,1-4.168,1.38c-.461,0-.461,0-.932,0-.511,0-.511,0-1.029,0-.545,0-.545,0-1.1,0h-3.673c-.882,0-1.761,0-2.644,0q-3.264.005-6.531,0-3.91,0-7.817,0-9.45.01-18.9.01-4.467,0-8.937,0l-30.578.01h-8.673q-15.526,0-31.056.013-16.409.015-32.817.013h-4.5q-7.144,0-14.285.01-7.179.005-14.351,0-4.266,0-8.533.007-2.848,0-5.7,0-1.619,0-3.245,0c-1.166,0-2.33,0-3.5,0-.338,0-.675.007-1.019.007a7.923,7.923,0,0,1-5.866-1.928,7.634,7.634,0,0,1-2.136-5.658c0-.214,0-.431,0-.652q-.005-1.083,0-2.162c0-.518,0-1.033-.007-1.551q-.005-2.106-.007-4.215c0-.876,0-1.755,0-2.634q-.005-4.116-.01-8.239,0-4.753-.017-9.509-.01-3.675-.01-7.353,0-2.191-.01-4.388-.005-2.065,0-4.131c0-.5,0-1.009,0-1.514,0-.692,0-1.38,0-2.072V6.148c.294-2.614,1.554-4.064,3.486-5.705A5.931,5.931,0,0,1-13.96-.353Z" transform="translate(158.383 274.368)" fill="#fdfd00"/>
    <path id="Path_28282" data-name="Path 28282" d="M-162.863-5.685c.491.378.979.759,1.464,1.15.314.227.632.455.959.688a10.718,10.718,0,0,1,2.049,2.654v.668h.668a26.532,26.532,0,0,1,2.34,17.045c-.224.331-.441.662-.668,1q-.3.857-.545,1.731c-.087.3-.174.6-.264.916-.1.344-.1.344-.194.7h.668c.077-.237.154-.471.234-.715a11.951,11.951,0,0,1,2-2.921c.241-.277.241-.277.488-.565a64.046,64.046,0,0,1,16.33-13.513c.4-.254.805-.508,1.21-.762a37.391,37.391,0,0,1,11.156-4.251c.227-.064.455-.124.692-.187,4.235-.976,8.509.207,12.172,2.326a14.969,14.969,0,0,1,4.85,4.88v.668h.668c1.942,3.683,3.636,7.3,2.43,11.551q-.331.812-.7,1.608a27.783,27.783,0,0,0-1.083,3.051c-2.269,6.407-6.958,11.8-11.34,16.878-.224.257-.445.518-.672.785-1.273,1.477-2.614,2.864-4.007,4.228q-.506.5-1,1,2-.536,3.987-1.086l1.133-.3a31.924,31.924,0,0,0,5.622-2.015,8.4,8.4,0,0,1,2.627-.6V40.25c.267-.124.535-.251.812-.378,6.611-3.336,11.063-9.041,15.431-14.809,1.521-2,3.082-3.93,4.786-5.782.628-.685,1.237-1.384,1.842-2.092,3.556-4.067,7.707-8.172,12.891-10.027h1V6.494a87.081,87.081,0,0,1,9.084-2.781c.227-.05.455-.1.692-.16a32.74,32.74,0,0,1,6.865-.816c.368-.007.368-.007.745-.01.8-.007,1.594-.013,2.393-.017.274,0,.545,0,.826,0A81.334,81.334,0,0,1-37.068,4.154v1l-1.277.5c-.237.094-.471.184-.715.281a3.685,3.685,0,0,1-1.684.221v.668c-5.134,2.34-5.134,2.34-6.684,2.34v.668l-.555.17A37.946,37.946,0,0,0-52.8,11.918a3.015,3.015,0,0,1-1.651.257v.668l-.6.16a34.9,34.9,0,0,0-5.5,2.089c-1.166.538-2.36,1-3.559,1.461a5.373,5.373,0,0,0-1.7.969h-1v.668c-.2.07-.391.14-.592.211a42.194,42.194,0,0,0-6.741,3.4l-1.023.6a177.363,177.363,0,0,0-15.374,10.16l-1.464,1.063c-2.787,2.035-5.548,4.088-8.205,6.29-3.67,3.008-3.67,3.008-5.037,3.008-.11.331-.224.662-.334,1a7.73,7.73,0,0,1-1.477.648l-.922.344-.943.344-.836.324a65.9,65.9,0,0,1-13.476,3.5c-.257.04-.515.084-.782.127-2.871.458-5.735.856-8.636,1.063a2.649,2.649,0,0,1,1.481-1.858c6.116-4.459,10.692-12.129,13.225-19.2.18-.488.18-.488.368-.983,1.38-3.84,2.834-9.325,1.093-13.242a6.792,6.792,0,0,0-2.8-2.487c-.11-.221-.224-.441-.334-.668-5.18-1.945-11.45-1.207-16.494.9-4.973,2.286-8.991,5.722-12.918,9.462-13.623,12.366-13.623,12.366-17.714,12.366.2-.846.4-1.688.6-2.527.053-.237.11-.471.167-.715a24.99,24.99,0,0,1,1.567-4.445c.124-.445.244-.886.334-1.337h.668c.023-.3.023-.3.047-.6a12.986,12.986,0,0,1,.956-4.078c.692-3.529.558-6.888-1.337-10.027A7.957,7.957,0,0,0-169.086,7.5c-3.112-.254-5.715-.277-8.222,1.678-2.848,2.463-4.291,4.846-4.579,8.633-.157,4.9,1.25,8.192,4.111,12.082.541.572,1.1,1.13,1.671,1.671l.6.6a21.486,21.486,0,0,0,6.079,3.74v.668l1,.251a16.983,16.983,0,0,1,3.292,1.4c.742.364,1.491.665,2.263.959a45.3,45.3,0,0,1,4.138,1.9,35.313,35.313,0,0,0,9,3.272,11.343,11.343,0,0,1,1.955.572,13.615,13.615,0,0,0,3.322.545c.414.027.829.057,1.26.084l1.3.08,1.324.087c1.076.074,2.152.14,3.232.207-7.51,5-20.261,4.6-28.743,3.008-.4-.063-.8-.124-1.207-.187a65.388,65.388,0,0,1-16-4.679,22.479,22.479,0,0,0-4-1.15,35.537,35.537,0,0,1-5.535-1.671c-.445-.117-.892-.231-1.337-.334V40.25l-.689-.11a24.872,24.872,0,0,1-4.515-1.1,15.1,15.1,0,0,0-10.475.458,16.9,16.9,0,0,0-6.521,6.337c-.528.769-.528.769-1.293,1.053l-.929.11c-.354.047-.709.094-1.076.14-.411.043-.819.087-1.24.134-.488.053-.976.107-1.464.164-.779.084-1.557.17-2.336.254-2.537.274-5.037.688-7.54,1.173a77.681,77.681,0,0,1-12.39,1.083v-.668c.374-.167.749-.334,1.136-.5.5-.227,1.009-.458,1.514-.685.247-.11.491-.217.745-.328a24.55,24.55,0,0,0,5.294-3.5q.8-.607,1.6-1.21c.271-.2.541-.4.819-.608s.551-.414.836-.628c1.748-1.3,3.486-2.6,5.19-3.957a52.508,52.508,0,0,1,10.939-6.631c.214-.1.431-.2.655-.3,5.124-2.126,11.293-1.658,16.7-1.1l.725.07a13.5,13.5,0,0,1,4.311,1.33c.434.144.872.277,1.313.394l1.026.274v.668c.281.033.565.067.856.1a15.543,15.543,0,0,1,3.489,1.233l.775.3a32.766,32.766,0,0,1,2.981,1.457l1.073.568c.909.5,1.765,1.066,2.627,1.651,1.561,1.053,3.172,1.979,4.823,2.878.294.157.585.318.886.481A41.408,41.408,0,0,0-163.738,45.6v-.668c-.2-.03-.4-.06-.6-.087a22.38,22.38,0,0,1-6.414-2.253v-.668l-.775-.107a3.122,3.122,0,0,1-1.9-1.23c-.354-.191-.709-.384-1.073-.582a14.91,14.91,0,0,1-3.4-2.741l-.572-.582a32.678,32.678,0,0,1-8.994-18.155c-.06-.374-.12-.749-.184-1.136-.655-5.164-.5-11.644,2.189-16.243.15-.284.3-.565.465-.856,2.316-3.971,5.361-7.253,9.9-8.5A15.517,15.517,0,0,1-162.863-5.685Z" transform="translate(387.846 95.108)" fill="#fff"/>
    <path id="Path_28283" data-name="Path 28283" d="M-67.283,0h1c.057.187.114.371.174.565a21.47,21.47,0,0,0,1.477,3.717A27.348,27.348,0,0,1-62.921,8.72c.274.842.575,1.658.9,2.477A4.976,4.976,0,0,1-61.6,13.7h.668c1.982,4.926,1.982,4.926,2.547,6.454.678,1.815,1.4,3.61,2.132,5.4q.9,2.231,1.755,4.482c.114.294.224.588.341.892a5.129,5.129,0,0,1,.244,2.156h1.337V32.42c.665-.525,1.33-1.006,2.025-1.484q.642-.446,1.28-.892l.678-.475c.709-.5,1.4-1.013,2.1-1.531.227-.167.451-.334.685-.508.441-.331.882-.658,1.32-.993,1.531-1.136,1.531-1.136,2.273-1.136v-.668a12,12,0,0,1,1.367-1.016c.281-.194.565-.388.859-.588s.6-.4.909-.608c.294-.207.592-.411.9-.622,2.226-1.511,2.226-1.511,2.985-1.511v-.668c1.808-1.337,1.808-1.337,2.674-1.337a5.315,5.315,0,0,1-.471,2.861,21.458,21.458,0,0,0-1.1,4.826c-.064.438-.064.438-.13.882q-.155,1.063-.307,2.126H-35.2c.013.284.027.565.04.856a9.626,9.626,0,0,1-.495,2.757A57.05,57.05,0,0,0-37.2,39.772h-.668c.01.612.01.612.02,1.233a12.217,12.217,0,0,1-.354,3.112h-.668c.007.371.013.745.02,1.13a2.956,2.956,0,0,1-.354,1.878c-.06.521-.107,1.043-.147,1.568a18.022,18.022,0,0,1-.856,4.114h-.668l-.334,4.345h-.668c.01.528.01.528.02,1.066a14.019,14.019,0,0,1-.354,2.944q-9.535.01-19.071.017-4.427.005-8.854.01-3.855.005-7.714,0-2.04.005-4.088.007h-3.84c-.471,0-.943,0-1.414,0H-90.21c-.8-.04-.8-.04-1.136-.374q-.02-1,0-2.005h-.668c-.03-.191-.057-.381-.087-.578q-.2-1.288-.394-2.577c-.043-.3-.09-.6-.137-.909-.064-.428-.064-.428-.134-.866-.04-.264-.08-.528-.12-.8-.07-.625-.07-.625-.465-.956q-.02-1,0-2.005h-.668c-.067-.431-.137-.862-.207-1.3-.09-.561-.184-1.123-.274-1.684-.043-.284-.09-.568-.137-.859-.043-.271-.087-.541-.134-.819-.04-.251-.08-.5-.12-.759-.077-.6-.077-.6-.465-.926-.013-.779-.013-1.561,0-2.34h-.668c-.04-.264-.08-.525-.124-.8a42.092,42.092,0,0,0-1.213-5.555c-.348-1.444-.675-2.894-1-4.345l-.752-3.249q-.261-1.133-.515-2.266c-.084-.378-.17-.759-.257-1.15-.077-.341-.154-.682-.231-1.033a13.481,13.481,0,0,0-.612-2.062,6.336,6.336,0,0,1-.307-2.607c1,0,1,0,1.741.715.307.314.615.632.932.956.829.672,1.684,1.3,2.547,1.922.338.247.338.247.678.5a9.6,9.6,0,0,0,2.791,1.588v.668l.6.284a10.994,10.994,0,0,1,1.822,1.2c1.618,1.24,3.3,2.376,4.993,3.513a32.7,32.7,0,0,1,3.045,2.283,3.05,3.05,0,0,0,1.905,1.076c.04-.291.077-.582.12-.882a13.955,13.955,0,0,1,.986-3.065c.224-.521.224-.521.451-1.056q.582-1.313,1.18-2.62a22.622,22.622,0,0,0,1.273-3.74h.668c.03-.455.03-.455.063-.919a17.1,17.1,0,0,1,1.517-4.452c.521-1.207.976-2.423,1.427-3.653q.281-.752.565-1.5c.144-.384.287-.772.438-1.17h.668l.334-2.674h.668c.033-.351.07-.7.1-1.066a7.343,7.343,0,0,1,1.233-2.944c.264-.882.461-1.775.668-2.674Z" transform="translate(308.434 170.45)" fill="#fff"/>
    <path id="Path_28284" data-name="Path 28284" d="M-13.96-.353c.307,0,.618,0,.936,0H-12c.361,0,.722,0,1.1,0h3.666c.882,0,1.761,0,2.644-.007q3.264-.005,6.524-.007,3.905,0,7.811-.007Q19.178-.395,28.62-.4q3.128,0,6.253,0,16.619-.015,33.238-.02,3.85,0,7.7,0h.966q15.516-.005,31.029-.03Q123.75-.477,139.7-.48h5.4Q152.23-.485,159.368-.5q7.169-.015,14.338-.01,4.261.005,8.523-.01,2.848-.005,5.692,0,1.624.005,3.242,0c1.166-.007,2.333,0,3.5,0,.334,0,.668-.007,1.009-.013a10.3,10.3,0,0,1,6.08,1.892c1.741,1.785,2.045,3.419,2.052,5.825,0,.324,0,.324,0,.652,0,.722,0,1.44,0,2.162,0,.515,0,1.033.007,1.547q0,2.106.007,4.211c0,.876,0,1.755,0,2.63q.01,4.116.01,8.235,0,4.748.017,9.5.01,3.675.01,7.35,0,2.191.01,4.385.01,2.065,0,4.128c0,.5,0,1.009,0,1.511,0,.692,0,1.38,0,2.072v1.166a7.321,7.321,0,0,1-2.8,5.12,6.825,6.825,0,0,1-4.168,1.38c-.461,0-.461,0-.932,0-.511,0-.511,0-1.029,0-.545,0-.545,0-1.1,0h-3.673c-.882,0-1.761,0-2.644,0q-3.264.005-6.531,0-3.91,0-7.817,0-9.45.01-18.9.01-4.467,0-8.937,0l-30.578.01h-8.673q-15.526,0-31.056.013-16.409.015-32.817.013h-4.5q-7.144,0-14.285.01-7.179.005-14.351,0-4.266,0-8.533.007-2.848,0-5.7,0-1.619,0-3.245,0c-1.166,0-2.33,0-3.5,0-.338,0-.675.007-1.019.007a7.923,7.923,0,0,1-5.866-1.928,7.634,7.634,0,0,1-2.136-5.658c0-.214,0-.431,0-.652q-.005-1.083,0-2.162c0-.518,0-1.033-.007-1.551q-.005-2.106-.007-4.215c0-.876,0-1.755,0-2.634q-.005-4.116-.01-8.239,0-4.753-.017-9.509-.01-3.675-.01-7.353,0-2.191-.01-4.388-.005-2.065,0-4.131c0-.5,0-1.009,0-1.514,0-.692,0-1.38,0-2.072V6.148c.294-2.614,1.554-4.064,3.486-5.705A5.931,5.931,0,0,1-13.96-.353ZM-17.165,4.7l-.334.334c-.037.678-.047,1.357-.05,2.032,0,.217,0,.431-.007.652q-.005,1.088-.007,2.176c0,.518-.007,1.036-.01,1.551q-.01,2.557-.017,5.114c0,.588,0,1.173-.007,1.758q-.01,3.66-.017,7.313-.01,5.249-.037,10.491-.02,3.685-.02,7.37,0,2.206-.017,4.405-.015,2.071-.007,4.144c0,.508,0,1.016-.01,1.521-.007.692,0,1.384,0,2.079,0,.388,0,.775,0,1.173a4.256,4.256,0,0,0,1.878,2.7l.334.334c.471.033.943.043,1.41.043.307,0,.615,0,.932,0h1.036c.361,0,.722,0,1.093,0h3.676c.882,0,1.765,0,2.647.007q3.269.005,6.534.007,3.915,0,7.824.007,9.46.015,18.917.02,3.133,0,6.263,0,16.639.015,33.275.02,3.855,0,7.714,0H76.8q15.541.005,31.079.03,15.967.02,31.935.023h5.4q7.149.005,14.3.017,7.179.015,14.362.01,4.271-.005,8.539.01,2.853.005,5.7,0,1.629-.005,3.252,0c1.166.007,2.333,0,3.5,0,.341,0,.678.007,1.026.013a4.559,4.559,0,0,0,3.556-1.049c.211-.277.421-.555.635-.842l.334-.334c.037-.678.05-1.357.05-2.032,0-.324,0-.324.007-.652q0-1.088.007-2.176c0-.518.007-1.036.01-1.551q.01-2.557.017-5.114c0-.588.007-1.173.007-1.758q.01-3.66.017-7.316.01-5.244.037-10.488.02-3.685.02-7.37.005-2.206.017-4.405.015-2.071.007-4.144c0-.508,0-1.016.01-1.521.007-.692,0-1.384,0-2.079,0-.388,0-.775,0-1.173a4.063,4.063,0,0,0-1.878-2.7,6.775,6.775,0,0,0-2.493-.378c-.307,0-.615,0-.929,0h-1.029c-.541,0-.541,0-1.093,0h-3.663c-.879,0-1.758,0-2.637-.007q-3.254-.005-6.511-.007-3.9,0-7.8-.007-9.42-.015-18.847-.02-3.118,0-6.24,0-16.579-.015-33.161-.02-3.845,0-7.684,0h-.966Q90.2,2.911,74.716,2.886,58.8,2.866,42.891,2.862H37.507q-7.124-.005-14.248-.017-7.154-.015-14.311-.01Q4.7,2.841.442,2.826q-2.843-.005-5.678,0-1.619.005-3.239,0c-1.163-.007-2.323,0-3.486,0-.338,0-.675-.007-1.023-.013C-14.966,2.839-15.9,3.029-17.165,4.7Z" transform="translate(158.383 274.368)" fill="#fff"/>
    <path id="Path_28285" data-name="Path 28285" d="M-41.561-1.36c2.229.368,4.475.592,6.721.836A21.081,21.081,0,0,1-29.91.525c1.09.17,2.176.307,3.272.434a5.137,5.137,0,0,1,2.41.568c.675.053,1.35.09,2.029.124a43.648,43.648,0,0,1,5.388.688,69.341,69.341,0,0,0,7.092.946c.371.033.371.033.752.07l.655.053c1.173.18,2.319.5,3.469.792V14.228c-1.985.164-1.985.164-4.011.334A41.705,41.705,0,0,0-35.592,30.27a26.919,26.919,0,0,0-3.676,6.35h-.668c-.033.351-.067.7-.1,1.063a3.973,3.973,0,0,1-.688,2.029,16.422,16.422,0,0,0-1.547,4.6h-.668c-.017.287-.03.575-.05.872-.214,3.509-.568,7-.953,10.491q-2.622.025-5.244.037c-.6,0-1.193.007-1.788.013q-1.278.01-2.563.013l-.809.01c-.655,0-1.307-.033-1.962-.074-.956-.959-.846-1.972-.929-3.262-.02-.257-.04-.518-.06-.785-.064-.829-.12-1.661-.18-2.493s-.117-1.644-.18-2.467c-.037-.511-.074-1.023-.107-1.537a28.906,28.906,0,0,0-.722-4.465c-.214-.939-.348-1.878-.471-2.831-.05-.388-.1-.772-.154-1.173s-.107-.809-.16-1.23c-.418-3.128-.879-6.247-1.42-9.358-.491-2.817-.856-5.628-1.1-8.479a6.968,6.968,0,0,0-.535-2.694c-.328-3.559.137-7.166,2.256-10.134q.531-.627,1.086-1.23c.217-.234.431-.468.655-.709a17.216,17.216,0,0,1,4.024-3.3c.214-.124.424-.251.645-.378C-50.06-2.647-45.4-2.062-41.561-1.36Z" transform="translate(243.988 149.873)" fill="#fff"/>
    <path id="Path_28286" data-name="Path 28286" d="M-75.233,0h11.364a58.358,58.358,0,0,1-.668,6.684h-.668c-.023.431-.023.431-.05.872-.023.394-.05.789-.077,1.2-.02.384-.043.765-.07,1.163-.341,4.078-1.21,8.125-1.942,12.146-.18.976-.354,1.952-.531,2.924-.485,2.667-.973,5.327-1.561,7.971a64.878,64.878,0,0,0-1.056,7.269,22.735,22.735,0,0,1-1.4,5.9c-.17.455-.17.455-.348.919a12.822,12.822,0,0,1-6.671,6.434l-.772.391a12.5,12.5,0,0,1-3.927.381c-.291,0-.582,0-.882,0a45.133,45.133,0,0,1-10.842-1.461,18.435,18.435,0,0,0-3.63-.478,19.3,19.3,0,0,1-4.278-.662,50.715,50.715,0,0,0-5.214-.8l-.9-.12c-.4-.05-.4-.05-.809-.1A16.1,16.1,0,0,1-113,49.8V35.762l4.011-.668c.672-.147,1.34-.3,2.005-.481,1.036-.271,2.069-.535,3.115-.772.358-.084.715-.167,1.083-.251.324-.074.648-.144.983-.221a3.722,3.722,0,0,0,1.838-1.283,12.535,12.535,0,0,1,1.377-.628c8.038-3.446,13.964-9.659,18.342-17.085q.466-.712.939-1.42A13.65,13.65,0,0,0-77.8,9.418a9.232,9.232,0,0,1,.545-1.451A26.813,26.813,0,0,0-76.216,3.78c.117-.572.231-1.143.348-1.715.05-.254.1-.5.15-.765A4.044,4.044,0,0,1-75.233,0Z" transform="translate(358.496 211.559)" fill="#fff"/>
    <path id="Path_28287" data-name="Path 28287" d="M0,0A36.243,36.243,0,0,1,5.963,1.006a27.441,27.441,0,0,0,4.753.665c.622.053,1.24.11,1.862.167.3.027.6.057.919.084,1.24.117,2.48.261,3.717.418l1.16.147A5.468,5.468,0,0,1,20.14,3a11.954,11.954,0,0,0,3.2.625c.648.064.648.064,1.31.13.451.043.906.087,1.357.127s.919.094,1.38.137q1.679.165,3.362.324v.668l.561-.02a47.088,47.088,0,0,1,7.627.625c.418.057.839.11,1.27.167,5.508.765,9.041,2.313,12.781,6.554a4.323,4.323,0,0,1,.822,2.032h.668c2.209,5.973,1.056,13.409-.668,19.385-.114.792-.211,1.588-.294,2.38-.314,2.814-.849,5.571-1.394,8.346-.324,1.658-.6,3.319-.856,4.99-.13.662-.13.662-.465,1-.916.03-1.822.04-2.737.033-.274,0-.548,0-.832,0q-1.313,0-2.634-.01c-.595,0-1.19,0-1.785,0q-2.186-.005-4.378-.017c-.02-.354-.037-.709-.057-1.073-.354-6.3-1.494-12.072-4.492-17.677a3.059,3.059,0,0,1-.465-1.972h-.668c-1-1.922-1-1.922-1-2.674h-.668c-.468-.662-.906-1.324-1.337-2.005a15.723,15.723,0,0,0-3.449-3.88,11.929,11.929,0,0,1-1.357-1.28,19.087,19.087,0,0,0-4.552-3.529v-.668c-.3-.09-.608-.18-.919-.271a4.422,4.422,0,0,1-1.718-.876,16.41,16.41,0,0,0-3.386-1.751c-.632-.281-1.26-.578-1.878-.889A27.645,27.645,0,0,0,1.728,9.428,5.347,5.347,0,0,1,0,9.024Z" transform="translate(245.162 155.076)" fill="#fff"/>
    <path id="Path_28288" data-name="Path 28288" d="M0,0H11.7c.187.966.371,1.928.565,2.924a31.9,31.9,0,0,0,2.443,7.436,5.773,5.773,0,0,1,.668,2.674h.668c.164.371.164.371.334.749a25.366,25.366,0,0,0,3.917,6.049c.725.846,1.387,1.715,2.059,2.6a24.483,24.483,0,0,0,6.621,5.622c.364.227.729.455,1.106.688v.668l.705.264A29.667,29.667,0,0,1,33.82,31.21a36.253,36.253,0,0,0,15.638,4.505c.675.047.675.047,1.009.381.03.939.04,1.872.033,2.811,0,.421,0,.421,0,.852q0,1.354-.01,2.707c0,.612,0,1.22,0,1.832q-.005,2.251-.017,4.5a27.876,27.876,0,0,1-6.684-1c-1.263-.194-2.53-.324-3.8-.461-3.349-.378-6.671-.856-10-1.4-1.915-.318-3.827-.6-5.752-.849a39.353,39.353,0,0,1-4.455-.8c-.842-.191-1.688-.307-2.543-.434a16.149,16.149,0,0,1-9.88-6.414c-.174-.227-.344-.455-.521-.688C4.569,33.573,3.81,30.2,3.342,26.383c-.053-.411-.107-.826-.164-1.247-.3-2.376-.585-4.756-.862-7.136-.03-.254-.06-.508-.09-.769Q2.01,15.368,1.8,13.506A47.853,47.853,0,0,0,.819,7.39,35.31,35.31,0,0,1,.294,3.155C.2,2.112.1,1.073,0,0Z" transform="translate(188.678 211.559)" fill="#fff"/>
    <path id="Path_28289" data-name="Path 28289" d="M-9.283-.013c.261,0,.525,0,.8,0,.551,0,1.1,0,1.658.007Q-5.561,0-4.293-.017c.535,0,1.073,0,1.611,0,.254,0,.5,0,.765-.007C-.182,0-.182,0,.62.548A9.8,9.8,0,0,1,1.566,2.4c.147.371.147.371.3.745s.147.384.3.772A24.134,24.134,0,0,0,4.334,8.476c.127-.328.251-.655.381-.993C6.94,1.748,6.94,1.748,8.01.455A11.53,11.53,0,0,1,12,.054c.257,0,.511-.007.775-.007.538,0,1.076-.007,1.614-.007.826,0,1.651-.013,2.473-.023.525,0,1.049-.007,1.571-.007.247,0,.495-.007.749-.013,1.711.01,1.711.01,2.43.555.759,1,.575,2.226.565,3.429,0,.294,0,.585.007.886,0,.966,0,1.932,0,2.9,0,.672,0,1.344,0,2.012q0,2.111-.007,4.218-.005,2.707,0,5.411.005,2.081,0,4.154,0,1,0,2c0,.929,0,1.855-.007,2.784,0,.277,0,.555.007.839-.02,1.875-.02,1.875-.582,2.594-.9.7-1.768.568-2.888.575-.224,0-.451,0-.685.007-.478,0-.956,0-1.43,0-.732,0-1.461.007-2.192.02-.465,0-.929,0-1.394,0-.421,0-.846,0-1.28,0-1.049-.167-1.049-.167-1.684-.745a5.074,5.074,0,0,1-.538-2.353c-.01-.3-.023-.595-.037-.9s-.013-.615-.023-.932-.02-.625-.033-.949c-.027-.769-.05-1.541-.07-2.309-.144.294-.144.294-.291.6-.438.892-.876,1.788-1.317,2.68-.15.311-.3.622-.458.943-.147.3-.294.595-.448.9-.134.274-.267.548-.408.832A5.413,5.413,0,0,1,5,31.871a3.391,3.391,0,0,1-2.34-.334,19.477,19.477,0,0,1-1.985-3.7c-.164-.351-.328-.7-.5-1.059q-.607-1.293-1.193-2.6c0,.207-.01.414-.013.628q-.04,1.409-.09,2.817c-.01.491-.01.491-.023.989-.01.314-.023.628-.037.949-.007.291-.017.578-.027.876A2.579,2.579,0,0,1-1.726,31.8a4.415,4.415,0,0,1-2.784.541c-.638,0-.638,0-1.293,0-.221,0-.441,0-.672-.007-.675-.007-1.35,0-2.025.007-.428,0-.852,0-1.293,0-.391,0-.782,0-1.186,0A4.2,4.2,0,0,1-13.714,31.2a15,15,0,0,1-.214-2.861c0-.291-.007-.582-.01-.882-.007-.966,0-1.932,0-2.9,0-.668,0-1.34-.007-2.012q0-2.106.01-4.218c.01-1.8,0-3.606-.007-5.411-.007-1.384,0-2.767,0-4.154,0-.665,0-1.33,0-2,0-.929,0-1.858.013-2.787,0-.274-.01-.551-.013-.836a9.692,9.692,0,0,1,.227-2.022C-12.371-.05-10.994-.027-9.283-.013Z" transform="translate(160.614 288.979)" fill="#e60000"/>
    <path id="Path_28290" data-name="Path 28290" d="M-8.063-.007c.411,0,.822,0,1.243,0C-6.178,0-6.178,0-5.526,0l1.3-.01c.615,0,.615,0,1.243,0,.374,0,.749,0,1.133,0A3.3,3.3,0,0,1,.47,1.13a7.046,7.046,0,0,1,.692,1.233c.114.231.227.465.341.705s.227.485.344.735c.231.481.461.959.692,1.44.15.318.15.318.3.645A8.264,8.264,0,0,0,3.812,7.48c0-.187.01-.374.013-.568q.04-1.273.09-2.543c.007-.3.013-.592.023-.892.01-.284.023-.568.037-.859.007-.261.017-.521.023-.792a2.119,2.119,0,0,1,1.15-1.7A12.122,12.122,0,0,1,7.405-.007c.328,0,.328,0,.662,0,.461,0,.922,0,1.387.007Q10.512,0,11.573-.01c.448,0,.9,0,1.347,0,.408,0,.816,0,1.237,0A2.258,2.258,0,0,1,16.179,1.13,25.541,25.541,0,0,1,16.3,3.987c0,.294,0,.585,0,.886q.005,1.449-.007,2.9V9.783q0,2.111-.01,4.218-.01,2.707,0,5.411,0,2.081-.007,4.154v2q0,1.389-.01,2.784c0,.277,0,.555,0,.839a4.5,4.5,0,0,1-.762,3.025,10.6,10.6,0,0,1-2.129.134c-.428,0-.852,0-1.293,0-.224,0-.448,0-.678-.007-.678-.007-1.354,0-2.032.007-.431,0-.859,0-1.3,0-.394,0-.785,0-1.19,0A4.727,4.727,0,0,1,4.147,31.21a7.238,7.238,0,0,1-.9-1.414q-.216-.4-.441-.812c-.144-.281-.291-.558-.441-.846s-.3-.565-.458-.856Q1.349,26.24.8,25.194c-.007.421-.01.846-.017,1.28-.013.555-.03,1.11-.047,1.664,0,.277,0,.558-.007.846-.01.267-.02.535-.03.812-.007.371-.007.371-.013.749-.221.665-.221.665-.943,1.247a6.523,6.523,0,0,1-3.041.541h-1.2c-.411-.007-.822-.01-1.247-.017s-.822,0-1.247,0c-3.493-.02-3.493-.02-4.579-.775a11.729,11.729,0,0,1-.4-3.8c0-.287,0-.572-.007-.866-.01-.946-.013-1.888-.02-2.834,0-.321,0-.645,0-.976q-.015-2.557-.02-5.114-.01-2.647-.04-5.291-.015-2.03-.017-4.061c0-.652-.007-1.3-.013-1.952-.01-.909-.01-1.815-.01-2.724,0-.271-.01-.541-.017-.819A9.06,9.06,0,0,1-11.9,1.13,5.031,5.031,0,0,1-8.063-.007Z" transform="translate(225.976 288.972)" fill="#fb0101"/>
    <path id="Path_28291" data-name="Path 28291" d="M-7.745-.02c.588,0,.588,0,1.19-.01.421,0,.842,0,1.277.007.655,0,.655,0,1.324,0,.922,0,1.845,0,2.767.007,1.176,0,2.353,0,3.529,0,1.13-.007,2.259,0,3.389,0,.421,0,.839,0,1.273-.007,2.988.023,5.418.3,7.66,2.48,1.785,2.487,1.434,5.531,1.454,8.462.007.551.017,1.106.027,1.661.13,5.588.13,5.588-1.815,7.924a2.864,2.864,0,0,0,.217,2.627c.124.318.244.635.371.963q.391,1,.785,2c1.24,3.249,1.24,3.249.966,5.11a2.445,2.445,0,0,1-1,1,19.026,19.026,0,0,1-2.463.144c-.241,0-.481,0-.729.007-.508,0-1.016,0-1.521,0q-1.163,0-2.326.02c-.495,0-.989,0-1.481,0-.234.007-.465.01-.7.013a3.692,3.692,0,0,1-2.6-.775,5.784,5.784,0,0,1-1.039-2.039c-.074-.237-.144-.475-.217-.719s-.137-.488-.207-.739-.147-.5-.224-.755c-.18-.612-.354-1.223-.528-1.835-.013.371-.023.742-.037,1.123-.023.488-.043.976-.067,1.467-.01.364-.01.364-.023.739-.07,1.437-.15,2.35-1.21,3.356a8.966,8.966,0,0,1-2.233.164c-.217,0-.434,0-.658,0-.458,0-.916,0-1.377-.013q-1.048-.01-2.1,0c-4.011-.02-4.011-.02-5.334-1.156a15.282,15.282,0,0,1-.217-2.861c0-.291,0-.582-.007-.882-.007-.966,0-1.935,0-2.9,0-.668,0-1.34-.007-2.012q0-2.106.01-4.218c.01-1.8,0-3.606-.007-5.411-.007-1.384,0-2.767,0-4.154,0-.665,0-1.33,0-2,0-.929,0-1.858.01-2.787,0-.274-.007-.551-.01-.836A9.692,9.692,0,0,1-11.4,1.113,4.631,4.631,0,0,1-7.745-.02Z" transform="translate(338.784 288.989)" fill="#e50000"/>
    <path id="Path_28292" data-name="Path 28292" d="M-19.441-.06c.371,0,.745,0,1.126,0q1.178-.005,2.35,0c1.2,0,2.4-.01,3.6-.017h2.283l1.09-.01c.331,0,.665,0,1.006.007H-7.1A2.268,2.268,0,0,1-5.347,1.043a10.53,10.53,0,0,1,.475,1.721c.074.334.147.672.224,1.019s.144.7.221,1.063c.117.521.117.521.234,1.053.638,2.978.638,2.978.184,4.5-.668.668-.668.668-1.848.745-.508,0-1.013,0-1.517-.01-.267,0-.531,0-.809,0-.849,0-1.7-.013-2.553-.02l-1.728-.01q-2.126-.01-4.245-.033v10.7H-13.7v-1c-.207-.033-.414-.07-.628-.1-.709-.231-.709-.231-1.377-1.233a22.584,22.584,0,0,1-.127-3.155c-.007-.287-.017-.575-.023-.869,0-.418,0-.418,0-.842,0-.251-.007-.5-.01-.765a2.946,2.946,0,0,1,1.5-2.055,15.565,15.565,0,0,1,2.58-.167h.752c.521,0,1.046,0,1.568.01.8.01,1.6.007,2.4,0l1.527.01c.237,0,.478,0,.725,0,1.644.03,1.644.03,2.376.545a3.319,3.319,0,0,1,.551,2.406v1.116c-.007.394-.01.792-.017,1.2s0,.816,0,1.233c-.007,1.3-.02,2.6-.03,3.9-.007.879-.01,1.761-.017,2.644Q-1.973,27.878-2,31.123a13.482,13.482,0,0,1-3.5,1.394c-.267.057-.538.114-.812.174s-.548.11-.832.167-.541.117-.822.18a20.64,20.64,0,0,1-5.067.424l-.668-1.337-.782.01c-1.18.013-2.363.023-3.543.033-.608.007-.608.007-1.227.017-6.039.03-6.039.03-8.486-2.065a10.724,10.724,0,0,1-1.39-6.1c0-.408-.007-.812-.01-1.233s0-.869-.007-1.317V20.8q-.01-1.775-.01-3.546-.005-1.825-.02-3.643c-.007-.939-.007-1.882-.01-2.821,0-.662-.007-1.327-.013-1.989.007-2.55.14-4.579,1.568-6.761l.458-.451c.144-.157.291-.311.441-.468C-24.564-.217-21.894-.063-19.441-.06Z" transform="translate(302.648 289.058)" fill="#f80707"/>
    <path id="Path_28293" data-name="Path 28293" d="M-7.636-.02c.575,0,.575,0,1.16-.01.411,0,.819,0,1.243.007.635,0,.635,0,1.283,0,.9,0,1.791,0,2.687.007,1.146,0,2.289,0,3.436,0,1.1-.007,2.192,0,3.289,0L6.7-.03l1.16.01c.334,0,.668,0,1.016,0a5.058,5.058,0,0,1,2.6,1.13,4.638,4.638,0,0,1,.455,1.561c.057.3.11.612.167.922s.1.635.15.963.114.628.17.949c.719,4.158.719,4.158-.023,5.234a4.387,4.387,0,0,1-1.922.732l.668.668a12.769,12.769,0,0,1,.077,1.882c0,.371,0,.745,0,1.13s-.007.782-.01,1.186c0,.588,0,.588,0,1.19-.013,2.921-.013,2.921-.394,3.3l2.005,1a20.075,20.075,0,0,1-.772,6.12c-.074.3-.144.6-.217.906-.074.284-.144.572-.221.866-.064.257-.127.515-.194.782a3.266,3.266,0,0,1-1.27,1.688,9.537,9.537,0,0,1-1.972.13l-1.227.01c-.438,0-.872-.007-1.324-.007s-.909,0-1.36,0q-1.424,0-2.851-.007c-1.217-.007-2.433,0-3.65,0q-1.4.005-2.807,0c-.668,0-1.334,0-2,.007-.608-.007-.608-.007-1.227-.01-.358,0-.715,0-1.083,0a2.257,2.257,0,0,1-1.888-1.13,25.583,25.583,0,0,1-.14-2.861c0-.291-.007-.582-.01-.882-.007-.966-.007-1.935-.007-2.9q-.005-1-.007-2.012-.01-2.106,0-4.218,0-2.7-.023-5.411-.01-2.076-.007-4.154l-.01-2q-.01-1.394,0-2.787c0-.274-.007-.551-.013-.836a9.57,9.57,0,0,1,.221-2.022A4.576,4.576,0,0,1-7.636-.02Z" transform="translate(313.564 288.989)" fill="#f70303"/>
    <path id="Path_28294" data-name="Path 28294" d="M-19.457-.02l.842-.01c.3,0,.6,0,.906.007s.615,0,.932,0c.648,0,1.3,0,1.952.007q1.494.005,2.988-.007c.635,0,1.267,0,1.9,0,.3,0,.595,0,.906-.007.414.007.414.007.839.01.368,0,.368,0,.742,0A2.271,2.271,0,0,1-5.8,1.113,8.341,8.341,0,0,1-5.349,2.6c.114.451.114.451.227.912.077.328.157.655.234.993.127.511.127.511.254,1.029q.4,1.639.8,3.282.516,2.136,1.039,4.275c.087.348.17.7.257,1.053.688,2.8,1.444,5.585,2.233,8.362,1.8,6.374,1.8,6.374,1.524,9.017-.819.819-1.287.752-2.41.769h-.712c-.244,0-.485,0-.735,0-.511,0-1.026,0-1.537,0q-1.178,0-2.356.017H-8.026l-.715.01a11.512,11.512,0,0,1-1.741-.13,4.981,4.981,0,0,1-1-2.674l-5.013-.334v2.34c-.832.832-1.324.749-2.46.762l-.735-.007c-.251,0-.5,0-.755,0-.531,0-1.059,0-1.588,0-.809,0-1.618,0-2.426,0-.515,0-1.026,0-1.541,0-.241,0-.485,0-.735.007-1.715-.017-1.715-.017-2.46-.762-.214-3.028,1.006-6.28,1.755-9.191.14-.548.277-1.093.418-1.641.712-2.8,1.434-5.6,2.233-8.386.428-1.494.819-2.991,1.193-4.5.1-.414.207-.826.314-1.25.2-.819.408-1.638.6-2.46.094-.371.187-.745.284-1.13.084-.334.164-.668.251-1.013A2.436,2.436,0,0,1-19.457-.02Z" transform="translate(272.021 288.989)" fill="#f80303"/>
    <path id="Path_28295" data-name="Path 28295" d="M-19.407-.02l.842-.01c.3,0,.6,0,.906.007s.615,0,.932,0c.648,0,1.3,0,1.952.007q1.494.005,2.988-.007c.635,0,1.267,0,1.9,0,.3,0,.595,0,.906-.007.414.007.414.007.839.01.368,0,.368,0,.742,0a2.271,2.271,0,0,1,1.648,1.13A8.341,8.341,0,0,1-5.3,2.6c.114.451.114.451.227.912.077.328.157.655.234.993.127.511.127.511.254,1.029q.4,1.639.8,3.282.516,2.136,1.039,4.275c.087.348.17.7.257,1.053.688,2.8,1.444,5.585,2.233,8.362C1.568,29,1.568,29,1.264,31.527c-1.628,1.086-3.543.779-5.448.772q-1.1,0-2.192.017H-7.77c-.421,0-.846,0-1.28,0a2.627,2.627,0,0,1-1.674-.528c-.378-.6-.378-.6-.712-2.269l-5.013-.334v2.005a1.909,1.909,0,0,1-1,1,11.88,11.88,0,0,1-2.233.134c-.217,0-.434,0-.658,0-.458,0-.916,0-1.377-.007-.7-.007-1.4,0-2.1.007-.448,0-.9,0-1.34,0-.4,0-.812,0-1.227,0a5.223,5.223,0,0,1-2.767-1.133A82.157,82.157,0,0,1-27.208,21.6c.124-.478.244-.956.364-1.434.662-2.607,1.34-5.207,2.082-7.794.434-1.517.829-3.041,1.213-4.572.1-.411.2-.822.311-1.247q.311-1.223.6-2.457c.094-.371.187-.745.284-1.13.084-.334.164-.668.251-1.013A2.436,2.436,0,0,1-19.407-.02Z" transform="translate(212.146 288.989)" fill="#e70202"/>
    <path id="Path_28296" data-name="Path 28296" d="M0,0H11.364c1.878,3.76,1.878,3.76,2.493,5.2.13.307.261.612.394.926s.257.615.391.929l.411.969c.331.779.662,1.554.989,2.333a7.664,7.664,0,0,0,1.6-2.684c.177-.4.354-.805.535-1.22s.374-.852.558-1.277.374-.852.561-1.277c.344-.782.685-1.561,1.029-2.343.231-.525.471-1.046.729-1.561H32.42V5.682a2.456,2.456,0,0,1-2.005.668c-.782.1-1.561.214-2.34.334l-.785.07a7.1,7.1,0,0,0-2.911,2c-.261.234-.261.234-.525.475a17.9,17.9,0,0,0-2.8,3.473l-.816.481a4.206,4.206,0,0,0-1.671,1.755c-.735,1.076-.735,1.076-1.775,1.337A13.793,13.793,0,0,1,12.7,14.706l-.334-.668a8.073,8.073,0,0,0-1.691-.207c-.307-.027-.615-.05-.932-.077l-.719-.05v.668c-.267.134-.535.271-.812.411-.953.521-.953.521-1.133,1.581-.033.378-.067.752-.1,1.143a7.231,7.231,0,0,1-1.965,4.656c-1,.565-1,.565-4.679.565Z" transform="translate(148.572 290.77)" fill="#fb0404"/>
    <path id="Path_28297" data-name="Path 28297" d="M0-.3Q3.85-.345,7.7-.37q1.79-.01,3.58-.03c1.153-.017,2.306-.023,3.459-.027.652,0,1.3-.013,1.952-.023,2.4,0,4.011.16,6.033,1.487a4.563,4.563,0,0,1,1.42,2.968c-.027.234-.053.468-.084.709a5.537,5.537,0,0,1-4.011.668q-.737-.236-1.464-.5a15.113,15.113,0,0,0-9.9.147,3.323,3.323,0,0,0-1.684,1.8,11.916,11.916,0,0,0-.321,2.226h2.34v4.011q1.128-.055,2.256-.127c.628-.033.628-.033,1.27-.07a4.6,4.6,0,0,0,2.49-.805,4.987,4.987,0,0,0,.334-1.671h2.34a7.968,7.968,0,0,1,.668,6.35,3.994,3.994,0,0,1-1.337,1.337A5.14,5.14,0,0,1,15.334,18a42.346,42.346,0,0,0-5.558-.271c-.271,0-.541,0-.822,0-.645,0-1.29.01-1.935.017-.1.2-.2.4-.3.6-.856,1.681-1.628,2.944-3.379,3.74a24.233,24.233,0,0,1-2.674.668c-.618-.618-.391-1.631-.4-2.46,0-.221-.007-.441-.01-.672-.01-.735-.017-1.471-.027-2.206C.221,16.913.214,16.4.207,15.9q-.025-2.015-.05-4.027Q.132,9.814.1,7.762.048,3.731,0-.3Z" transform="translate(329.051 291.07)" fill="#fc0808"/>
    <path id="Path_28298" data-name="Path 28298" d="M-9.283-.013c.261,0,.525,0,.8,0,.551,0,1.1,0,1.658.007Q-5.561,0-4.293-.017c.535,0,1.073,0,1.611,0,.254,0,.5,0,.765-.007C-.182,0-.182,0,.62.548A9.8,9.8,0,0,1,1.566,2.4c.147.371.147.371.3.745s.147.384.3.772A24.134,24.134,0,0,0,4.334,8.476c.127-.328.251-.655.381-.993C6.94,1.748,6.94,1.748,8.01.455A11.53,11.53,0,0,1,12,.054c.257,0,.511-.007.775-.007.538,0,1.076-.007,1.614-.007.826,0,1.651-.013,2.473-.023.525,0,1.049-.007,1.571-.007.247,0,.495-.007.749-.013,1.711.01,1.711.01,2.43.555.759,1,.575,2.226.565,3.429,0,.294,0,.585.007.886,0,.966,0,1.932,0,2.9,0,.672,0,1.344,0,2.012q0,2.111-.007,4.218-.005,2.707,0,5.411.005,2.081,0,4.154,0,1,0,2c0,.929,0,1.855-.007,2.784,0,.277,0,.555.007.839-.02,1.875-.02,1.875-.582,2.594-.9.7-1.768.568-2.888.575-.224,0-.451,0-.685.007-.478,0-.956,0-1.43,0-.732,0-1.461.007-2.192.02-.465,0-.929,0-1.394,0-.421,0-.846,0-1.28,0-1.049-.167-1.049-.167-1.684-.745a5.074,5.074,0,0,1-.538-2.353c-.01-.3-.023-.595-.037-.9s-.013-.615-.023-.932-.02-.625-.033-.949c-.027-.769-.05-1.541-.07-2.309-.144.294-.144.294-.291.6-.438.892-.876,1.788-1.317,2.68-.15.311-.3.622-.458.943-.147.3-.294.595-.448.9-.134.274-.267.548-.408.832A5.413,5.413,0,0,1,5,31.871a3.391,3.391,0,0,1-2.34-.334,19.477,19.477,0,0,1-1.985-3.7c-.164-.351-.328-.7-.5-1.059q-.607-1.293-1.193-2.6c0,.207-.01.414-.013.628q-.04,1.409-.09,2.817c-.01.491-.01.491-.023.989-.01.314-.023.628-.037.949-.007.291-.017.578-.027.876A2.579,2.579,0,0,1-1.726,31.8a4.415,4.415,0,0,1-2.784.541c-.638,0-.638,0-1.293,0-.221,0-.441,0-.672-.007-.675-.007-1.35,0-2.025.007-.428,0-.852,0-1.293,0-.391,0-.782,0-1.186,0A4.2,4.2,0,0,1-13.714,31.2a15,15,0,0,1-.214-2.861c0-.291-.007-.582-.01-.882-.007-.966,0-1.932,0-2.9,0-.668,0-1.34-.007-2.012q0-2.106.01-4.218c.01-1.8,0-3.606-.007-5.411-.007-1.384,0-2.767,0-4.154,0-.665,0-1.33,0-2,0-.929,0-1.858.013-2.787,0-.274-.01-.551-.013-.836a9.692,9.692,0,0,1,.227-2.022C-12.371-.05-10.994-.027-9.283-.013Zm-2.761,1.8V30.535h9.358l.334-12.366c.428.866.852,1.728,1.293,2.62.414.832.826,1.668,1.24,2.5l.862,1.745c.411.836.826,1.668,1.24,2.5.127.261.257.521.388.792a3.934,3.934,0,0,0,1.661,2.206Q5.6,28.073,6.867,25.608l.862-1.674c.414-.8.826-1.6,1.24-2.406.127-.251.257-.5.388-.755l.364-.709c.16-.307.16-.307.321-.622q.491-.968.976-1.942l.334,13.035h9.024V1.791H9.013c-.648,1.4-1.3,2.8-1.962,4.241-.307.655-.307.655-.618,1.327-.241.525-.241.525-.488,1.056-.164.358-.328.712-.5,1.076-.394.879-.762,1.761-1.113,2.66A12.491,12.491,0,0,1,2.442,8.8c-.16-.388-.324-.775-.488-1.173s-.331-.8-.5-1.217q-.5-1.2-1-2.4C.309,3.656.166,3.306.015,2.941c-.287-.782-.287-.782-.7-1.15Z" transform="translate(160.614 288.979)" fill="#090400"/>
    <path id="Path_28299" data-name="Path 28299" d="M-19.441-.06c.371,0,.745,0,1.126,0q1.178-.005,2.35,0c1.2,0,2.4-.01,3.6-.017h2.283l1.09-.01c.331,0,.665,0,1.006.007H-7.1A2.268,2.268,0,0,1-5.347,1.043a10.53,10.53,0,0,1,.475,1.721c.074.334.147.672.224,1.019s.144.7.221,1.063c.117.521.117.521.234,1.053.638,2.978.638,2.978.184,4.5-.668.668-.668.668-1.848.745-.508,0-1.013,0-1.517-.01-.267,0-.531,0-.809,0-.849,0-1.7-.013-2.553-.02l-1.728-.01q-2.126-.01-4.245-.033v10.7H-13.7v-1c-.207-.033-.414-.07-.628-.1-.709-.231-.709-.231-1.377-1.233a22.584,22.584,0,0,1-.127-3.155c-.007-.287-.017-.575-.023-.869,0-.418,0-.418,0-.842,0-.251-.007-.5-.01-.765a2.946,2.946,0,0,1,1.5-2.055,15.565,15.565,0,0,1,2.58-.167h.752c.521,0,1.046,0,1.568.01.8.01,1.6.007,2.4,0l1.527.01c.237,0,.478,0,.725,0,1.644.03,1.644.03,2.376.545a3.319,3.319,0,0,1,.551,2.406v1.116c-.007.394-.01.792-.017,1.2s0,.816,0,1.233c-.007,1.3-.02,2.6-.03,3.9-.007.879-.01,1.761-.017,2.644Q-1.973,27.878-2,31.123a13.482,13.482,0,0,1-3.5,1.394c-.267.057-.538.114-.812.174s-.548.11-.832.167-.541.117-.822.18a20.64,20.64,0,0,1-5.067.424l-.668-1.337-.782.01c-1.18.013-2.363.023-3.543.033-.608.007-.608.007-1.227.017-6.039.03-6.039.03-8.486-2.065a10.724,10.724,0,0,1-1.39-6.1c0-.408-.007-.812-.01-1.233s0-.869-.007-1.317V20.8q-.01-1.775-.01-3.546-.005-1.825-.02-3.643c-.007-.939-.007-1.882-.01-2.821,0-.662-.007-1.327-.013-1.989.007-2.55.14-4.579,1.568-6.761l.458-.451c.144-.157.291-.311.441-.468C-24.564-.217-21.894-.063-19.441-.06ZM-26.4,3.048a7.185,7.185,0,0,0-1.133,4.228c0,.434-.007.869-.01,1.317,0,.471,0,.943.007,1.41,0,.488,0,.976,0,1.461,0,1.019,0,2.039.007,3.055,0,1.3,0,2.6,0,3.9,0,1.006,0,2.009,0,3.015,0,.481,0,.959,0,1.44,0,.672,0,1.344.007,2.015,0,.381,0,.762,0,1.153A5.517,5.517,0,0,0-25.52,29.9a7.565,7.565,0,0,0,4.024.682c.271,0,.541,0,.822-.007.862-.007,1.725-.023,2.584-.04.588-.007,1.173-.013,1.761-.017q2.151-.025,4.3-.067v1.671c4.652-.354,4.652-.354,8.69-2.005.03-.521.04-1.046.037-1.571V27.533c0-.361,0-.725,0-1.1s0-.742,0-1.123c0-1.19-.007-2.38-.01-3.566,0-.805,0-1.608,0-2.41q-.005-2.963-.017-5.926h-10.7v6.016h1.671V23.1h-5.682l.334-13.369L-5.347,9.4A50.455,50.455,0,0,0-6.2,3.864c-.09-.408-.18-.816-.274-1.233-.07-.3-.137-.608-.207-.919q-3.65-.05-7.3-.074c-.829-.007-1.654-.017-2.483-.027-1.19-.017-2.38-.023-3.569-.03l-1.116-.02C-23.3,1.561-24.7,1.681-26.4,3.048Z" transform="translate(302.648 289.058)" fill="#070600"/>
    <path id="Path_28300" data-name="Path 28300" d="M-7.636-.02c.575,0,.575,0,1.16-.01.411,0,.819,0,1.243.007.635,0,.635,0,1.283,0,.9,0,1.791,0,2.687.007,1.146,0,2.289,0,3.436,0,1.1-.007,2.192,0,3.289,0L6.7-.03l1.16.01c.334,0,.668,0,1.016,0a5.058,5.058,0,0,1,2.6,1.13,4.638,4.638,0,0,1,.455,1.561c.057.3.11.612.167.922s.1.635.15.963.114.628.17.949c.719,4.158.719,4.158-.023,5.234a4.387,4.387,0,0,1-1.922.732l.668.668a12.769,12.769,0,0,1,.077,1.882c0,.371,0,.745,0,1.13s-.007.782-.01,1.186c0,.588,0,.588,0,1.19-.013,2.921-.013,2.921-.394,3.3l2.005,1a20.075,20.075,0,0,1-.772,6.12c-.074.3-.144.6-.217.906-.074.284-.144.572-.221.866-.064.257-.127.515-.194.782a3.266,3.266,0,0,1-1.27,1.688,9.537,9.537,0,0,1-1.972.13l-1.227.01c-.438,0-.872-.007-1.324-.007s-.909,0-1.36,0q-1.424,0-2.851-.007c-1.217-.007-2.433,0-3.65,0q-1.4.005-2.807,0c-.668,0-1.334,0-2,.007-.608-.007-.608-.007-1.227-.01-.358,0-.715,0-1.083,0a2.257,2.257,0,0,1-1.888-1.13,25.583,25.583,0,0,1-.14-2.861c0-.291-.007-.582-.01-.882-.007-.966-.007-1.935-.007-2.9q-.005-1-.007-2.012-.01-2.106,0-4.218,0-2.7-.023-5.411-.01-2.076-.007-4.154l-.01-2q-.01-1.394,0-2.787c0-.274-.007-.551-.013-.836a9.57,9.57,0,0,1,.221-2.022A4.576,4.576,0,0,1-7.636-.02Zm-1.942,1.8V30.525H9.807a32.473,32.473,0,0,0,1.671-7.687H-.554V19.829H9.807V12.811H-.554V9.469H11.478A53.559,53.559,0,0,0,9.807,1.781Z" transform="translate(313.564 288.989)" fill="#060500"/>
    <path id="Path_28301" data-name="Path 28301" d="M-8.063-.007c.411,0,.822,0,1.243,0C-6.178,0-6.178,0-5.526,0l1.3-.01c.615,0,.615,0,1.243,0,.374,0,.749,0,1.133,0A3.3,3.3,0,0,1,.47,1.13a7.046,7.046,0,0,1,.692,1.233c.114.231.227.465.341.705s.227.485.344.735c.231.481.461.959.692,1.44.15.318.15.318.3.645A8.264,8.264,0,0,0,3.812,7.48c0-.187.01-.374.013-.568q.04-1.273.09-2.543c.007-.3.013-.592.023-.892.01-.284.023-.568.037-.859.007-.261.017-.521.023-.792a2.119,2.119,0,0,1,1.15-1.7A12.122,12.122,0,0,1,7.405-.007c.328,0,.328,0,.662,0,.461,0,.922,0,1.387.007Q10.512,0,11.573-.01c.448,0,.9,0,1.347,0,.408,0,.816,0,1.237,0A2.258,2.258,0,0,1,16.179,1.13,25.541,25.541,0,0,1,16.3,3.987c0,.294,0,.585,0,.886q.005,1.449-.007,2.9V9.783q0,2.111-.01,4.218-.01,2.707,0,5.411,0,2.081-.007,4.154v2q0,1.389-.01,2.784c0,.277,0,.555,0,.839a4.5,4.5,0,0,1-.762,3.025,10.6,10.6,0,0,1-2.129.134c-.428,0-.852,0-1.293,0-.224,0-.448,0-.678-.007-.678-.007-1.354,0-2.032.007-.431,0-.859,0-1.3,0-.394,0-.785,0-1.19,0A4.727,4.727,0,0,1,4.147,31.21a7.238,7.238,0,0,1-.9-1.414q-.216-.4-.441-.812c-.144-.281-.291-.558-.441-.846s-.3-.565-.458-.856Q1.349,26.24.8,25.194c-.007.421-.01.846-.017,1.28-.013.555-.03,1.11-.047,1.664,0,.277,0,.558-.007.846-.01.267-.02.535-.03.812-.007.371-.007.371-.013.749-.221.665-.221.665-.943,1.247a6.523,6.523,0,0,1-3.041.541h-1.2c-.411-.007-.822-.01-1.247-.017s-.822,0-1.247,0c-3.493-.02-3.493-.02-4.579-.775a11.729,11.729,0,0,1-.4-3.8c0-.287,0-.572-.007-.866-.01-.946-.013-1.888-.02-2.834,0-.321,0-.645,0-.976q-.015-2.557-.02-5.114-.01-2.647-.04-5.291-.015-2.03-.017-4.061c0-.652-.007-1.3-.013-1.952-.01-.909-.01-1.815-.01-2.724,0-.271-.01-.541-.017-.819A9.06,9.06,0,0,1-11.9,1.13,5.031,5.031,0,0,1-8.063-.007Zm-2.162,1.8V30.541H-1.2l.334-11.364c.6,1.07,1.213,2.136,1.838,3.239.378.642.755,1.287,1.136,1.928A19.162,19.162,0,0,1,3.689,27.63c.481,1.394.481,1.394,2.129,2.911h9.024V1.8H5.818L5.483,14.164,2.81,8.817c-.592-1.1-1.183-2.192-1.8-3.279C.8,5.154.8,5.154.584,4.766.016,3.75-.556,2.767-1.2,1.8Z" transform="translate(225.976 288.972)" fill="#080400"/>
    <path id="Path_28302" data-name="Path 28302" d="M-49.268,0h.334V28.743h-9.024a7.929,7.929,0,0,1-2.366-3.586,26.475,26.475,0,0,0-1.862-3.489c-.836-1.42-1.644-2.854-2.457-4.288l-.334,11.364H-74V5.348h.334V22.393a4.873,4.873,0,0,0,2.861.084c.257-.053.511-.107.775-.16a3.164,3.164,0,0,0,1.711-1.26,5.341,5.341,0,0,0,.374-1.44c.053-.267.107-.531.164-.805.107-.618.184-1.243.257-1.868a2.946,2.946,0,0,1,1.544-2.236,5.367,5.367,0,0,1,3.947.02c.822.411,1.618.842,2.4,1.317v.668h.668a8.943,8.943,0,0,1,2.089,3.071c.769,1.237,1.471,1.39,2.834,1.771.6.134,1.213.241,1.825.338.939.167.939.167,2.944,1.17Z" transform="translate(289.75 290.77)" fill="#db0000"/>
    <path id="Path_28303" data-name="Path 28303" d="M-7.745-.02c.588,0,.588,0,1.19-.01.421,0,.842,0,1.277.007.655,0,.655,0,1.324,0,.922,0,1.845,0,2.767.007,1.176,0,2.353,0,3.529,0,1.13-.007,2.259,0,3.389,0,.421,0,.839,0,1.273-.007,2.988.023,5.418.3,7.66,2.48,1.785,2.487,1.434,5.531,1.454,8.462.007.551.017,1.106.027,1.661.13,5.588.13,5.588-1.815,7.924a2.864,2.864,0,0,0,.217,2.627c.124.318.244.635.371.963q.391,1,.785,2c1.24,3.249,1.24,3.249.966,5.11a2.445,2.445,0,0,1-1,1,19.026,19.026,0,0,1-2.463.144c-.241,0-.481,0-.729.007-.508,0-1.016,0-1.521,0q-1.163,0-2.326.02c-.495,0-.989,0-1.481,0-.234.007-.465.01-.7.013a3.692,3.692,0,0,1-2.6-.775,5.784,5.784,0,0,1-1.039-2.039c-.074-.237-.144-.475-.217-.719s-.137-.488-.207-.739-.147-.5-.224-.755c-.18-.612-.354-1.223-.528-1.835-.013.371-.023.742-.037,1.123-.023.488-.043.976-.067,1.467-.01.364-.01.364-.023.739-.07,1.437-.15,2.35-1.21,3.356a8.966,8.966,0,0,1-2.233.164c-.217,0-.434,0-.658,0-.458,0-.916,0-1.377-.013q-1.048-.01-2.1,0c-4.011-.02-4.011-.02-5.334-1.156a15.282,15.282,0,0,1-.217-2.861c0-.291,0-.582-.007-.882-.007-.966,0-1.935,0-2.9,0-.668,0-1.34-.007-2.012q0-2.106.01-4.218c.01-1.8,0-3.606-.007-5.411-.007-1.384,0-2.767,0-4.154,0-.665,0-1.33,0-2,0-.929,0-1.858.01-2.787,0-.274-.007-.551-.01-.836A9.692,9.692,0,0,1-11.4,1.113,4.631,4.631,0,0,1-7.745-.02Zm-1.989,1.8V30.525H-.375v-8.69l2.34.334q.471,1.243.939,2.487c.09.227.177.458.267.7.645,1.715,1.223,3.432,1.8,5.174H15.333c-.622-2.076-1.243-4.1-2.005-6.12-.084-.227-.164-.455-.251-.685a17.68,17.68,0,0,0-1.755-3.556q.371-.115.752-.231a5.131,5.131,0,0,0,2.256-2.109,16.825,16.825,0,0,0,.414-5.358c0-.712.013-1.424.023-2.139.02-2.373,0-4.4-1.106-6.541A6.5,6.5,0,0,0,9.357,1.7c-.351,0-.705,0-1.066,0H7.058l-1.287.01c-.588,0-.588,0-1.19,0-1.464,0-2.928.013-4.392.02C-4.723,1.761-4.723,1.761-9.733,1.781Z" transform="translate(338.784 288.989)" fill="#080600"/>
    <path id="Path_28304" data-name="Path 28304" d="M-10.652,0H2.716c1,4.011,1,4.011.668,5.682a8.54,8.54,0,0,1-3.737.09c-1.2-.114-2.393-.157-3.6-.174-.431-.01-.859-.017-1.3-.027l-1.056.11-.668,1c-.658.354-1.327.692-2.005,1v1a3.755,3.755,0,0,1-.334,1.922,9.474,9.474,0,0,0-.334,3.426l1.337-.668.334,3.008,2.005.668-.334,2.34h4.679v.334l-3.676.334v.334l3.676.334v.334q-1.283.015-2.57.02l-.729.01a16.527,16.527,0,0,1-3.72-.364,17.615,17.615,0,0,0-4.345,1c-.291.053-.578.11-.876.167A7.76,7.76,0,0,0-16,22.727a25.375,25.375,0,0,1,1.076-6.036c.979-3.442,1.845-6.908,2.7-10.381C-11.7,4.228-11.184,2.146-10.652,0Z" transform="translate(202.339 290.77)" fill="#fb0808"/>
    <path id="Path_28305" data-name="Path 28305" d="M-10.652,0H2.716c1,4.011,1,4.011.668,5.682a8.54,8.54,0,0,1-3.737.09c-1.2-.114-2.393-.157-3.6-.174-.431-.01-.859-.017-1.3-.027l-1.056.11-.668,1c-.658.354-1.327.692-2.005,1v1a3.755,3.755,0,0,1-.334,1.922,9.474,9.474,0,0,0-.334,3.426l1.337-.668.334,3.008,2.005.668-.334,2.34h4.679v.334l-3.676.334v.334l3.676.334v.334c-4.211.057-4.211.057-5.809-.187a11.732,11.732,0,0,0-5.555.856c-.555.12-1.113.231-1.671.334-.445.11-.892.221-1.337.334a27.645,27.645,0,0,1,1.08-5.762c.648-2.249,1.253-4.5,1.822-6.775.064-.261.127-.521.194-.789q.346-1.379.685-2.757C-11.7,4.228-11.184,2.146-10.652,0Z" transform="translate(262.164 290.77)" fill="#fb0808"/>
    <path id="Path_28306" data-name="Path 28306" d="M-19.457-.02l.842-.01c.3,0,.6,0,.906.007s.615,0,.932,0c.648,0,1.3,0,1.952.007q1.494.005,2.988-.007c.635,0,1.267,0,1.9,0,.3,0,.595,0,.906-.007.414.007.414.007.839.01.368,0,.368,0,.742,0A2.271,2.271,0,0,1-5.8,1.113,8.341,8.341,0,0,1-5.349,2.6c.114.451.114.451.227.912.077.328.157.655.234.993.127.511.127.511.254,1.029q.4,1.639.8,3.282.516,2.136,1.039,4.275c.087.348.17.7.257,1.053.688,2.8,1.444,5.585,2.233,8.362,1.8,6.374,1.8,6.374,1.524,9.017-.819.819-1.287.752-2.41.769h-.712c-.244,0-.485,0-.735,0-.511,0-1.026,0-1.537,0q-1.178,0-2.356.017H-8.026l-.715.01a11.512,11.512,0,0,1-1.741-.13,4.981,4.981,0,0,1-1-2.674l-5.013-.334v2.34c-.832.832-1.324.749-2.46.762l-.735-.007c-.251,0-.5,0-.755,0-.531,0-1.059,0-1.588,0-.809,0-1.618,0-2.426,0-.515,0-1.026,0-1.541,0-.241,0-.485,0-.735.007-1.715-.017-1.715-.017-2.46-.762-.214-3.028,1.006-6.28,1.755-9.191.14-.548.277-1.093.418-1.641.712-2.8,1.434-5.6,2.233-8.386.428-1.494.819-2.991,1.193-4.5.1-.414.207-.826.314-1.25.2-.819.408-1.638.6-2.46.094-.371.187-.745.284-1.13.084-.334.164-.668.251-1.013A2.436,2.436,0,0,1-19.457-.02Zm-1.053,1.8c-.318,1.28-.635,2.563-.966,3.884-.257,1.039-.518,2.079-.775,3.118q-.406,1.634-.812,3.262c-1.1,4.428-2.2,8.847-3.453,13.232a19.224,19.224,0,0,0-1.013,5.247h9.358c.722-1.811.722-1.811.668-3.008h7.353c.167,1.487.167,1.487.334,3.008H-.122c-.508-2.888-.508-2.888-1.19-5.7-.1-.361-.2-.725-.3-1.1-.107-.391-.214-.779-.328-1.18-1.253-4.606-2.4-9.231-3.529-13.87-.084-.341-.167-.685-.251-1.036q-.712-2.928-1.42-5.856Z" transform="translate(272.021 288.989)" fill="#090600"/>
    <path id="Path_28307" data-name="Path 28307" d="M-19.407-.02l.842-.01c.3,0,.6,0,.906.007s.615,0,.932,0c.648,0,1.3,0,1.952.007q1.494.005,2.988-.007c.635,0,1.267,0,1.9,0,.3,0,.595,0,.906-.007.414.007.414.007.839.01.368,0,.368,0,.742,0a2.271,2.271,0,0,1,1.648,1.13A8.341,8.341,0,0,1-5.3,2.6c.114.451.114.451.227.912.077.328.157.655.234.993.127.511.127.511.254,1.029q.4,1.639.8,3.282.516,2.136,1.039,4.275c.087.348.17.7.257,1.053.688,2.8,1.444,5.585,2.233,8.362C1.568,29,1.568,29,1.264,31.527c-1.628,1.086-3.543.779-5.448.772q-1.1,0-2.192.017H-7.77c-.421,0-.846,0-1.28,0a2.627,2.627,0,0,1-1.674-.528c-.378-.6-.378-.6-.712-2.269l-5.013-.334v2.005a1.909,1.909,0,0,1-1,1,11.88,11.88,0,0,1-2.233.134c-.217,0-.434,0-.658,0-.458,0-.916,0-1.377-.007-.7-.007-1.4,0-2.1.007-.448,0-.9,0-1.34,0-.4,0-.812,0-1.227,0a5.223,5.223,0,0,1-2.767-1.133A82.157,82.157,0,0,1-27.208,21.6c.124-.478.244-.956.364-1.434.662-2.607,1.34-5.207,2.082-7.794.434-1.517.829-3.041,1.213-4.572.1-.411.2-.822.311-1.247q.311-1.223.6-2.457c.094-.371.187-.745.284-1.13.084-.334.164-.668.251-1.013A2.436,2.436,0,0,1-19.407-.02Zm-1.053,1.8c-.318,1.28-.635,2.563-.966,3.884-.257,1.039-.518,2.079-.775,3.118q-.406,1.634-.812,3.262c-1.1,4.428-2.2,8.847-3.453,13.232a19.225,19.225,0,0,0-1.013,5.247h9.358c.722-1.811.722-1.811.668-3.008H-10.1c.167,1.487.167,1.487.334,3.008H-.073c-.508-2.888-.508-2.888-1.19-5.7-.1-.361-.2-.725-.3-1.1-.107-.391-.214-.779-.328-1.18-1.253-4.606-2.4-9.231-3.529-13.87-.084-.341-.167-.685-.251-1.036q-.712-2.928-1.42-5.856Z" transform="translate(212.146 288.989)" fill="#080600"/>
    <path id="Path_28308" data-name="Path 28308" d="M-.1,0H11.268c1.878,3.76,1.878,3.76,2.493,5.2.13.307.261.612.394.926s.257.615.391.929l.411.969c.331.779.662,1.554.989,2.333a7.664,7.664,0,0,0,1.6-2.684c.177-.4.354-.805.535-1.22s.374-.852.558-1.277.374-.852.561-1.277c.344-.782.685-1.561,1.029-2.343.231-.525.471-1.046.729-1.561H32.324V3.342a10.282,10.282,0,0,1-4.806,1.524c-1.143.013-1.143.013-1.544.481-.839.164-1.681.3-2.523.434a2.767,2.767,0,0,0-1.822,1.237c-.521.946-1,1.908-1.471,2.874-.535.8-.535.8-1.267,1.083-.2.017-.4.033-.6.053l-.334,1.337c-3.593.287-3.593.287-4.886-.772a3.7,3.7,0,0,1-1.13-1.9l-.668-.334a10.38,10.38,0,0,1-.374-1.524c-.087-.414-.087-.414-.17-.839-.06-.318-.06-.318-.124-.645a19.691,19.691,0,0,0-4.993-.8A9.19,9.19,0,0,1,.239,4.011C-.329,2.737-.1,1.4-.1,0Z" transform="translate(148.667 290.77)" fill="#fc2020"/>
    <path id="Path_28309" data-name="Path 28309" d="M0,0H9.024c.668,1.173,1.337,2.343,2.025,3.549.207.361.411.719.625,1.09,1.44,2.54,2.721,5.1,4.034,7.727L16.043,0h8.69V4.679a41.169,41.169,0,0,1-3.76,1.985,3.865,3.865,0,0,0-2.256,2.36c-.027.378-.057.759-.084,1.15a4.223,4.223,0,0,1-1.992,2.838c-.6.358-.6.358-1.6.358v.668h.668l-.334,1A5.545,5.545,0,0,1,12.032,13.7a5.651,5.651,0,0,0-1.337-.334l.334-1c-.194-.227-.384-.455-.585-.688A8.459,8.459,0,0,1,8.96,8.092c-.231-.856-.231-.856-1.273-1.407-1.036-.124-2.062-.17-3.1-.221a1.822,1.822,0,0,1-1.574-.782q-1.163-.521-2.34-1L0,5.348Z" transform="translate(215.75 290.77)" fill="#fd1c1c"/>
    <path id="Path_28310" data-name="Path 28310" d="M-17.107-.234V.435h.668V1.1l1.337.668v2.34h.668l-.334,2.005,1,.334c-.628,1.106-1.26,2.213-1.922,3.3-.445.618-.445.618-.418,1.043h-1.671l.334,2.34H-22.12l.334-2.34-.8.04c-.876-.04-.876-.04-1.544-.709a23.1,23.1,0,0,1-.334-2.674l-1,.334a6.181,6.181,0,0,1,.668-5.013,5.571,5.571,0,0,0,0-1.671C-22.488-.742-19.911-.354-17.107-.234Z" transform="translate(218.151 297.02)" fill="#f90000"/>
    <path id="Path_28311" data-name="Path 28311" d="M-25.553,0c.291,0,.585,0,.886,0a24.65,24.65,0,0,1,8.93,1.481,4.33,4.33,0,0,0,2.757-.043l.668.334c.114-.441.221-.882.334-1.337q.256.973.5,1.942c.094.361.187.722.284,1.093a6.075,6.075,0,0,1,.217,1.979h-9.692C-20.83,3.96-20.83,3.96-21,2.44h-7.353c-.11.882-.217,1.765-.334,2.674-.334.334-.334.334-1.23.374-.391,0-.779,0-1.183-.007-.421,0-.842,0-1.277,0s-.9-.007-1.344-.007-.9,0-1.347-.007q-1.654-.005-3.312-.017c.334-2.934.334-2.934,1-4.011.11.331.224.662.334,1A43.966,43.966,0,0,0-29.784.411,14.515,14.515,0,0,1-25.553,0Z" transform="translate(282.872 314.065)" fill="#c90000"/>
    <path id="Path_28312" data-name="Path 28312" d="M0,0A31.358,31.358,0,0,1,7.938,1.023c3.118.9,6.223.769,9.442.648V1.337L20.388.668l-1,4.679H0Z" transform="translate(303.985 314.166)" fill="#cf0000"/>
    <path id="Path_28313" data-name="Path 28313" d="M-47.326,0h.334V16.711a47.042,47.042,0,0,1-5.475,1.568c-.592.124-.592.124-1.2.254a7.565,7.565,0,0,1-2.019.184V17.045l-1.1.02c-1.357.027-2.714.04-4.071.053-.585.007-1.173.017-1.758.027-.846.017-1.688.023-2.533.03l-.789.02a5.475,5.475,0,0,1-4.118-1.487,5.2,5.2,0,0,1-1-3.676l1.337.668v.668l.561.027c.842.037,1.688.077,2.53.12l.882.04.856.04c.391.02.391.02.785.037a5.569,5.569,0,0,1,1.37.241,14.186,14.186,0,0,0,3.553.16c.565-.007,1.133-.01,1.7-.017q1.334-.015,2.67-.037,1.288-.02,2.584-.03c.264-.007.531-.013.8-.017.374,0,.374,0,.759,0l.658-.01c.675.117.675.117,2.346,1.12Z" transform="translate(346.297 302.468)" fill="#bd0000"/>
    <path id="Path_28314" data-name="Path 28314" d="M-.046-.08Q3.734-.09,7.517-.1c1.173,0,2.343,0,3.513-.01q2.02-.005,4.034-.007c.424,0,.846,0,1.28,0h1.176c.515,0,.515,0,1.043,0,.775.04.775.04,1.11.374.023.508.027,1.016.02,1.524,0,.277-.007.555-.007.839-.007.211-.01.424-.013.645l-.852.013q-1.579.035-3.162.074c-.451.013-.906.02-1.36.03-3.466.037-3.466.037-6.658,1.22A8.9,8.9,0,0,1,.886,3.954,1.659,1.659,0,0,1-.046,2.928C-.069,2.413-.073,1.9-.066,1.384c0-.274.007-.548.007-.829C-.053.345-.049.137-.046-.08Z" transform="translate(304.031 290.85)" fill="#fd1d1d"/>
    <path id="Path_28315" data-name="Path 28315" d="M-1.4,0H11.967a11.241,11.241,0,0,1,.418,2.674c.01.221.017.441.027.668A2.931,2.931,0,0,1,11.3,5.348,19,19,0,0,1,8.444,5.5H7.6c-.592,0-1.18-.007-1.768-.017Q4.476,5.47,3.124,5.471l-1.718-.01c-.271,0-.541,0-.822,0-1.908-.033-1.908-.033-2.654-.779A11.569,11.569,0,0,1-1.4,0Z" transform="translate(252.914 290.77)" fill="#fd2626"/>
    <path id="Path_28316" data-name="Path 28316" d="M-1.4,0H11.967a11.241,11.241,0,0,1,.418,2.674c.01.221.017.441.027.668A2.931,2.931,0,0,1,11.3,5.348,19,19,0,0,1,8.444,5.5H7.6c-.592,0-1.18-.007-1.768-.017Q4.476,5.47,3.124,5.471l-1.718-.01c-.271,0-.541,0-.822,0-1.908-.033-1.908-.033-2.654-.779A11.569,11.569,0,0,1-1.4,0Z" transform="translate(193.088 290.77)" fill="#fd2626"/>
    <path id="Path_28317" data-name="Path 28317" d="M-.095-.3Q3.69-.345,7.479-.37,9.238-.38,11-.4c1.35-.017,2.7-.023,4.051-.03l1.267-.02A9.8,9.8,0,0,1,22.3,1.037a6.976,6.976,0,0,1-.334,1.337,8.049,8.049,0,0,1-4.659.541c-.5-.037-1.006-.07-1.511-.107-.254-.017-.5-.037-.765-.053a21.413,21.413,0,0,0-7.186.287,9.457,9.457,0,0,1-6.1-.127q-.922-.6-1.838-1.21A10.569,10.569,0,0,1-.095-.3Z" transform="translate(329.481 291.07)" fill="#fe2f2f"/>
    <path id="Path_28318" data-name="Path 28318" d="M-28.076,0h.334c.167.809.334,1.614.5,2.423.047.227.1.455.144.692a15.451,15.451,0,0,1,.358,3.235l-12.366.334-.334,12.7h-.334V11.029l-1.337-.668C-42.07,9.4-42.056,8.523-42.17,7.2c.094-1.414.685-1.935,1.728-2.858h.668V3.676a29.409,29.409,0,0,1,7.894-.709l1.213.007q1.459.015,2.924.033v-1H-30.75V1.671h2.005V1h.668Z" transform="translate(324.039 292.107)" fill="#da0000"/>
    <path id="Path_28319" data-name="Path 28319" d="M-7.55,0H-6.5c.374.007.745.01,1.126.017.575,0,.575,0,1.163,0C-2.984.026-1.765.036-.541.05.288.056,1.12.06,1.949.063q3.048.02,6.1.05v2.34a5.3,5.3,0,0,1-2.557.418c-.384.01-.769.02-1.166.033-.805.02-1.608.037-2.413.057A42.172,42.172,0,0,0-7.329,4.124a5.757,5.757,0,0,1-4.011-.668,9.958,9.958,0,0,1,.334-2.34A4.82,4.82,0,0,1-7.55,0Z" transform="translate(287.919 290.657)" fill="#fd2c2c"/>
    <path id="Path_28320" data-name="Path 28320" d="M-6.936-.134c.187.077.371.15.565.231V.765l1.671.668c.064.662.13,1.327.194,1.989.114.785.114.785.809,1.688-.16.13-.318.261-.481.4a3.654,3.654,0,0,0-.856,2.276l1.337.334h-1l.334,3.342H-9.045l.334-3.676h-.668V7.115h-1a13.8,13.8,0,0,1,1-6.35C-8.009-.278-8.009-.278-6.936-.134Z" transform="translate(264.903 298.696)" fill="#e10000"/>
    <path id="Path_28321" data-name="Path 28321" d="M-6.936-.134c.187.077.371.15.565.231V.765l1.671.668c.064.662.13,1.327.194,1.989.114.785.114.785.809,1.688-.16.13-.318.261-.481.4a3.654,3.654,0,0,0-.856,2.276l1.337.334h-1l.334,3.342H-9.045l.334-3.676h-.668V7.115h-1a13.8,13.8,0,0,1,1-6.35C-8.009-.278-8.009-.278-6.936-.134Z" transform="translate(205.077 298.696)" fill="#e10000"/>
    <path id="Path_28322" data-name="Path 28322" d="M0-.12,2.467-.16l.772-.02c.592,0,1.183.027,1.775.06.668.668.668.668.735,1.758-.01.424-.017.852-.027,1.29s-.01.859-.017,1.3c-.007.331-.017.658-.023,1a5.679,5.679,0,0,1-3.593.709L0,5.9Z" transform="translate(338.41 298.243)" fill="#080500"/>
    <path id="Path_28323" data-name="Path 28323" d="M0,0H15.708l-.334,1a4.641,4.641,0,0,1-1.3.354c-.274.053-.548.1-.832.157s-.582.1-.879.157c-.267.064-.531.124-.805.191A28.788,28.788,0,0,1,5.6,2.443l-.765.02a8.193,8.193,0,0,1-4.5-1.126Z" transform="translate(305.99 290.77)" fill="#ff3535"/>
    <path id="Path_28324" data-name="Path 28324" d="M-.538,0H9.489C9.1,1.537,9.1,1.537,8.015,2.239A9.249,9.249,0,0,1,2.972,3.279l-.929.027c-.749.02-1.5.03-2.246.037C-1.069,2.019-.835,1.785-.538,0Z" transform="translate(170.165 290.77)" fill="#fe3232"/>
    <path id="Path_28325" data-name="Path 28325" d="M-3.995,0l.668.334a17.634,17.634,0,0,1,.5,2.055c.087.418.177.836.267,1.267s.18.892.271,1.337.187.886.281,1.33c.682,3.255.682,3.255.682,4.037H-6C-5.459,6.878-4.737,3.442-3.995,0Z" transform="translate(261.857 299.794)" fill="#0c0800"/>
    <path id="Path_28326" data-name="Path 28326" d="M-3.995,0l.668.334a17.634,17.634,0,0,1,.5,2.055c.087.418.177.836.267,1.267s.18.892.271,1.337.187.886.281,1.33c.682,3.255.682,3.255.682,4.037H-6C-5.459,6.878-4.737,3.442-3.995,0Z" transform="translate(202.031 299.794)" fill="#0c0800"/>
    <path id="Path_28327" data-name="Path 28327" d="M-21.3,0h.334V7.019H-31.332V6.684l8.69-.334.668-1.671c-1.31-.01-2.617-.017-3.927-.02l-1.126-.01c-.358,0-.715,0-1.083,0-.495,0-.495,0-1,0a3.609,3.609,0,0,0-1.634.247c-.194.04-.391.08-.592.124L-32,4.345a10.813,10.813,0,0,1,3.259-.378c.371,0,.739,0,1.116,0l1.16.007c.384,0,.769,0,1.163-.007.371,0,.739,0,1.116,0h1.019a4.711,4.711,0,0,1,1.862.378Z" transform="translate(344.34 301.799)" fill="#ca0000"/>
    <path id="Path_28328" data-name="Path 28328" d="M-.666,0,1.34,1v.668l2.34.668v.668c.277.094.555.184.839.281L10.7,5.348v.668C6.4,5.635,2.71,3.372-1,1.337Z" transform="translate(213.408 134.688)" fill="#fff"/>
    <path id="Path_28329" data-name="Path 28329" d="M0,0,11.364.334l-.334,1.337a4.256,4.256,0,0,1-2.8.541c-.267-.1-.267-.1-.541-.207l2.005-.668-.745-.05C7.831,1.21,6.715,1.126,5.6,1.043c-.388-.023-.775-.05-1.173-.077L3.3.879C2.951.856,2.61.832,2.256.805A5.215,5.215,0,0,1,0,0Z" transform="translate(239.814 140.036)" fill="#fff"/>
    <path id="Path_28330" data-name="Path 28330" d="M0,0H2.674V2.674H0Z" transform="translate(340.081 299.794)" fill="#f8f800"/>
    <path id="Path_28331" data-name="Path 28331" d="M-13.316,0l.668.334q-1.409,1.429-2.821,2.854c-.318.324-.638.648-.956.976q-.687.7-1.38,1.39c-.277.281-.551.561-.839.849-.688.615-.688.615-1.357.615A9.707,9.707,0,0,1-17.41,3.7c.17-.17.344-.341.518-.518C-15.749,2.049-14.562,1.013-13.316,0Z" transform="translate(229.4 172.121)" fill="#fff"/>
    <path id="Path_28332" data-name="Path 28332" d="M-5.326,0l.668.334L-4.992,1H2.027v.334q-1.659.17-3.322.334c-.307.033-.618.064-.936.1A49.643,49.643,0,0,1-8,2.005V1.337c.431-.234.862-.461,1.3-.688.237-.13.478-.257.725-.388C-5.761.174-5.547.087-5.326,0Z" transform="translate(151.224 143.044)" fill="#fff"/>
    <path id="Path_28333" data-name="Path 28333" d="M-3.382,0h.334a22.868,22.868,0,0,1-.668,6.35l-.334.334c-.134.842-.251,1.681-.354,2.527-.03.237-.06.475-.094.722L-4.719,11.7h-.334a28.829,28.829,0,0,1,.836-7.727c.08-.384.16-.769.241-1.163Q-3.681,1.4-3.382,0Z" transform="translate(293.329 238.297)" fill="#fff"/>
    <path id="Path_28334" data-name="Path 28334" d="M-4.66,0h1l.334,1.671L-3.658,1a4.39,4.39,0,0,0-1.5,2.467,11.573,11.573,0,0,1-1.5,3.215L-7,6.016a8.458,8.458,0,0,1,.6-1.21A15.666,15.666,0,0,0-4.995.668Z" transform="translate(245.812 170.45)" fill="#fff"/>
    <path id="Path_28335" data-name="Path 28335" d="M-2,0h.334V7.019H-2L-2.332,2.34c-.331.167-.331.167-.668.334A14.239,14.239,0,0,1-2,0Z" transform="translate(171.959 312.494)" fill="#e1e100"/>
    <path id="Path_28336" data-name="Path 28336" d="M-4.814,0c.4,0,.4,0,.812,0s.418,0,.846.01c.281,0,.565,0,.856,0,.7,0,1.394.01,2.089.017V.367Q-1.4.537-2.594.7c-.221.03-.445.064-.672.1a24.588,24.588,0,0,1-3.964.237V.367A6.388,6.388,0,0,1-4.814,0Z" transform="translate(148.783 144.683)" fill="#fff"/>
    <path id="Path_28337" data-name="Path 28337" d="M-7.324-1.09v.668a8.474,8.474,0,0,1-3.676-1C-9.58-1.9-8.754-1.488-7.324-1.09Z" transform="translate(231.429 141.126)" fill="#fff"/>
    <path id="Path_28338" data-name="Path 28338" d="M-1.332,0c.064.321.064.321.127.648.1.341.1.341.207.688l.668.334a18.414,18.414,0,0,1-1,1.671H-2Q-1.664,1.673-1.332,0Z" transform="translate(232.79 112.63)" fill="#fff"/>
    <path id="Path_28339" data-name="Path 28339" d="M0,0H1l.334,1H.668v2.34H.334Z" transform="translate(207.395 188.832)" fill="#fff"/>
    <path id="Path_28340" data-name="Path 28340" d="M-3.329,0V1l.668.668L-5,2.005A3.142,3.142,0,0,1-3.329,0Z" transform="translate(269.881 138.031)" fill="#fff"/>
    <path id="Path_28341" data-name="Path 28341" d="M-.666,0,2.676.334V.668L-1,1Z" transform="translate(256.188 144.381)" fill="#fff"/>
  </g>
</svg>
